<?xml version="1.0" encoding="UTF-8"?>
<svg version="1.1" xmlns="http://www.w3.org/2000/svg" width="512" height="512">
<path d="M0 0 C2.3736741 -0.00435483 4.74734681 -0.00954053 7.12101746 -0.01548767 C13.53037458 -0.02880742 19.93967249 -0.02946409 26.34904075 -0.02692437 C30.36365146 -0.02563435 34.37825339 -0.02827611 38.39286232 -0.03191185 C39.39693432 -0.03280463 39.39693432 -0.03280463 40.42129061 -0.03371545 C41.78178098 -0.03492739 43.14227134 -0.03614152 44.5027617 -0.03735783 C57.22408635 -0.04820129 69.94538441 -0.04608634 82.66671053 -0.03997298 C94.25969419 -0.03480922 105.85259369 -0.0460507 117.44556072 -0.0650712 C129.39715123 -0.08452717 141.3487021 -0.09269192 153.30030853 -0.08894795 C159.99094957 -0.08704729 166.68150386 -0.08968256 173.37213707 -0.10366249 C179.67026761 -0.11633132 185.96823105 -0.11421187 192.26635933 -0.1012516 C194.56231622 -0.09890569 196.85828522 -0.10154812 199.15422821 -0.10987473 C216.55832759 -0.16838395 234.20710346 0.44262347 250.77856445 6.3371582 C251.63514648 6.63388428 252.49172852 6.93061035 253.37426758 7.23632812 C268.1313287 12.5669234 281.27295563 20.1330239 293.21606445 30.2746582 C294.47676758 31.3265332 294.47676758 31.3265332 295.76293945 32.3996582 C314.41338665 48.42151888 327.21808369 70.74135817 333.96606445 94.2121582 C334.16482178 94.89052734 334.3635791 95.56889648 334.56835938 96.26782227 C338.66095728 111.33307334 338.50958276 126.59420328 338.49072266 142.07446289 C338.49507745 144.44975951 338.50026314 146.82505473 338.50621033 149.2003479 C338.5195297 155.61376998 338.52018684 162.02713286 338.51764703 168.44056606 C338.5163571 172.45717909 338.51899857 176.47378334 338.52263451 180.49039459 C338.5232297 181.16006465 338.52382488 181.82973471 338.52443811 182.5196978 C338.52565004 183.8807539 338.52686417 185.24180999 338.52808049 186.60286608 C338.53892359 199.32892936 338.53680903 212.05496606 338.53069564 224.7810308 C338.52553063 236.38115652 338.53677671 247.98119816 338.55579386 259.58130726 C338.57524373 271.53854301 338.58341571 283.49573913 338.57967061 295.45299077 C338.5777692 302.14751231 338.5804124 308.84194715 338.59438515 315.53646088 C338.60704517 321.83705064 338.60494266 328.13747329 338.59197426 334.43806076 C338.58962655 336.73605025 338.59227743 339.03405181 338.60059738 341.33202744 C338.72887764 379.55127367 329.05173975 413.86776671 302.2746582 442.2199707 C287.77608669 456.69103069 270.22157474 467.44564996 250.90356445 474.1496582 C250.13584717 474.42382568 249.36812988 474.69799316 248.57714844 474.98046875 C231.52762331 480.53938366 213.58830599 480.71463138 195.84863281 480.6628418 C193.47259786 480.6669177 191.09656481 480.67226524 188.72053528 480.67877197 C182.32803759 480.69232946 175.93568682 480.68719536 169.5431869 480.67763472 C165.53742673 480.67307466 161.53170188 480.67332186 157.52594185 480.6761055 C156.85694924 480.6765652 156.18795663 480.6770249 155.49869152 480.67749853 C154.13884308 480.67845789 152.77899466 480.67943053 151.41914625 480.6804163 C138.72642636 480.68893094 126.03377193 480.67919783 113.34106279 480.6630152 C102.49361854 480.64961251 91.64627065 480.65194736 80.79882812 480.66577148 C68.14399608 480.68189186 55.48922109 480.68811056 42.83438021 480.67893469 C41.48037725 480.67797923 40.12637427 480.67703612 38.77237129 480.6761055 C38.10650167 480.67564267 37.44063205 480.67517985 36.75458456 480.67470299 C32.10352142 480.67213261 27.452496 480.67659149 22.80143547 480.68354416 C16.52128887 480.69227837 10.24132236 480.68607516 3.96119499 480.66886139 C1.67126767 480.66493095 -0.61867509 480.66597064 -2.90859604 480.67264938 C-41.11779292 480.77372444 -75.35910052 471.07838784 -103.72143555 444.3449707 C-119.79798005 428.2075302 -131.25460752 408.17789214 -137.53393555 386.3371582 C-137.73269287 385.65878906 -137.9314502 384.98041992 -138.13623047 384.28149414 C-142.22882837 369.21624306 -142.07745386 353.95511312 -142.05859375 338.47485352 C-142.06294854 336.09955689 -142.06813423 333.72426167 -142.07408142 331.34896851 C-142.08740079 324.93554643 -142.08805794 318.52218354 -142.08551812 312.10875034 C-142.08422819 308.09213732 -142.08686966 304.07553306 -142.0905056 300.05892181 C-142.09110079 299.38925176 -142.09169598 298.7195817 -142.0923092 298.02961861 C-142.09352113 296.66856251 -142.09473527 295.30750642 -142.09595158 293.94645032 C-142.10679468 281.22038704 -142.10468013 268.49435035 -142.09856673 255.7682856 C-142.09340173 244.16815988 -142.1046478 232.56811824 -142.12366495 220.96800914 C-142.14311483 209.0107734 -142.1512868 197.05357728 -142.1475417 185.09632564 C-142.14564029 178.4018041 -142.1482835 171.70736925 -142.16225624 165.01285553 C-142.17491627 158.71226576 -142.17281375 152.41184312 -142.15984535 146.11125565 C-142.15749765 143.81326616 -142.16014853 141.5152646 -142.16846848 139.21728897 C-142.30091618 99.75641406 -132.18749997 66.28306939 -104.15893555 37.5871582 C-103.37518555 36.8240332 -102.59143555 36.0609082 -101.78393555 35.2746582 C-101.29924805 34.76370605 -100.81456055 34.25275391 -100.31518555 33.72631836 C-96.04544381 29.27909031 -91.55544428 25.71697184 -86.40893555 22.3371582 C-85.62365479 21.82137207 -84.83837402 21.30558594 -84.02929688 20.77416992 C-72.9933904 13.68226489 -61.74378464 8.59712135 -49.15893555 4.8996582 C-47.94403442 4.54121826 -47.94403442 4.54121826 -46.70458984 4.17553711 C-31.289767 -0.05034286 -15.85554593 -0.01933109 0 0 Z " fill="#FECF01" transform="translate(157.783935546875,15.725341796875)"/>
<path d="M0 0 C2.3736741 -0.00435483 4.74734681 -0.00954053 7.12101746 -0.01548767 C13.53037458 -0.02880742 19.93967249 -0.02946409 26.34904075 -0.02692437 C30.36365146 -0.02563435 34.37825339 -0.02827611 38.39286232 -0.03191185 C39.39693432 -0.03280463 39.39693432 -0.03280463 40.42129061 -0.03371545 C41.78178098 -0.03492739 43.14227134 -0.03614152 44.5027617 -0.03735783 C57.22408635 -0.04820129 69.94538441 -0.04608634 82.66671053 -0.03997298 C94.25969419 -0.03480922 105.85259369 -0.0460507 117.44556072 -0.0650712 C129.39715123 -0.08452717 141.3487021 -0.09269192 153.30030853 -0.08894795 C159.99094957 -0.08704729 166.68150386 -0.08968256 173.37213707 -0.10366249 C179.67026761 -0.11633132 185.96823105 -0.11421187 192.26635933 -0.1012516 C194.56231622 -0.09890569 196.85828522 -0.10154812 199.15422821 -0.10987473 C216.55832759 -0.16838395 234.20710346 0.44262347 250.77856445 6.3371582 C251.63514648 6.63388428 252.49172852 6.93061035 253.37426758 7.23632812 C268.1313287 12.5669234 281.27295563 20.1330239 293.21606445 30.2746582 C294.47676758 31.3265332 294.47676758 31.3265332 295.76293945 32.3996582 C314.41338665 48.42151888 327.21808369 70.74135817 333.96606445 94.2121582 C334.16482178 94.89052734 334.3635791 95.56889648 334.56835938 96.26782227 C338.66095728 111.33307334 338.50958276 126.59420328 338.49072266 142.07446289 C338.49507745 144.44975951 338.50026314 146.82505473 338.50621033 149.2003479 C338.5195297 155.61376998 338.52018684 162.02713286 338.51764703 168.44056606 C338.5163571 172.45717909 338.51899857 176.47378334 338.52263451 180.49039459 C338.5232297 181.16006465 338.52382488 181.82973471 338.52443811 182.5196978 C338.52565004 183.8807539 338.52686417 185.24180999 338.52808049 186.60286608 C338.53892359 199.32892936 338.53680903 212.05496606 338.53069564 224.7810308 C338.52553063 236.38115652 338.53677671 247.98119816 338.55579386 259.58130726 C338.57524373 271.53854301 338.58341571 283.49573913 338.57967061 295.45299077 C338.5777692 302.14751231 338.5804124 308.84194715 338.59438515 315.53646088 C338.60704517 321.83705064 338.60494266 328.13747329 338.59197426 334.43806076 C338.58962655 336.73605025 338.59227743 339.03405181 338.60059738 341.33202744 C338.72887764 379.55127367 329.05173975 413.86776671 302.2746582 442.2199707 C287.77608669 456.69103069 270.22157474 467.44564996 250.90356445 474.1496582 C250.13584717 474.42382568 249.36812988 474.69799316 248.57714844 474.98046875 C231.52762331 480.53938366 213.58830599 480.71463138 195.84863281 480.6628418 C193.47259786 480.6669177 191.09656481 480.67226524 188.72053528 480.67877197 C182.32803759 480.69232946 175.93568682 480.68719536 169.5431869 480.67763472 C165.53742673 480.67307466 161.53170188 480.67332186 157.52594185 480.6761055 C156.85694924 480.6765652 156.18795663 480.6770249 155.49869152 480.67749853 C154.13884308 480.67845789 152.77899466 480.67943053 151.41914625 480.6804163 C138.72642636 480.68893094 126.03377193 480.67919783 113.34106279 480.6630152 C102.49361854 480.64961251 91.64627065 480.65194736 80.79882812 480.66577148 C68.14399608 480.68189186 55.48922109 480.68811056 42.83438021 480.67893469 C41.48037725 480.67797923 40.12637427 480.67703612 38.77237129 480.6761055 C38.10650167 480.67564267 37.44063205 480.67517985 36.75458456 480.67470299 C32.10352142 480.67213261 27.452496 480.67659149 22.80143547 480.68354416 C16.52128887 480.69227837 10.24132236 480.68607516 3.96119499 480.66886139 C1.67126767 480.66493095 -0.61867509 480.66597064 -2.90859604 480.67264938 C-41.11779292 480.77372444 -75.35910052 471.07838784 -103.72143555 444.3449707 C-119.79798005 428.2075302 -131.25460752 408.17789214 -137.53393555 386.3371582 C-137.73269287 385.65878906 -137.9314502 384.98041992 -138.13623047 384.28149414 C-142.22882837 369.21624306 -142.07745386 353.95511312 -142.05859375 338.47485352 C-142.06294854 336.09955689 -142.06813423 333.72426167 -142.07408142 331.34896851 C-142.08740079 324.93554643 -142.08805794 318.52218354 -142.08551812 312.10875034 C-142.08422819 308.09213732 -142.08686966 304.07553306 -142.0905056 300.05892181 C-142.09110079 299.38925176 -142.09169598 298.7195817 -142.0923092 298.02961861 C-142.09352113 296.66856251 -142.09473527 295.30750642 -142.09595158 293.94645032 C-142.10679468 281.22038704 -142.10468013 268.49435035 -142.09856673 255.7682856 C-142.09340173 244.16815988 -142.1046478 232.56811824 -142.12366495 220.96800914 C-142.14311483 209.0107734 -142.1512868 197.05357728 -142.1475417 185.09632564 C-142.14564029 178.4018041 -142.1482835 171.70736925 -142.16225624 165.01285553 C-142.17491627 158.71226576 -142.17281375 152.41184312 -142.15984535 146.11125565 C-142.15749765 143.81326616 -142.16014853 141.5152646 -142.16846848 139.21728897 C-142.30091618 99.75641406 -132.18749997 66.28306939 -104.15893555 37.5871582 C-103.37518555 36.8240332 -102.59143555 36.0609082 -101.78393555 35.2746582 C-101.29924805 34.76370605 -100.81456055 34.25275391 -100.31518555 33.72631836 C-96.04544381 29.27909031 -91.55544428 25.71697184 -86.40893555 22.3371582 C-85.62365479 21.82137207 -84.83837402 21.30558594 -84.02929688 20.77416992 C-72.9933904 13.68226489 -61.74378464 8.59712135 -49.15893555 4.8996582 C-47.94403442 4.54121826 -47.94403442 4.54121826 -46.70458984 4.17553711 C-31.289767 -0.05034286 -15.85554593 -0.01933109 0 0 Z M50.46606445 15.4621582 C49.54905762 15.67646484 48.63205078 15.89077148 47.68725586 16.11157227 C10.70765164 25.0575364 -23.43586499 43.04431114 -51.3034668 68.98168945 C-53.41903303 70.93733887 -55.57636846 72.80031701 -57.78393555 74.6496582 C-90.68058572 103.47593178 -113.76477472 148.234432 -122.2487793 190.67016602 C-122.77206612 193.21689222 -123.36807985 195.7380755 -123.97143555 198.2668457 C-130.34888498 227.32296954 -129.27052581 261.3541662 -122.78393555 290.2746582 C-122.6020166 291.14896484 -122.42009766 292.02327148 -122.23266602 292.92407227 C-115.30798052 325.98186486 -99.65559319 357.83227343 -78.78393555 384.2746582 C-78.10073242 385.1512207 -77.4175293 386.0277832 -76.71362305 386.9309082 C-58.43429414 409.86438358 -36.46479539 429.03081021 -10.78393555 443.2746582 C-10.1502002 443.63720703 -9.51646484 443.99975586 -8.86352539 444.37329102 C20.29128134 461.03112024 54.26494112 471.20625249 87.9387207 471.51293945 C88.83401993 471.52268799 89.72931915 471.53243652 90.65174866 471.54248047 C109.83920942 471.70855624 128.44203372 471.73628589 147.21606445 467.2746582 C148.00899902 467.09273926 148.80193359 466.91082031 149.61889648 466.72338867 C180.84319431 459.36914972 211.19178996 445.4125359 236.21606445 425.2746582 C237.0874707 424.5940332 237.95887695 423.9134082 238.85668945 423.2121582 C286.31467499 385.46779543 317.39168413 329.89761095 324.6887207 269.64575195 C331.18453121 208.2609135 315.55264087 146.31819218 276.89575195 97.61108398 C273.761057 93.75114711 270.51500577 89.99464566 267.21606445 86.2746582 C266.72847656 85.72390625 266.24088867 85.1731543 265.73852539 84.60571289 C229.43404134 43.85481646 176.08236433 15.31298201 121.21606445 11.2746582 C113.78243852 10.89213125 106.34565541 10.83395507 98.90356445 10.8371582 C97.99849152 10.83675537 97.09341858 10.83635254 96.16091919 10.8359375 C80.71847365 10.87666005 65.5400162 11.90184557 50.46606445 15.4621582 Z " fill="#EDEDED" transform="translate(157.783935546875,15.725341796875)"/>
<path d="M0 0 C0 12.54 0 25.08 0 38 C-2.97 36.02 -5.94 34.04 -9 32 C-9 31.34 -9 30.68 -9 30 C-9.66 29.7525 -10.32 29.505 -11 29.25 C-13.35083865 28.2704839 -15.55367589 27.22532661 -17.8125 26.0625 C-26.83938514 21.51512177 -34.72201967 19.84709752 -44.9375 19.9375 C-45.96327148 19.94426758 -45.96327148 19.94426758 -47.00976562 19.95117188 C-48.67321604 19.9628044 -50.3366205 19.98073306 -52 20 C-52 20.66 -52 21.32 -52 22 C-51.19175781 22.37511719 -50.38351563 22.75023438 -49.55078125 23.13671875 C-39.05096374 28.16497877 -39.05096374 28.16497877 -35 33 C-34.52046875 33.40734375 -34.0409375 33.8146875 -33.546875 34.234375 C-24.56950775 44.48126893 -26.20234037 62.49523929 -26.79931641 75.00537109 C-27.98955716 92.76631158 -34.66268427 107.17220274 -44 122 C-44.49113281 122.83273438 -44.98226562 123.66546875 -45.48828125 124.5234375 C-47.39232356 127.64272129 -49.46820057 130.63216753 -51.5625 133.625 C-53.7308758 136.73569098 -55.89650087 139.84475131 -58 143 C-58.66 143 -59.32 143 -60 143 C-60.226875 143.70125 -60.45375 144.4025 -60.6875 145.125 C-62.31686529 148.69408588 -64.43177069 151.03665849 -67 154 C-67.33 154.66 -67.66 155.32 -68 156 C-68.66 156 -69.32 156 -70 156 C-70 156.66 -70 157.32 -70 158 C-70.66 158 -71.32 158 -72 158 C-72.22558594 158.71027344 -72.45117188 159.42054688 -72.68359375 160.15234375 C-74.29657497 163.64155238 -76.39137679 165.8012123 -79.0625 168.5625 C-88.58926549 178.29620269 -88.58926549 178.29620269 -95 190 C-95.99 190 -96.98 190 -98 190 C-98.268125 190.721875 -98.53625 191.44375 -98.8125 192.1875 C-99.99901362 194.99766383 -101.27485639 197.48416557 -103 200 C-103.66 200 -104.32 200 -105 200 C-105.26039063 200.71542969 -105.52078125 201.43085938 -105.7890625 202.16796875 C-107.05825432 205.13623994 -108.59283754 207.62369157 -110.375 210.3125 C-113.2650527 214.76197696 -115.70066959 219.22446761 -118 224 C-119 225 -119 225 -120.74725437 225.12304783 C-121.51326434 225.12212604 -122.27927431 225.12120424 -123.0684967 225.12025452 C-124.38316673 225.12231651 -124.38316673 225.12231651 -125.72439575 225.12442017 C-127.17771805 225.11902725 -127.17771805 225.11902725 -128.66040039 225.11352539 C-129.67491776 225.11367142 -130.68943512 225.11381744 -131.73469543 225.1139679 C-135.10570373 225.11326829 -138.47665754 225.10547368 -141.84765625 225.09765625 C-144.17793243 225.09579224 -146.508209 225.09436826 -148.83848572 225.09336853 C-154.98537265 225.08954202 -161.13223613 225.0797106 -167.27911377 225.06866455 C-173.54609866 225.05845329 -179.81308732 225.05387152 -186.08007812 225.04882812 C-198.38672908 225.03808845 -210.69336259 225.02101044 -223 225 C-223.01874498 222.01689722 -223.03228944 219.03391521 -223.04296875 216.05078125 C-223.0516095 214.80222351 -223.0516095 214.80222351 -223.0604248 213.52844238 C-223.21307213 156.42446597 -193.9921765 102.27664806 -154.8125 62.4375 C-146.4529562 54.08458747 -137.64672422 46.80383125 -128 40 C-127.39833008 39.56429687 -126.79666016 39.12859375 -126.17675781 38.6796875 C-100.256168 19.95367691 -69.38764259 7.72636581 -38 2 C-36.87980469 1.79375 -35.75960937 1.5875 -34.60546875 1.375 C-23.06395252 -0.45739067 -11.66930951 -0.13809834 0 0 Z " fill="#EDEDED" transform="translate(257,30)"/>
<path d="M0 0 C11.38378611 0 21.90766622 0.20843709 33 2 C33.71897461 2.10763672 34.43794922 2.21527344 35.17871094 2.32617188 C78.32923763 8.9531942 118.84906524 30.78155346 150 61 C150.59022949 61.56444824 151.18045898 62.12889648 151.78857422 62.71044922 C190.82576057 100.13826948 215.78695292 151.99639655 220 206 C220 212.27 220 218.54 220 225 C191.95 225 163.9 225 135 225 C132.36 218.4 129.72 211.8 127 205 C124.74819259 200.81242832 122.58625191 196.93869557 120 193 C119.45859375 192.1440625 118.9171875 191.288125 118.359375 190.40625 C114.5059977 184.57216475 110.0268281 179.82109591 104.94140625 175.03125 C103 173 103 173 103 171 C102.319375 170.731875 101.63875 170.46375 100.9375 170.1875 C97.60289191 168.83946694 94.30256763 167.42463702 91 166 C91.35586182 166.5971582 91.71172363 167.19431641 92.07836914 167.80957031 C95.69976843 174.3510438 96.71146252 179.33625202 96.4375 186.75 C96.41937256 187.73137939 96.40124512 188.71275879 96.38256836 189.72387695 C95.76666442 213.9333423 95.76666442 213.9333423 93 225 C82.77 225 72.54 225 62 225 C63.093125 221.24625 64.18625 217.4925 65.3125 213.625 C68.28922601 203.13373098 70.63476859 192.81519258 72 182 C72.165 180.89914063 72.33 179.79828125 72.5 178.6640625 C74.78787898 158.97877043 70.14005309 137.98340126 62.28515625 120.015625 C60.47912976 115.7777756 58.94662218 111.4460175 57.40625 107.10546875 C55.6864839 103.30765194 53.50568413 100.32838375 51 97 C55.5196538 96.32517032 60.04089074 95.66158989 64.5625 95 C65.83931641 94.80921875 67.11613281 94.6184375 68.43164062 94.421875 C69.67236328 94.24140625 70.91308594 94.0609375 72.19140625 93.875 C73.32779541 93.70742187 74.46418457 93.53984375 75.63500977 93.3671875 C79.11682362 92.98725222 82.50037444 92.93774985 86 93 C86 92.34 86 91.68 86 91 C85.14390137 90.7417041 84.28780273 90.4834082 83.40576172 90.21728516 C79.85715655 88.94894499 76.79155963 87.36859065 73.5078125 85.5234375 C72.91700897 85.19332672 72.32620544 84.86321594 71.71749878 84.52310181 C69.85059425 83.478532 67.98777679 82.42690967 66.125 81.375 C64.85182702 80.66098645 63.5783919 79.94744012 62.3046875 79.234375 C59.20007649 77.49497356 56.09908708 75.74922862 53 74 C54.13009141 65.20443621 55.36566588 56.46228618 57.03125 47.75 C57.70289001 44.11766118 58.15820795 40.69631292 58 37 C57.5153125 37.49628906 57.030625 37.99257812 56.53125 38.50390625 C52.52100691 42.56813338 48.43124985 46.42779294 44.078125 50.12109375 C40.89600294 52.99816275 38.04364128 56.18732377 35.17578125 59.375 C33 61 33 61 30.6706543 60.76074219 C25.88294784 59.39695269 21.78854527 56.72756398 17.5 54.25 C16.56285156 53.7240625 15.62570312 53.198125 14.66015625 52.65625 C9.76449765 49.85079458 5.78779232 47.17859629 2 43 C1.34 42.67 0.68 42.34 0 42 C0 28.14 0 14.28 0 0 Z " fill="#EDEDED" transform="translate(260,30)"/>
<path d="M0 0 C4.61344166 0.55507006 6.88197139 3.69408265 9.8125 7 C10.6027356 7.87869751 10.6027356 7.87869751 11.40893555 8.77514648 C12.9526621 10.50553201 14.47935987 12.24931694 16 14 C16.78375 14.89847656 17.5675 15.79695312 18.375 16.72265625 C22.99148862 22.29781085 22.99148862 22.29781085 23.0234375 24.93359375 C21.48468037 28.04047361 18.97063777 29.87964021 16.3125 32 C15.12706109 32.97329726 13.94218487 33.94728018 12.7578125 34.921875 C12.14067383 35.42525391 11.52353516 35.92863281 10.88769531 36.44726562 C7.78157079 39.00222578 4.73589465 41.6266836 1.6875 44.25 C1.09606201 44.7567627 0.50462402 45.26352539 -0.10473633 45.78564453 C-3.21886036 48.45589525 -6.30823582 51.15032106 -9.375 53.875 C-19.02420949 62.34140316 -19.02420949 62.34140316 -24 64 C-24 65.32 -24 66.64 -24 68 C-23.34 68 -22.68 68 -22 68 C-21.01901347 69.39748296 -20.04743021 70.80283571 -19.1328125 72.24462891 C-17.24242095 75.17392099 -15.11676896 77.91966422 -13 80.6875 C-12.57460937 81.25533203 -12.14921875 81.82316406 -11.7109375 82.40820312 C-9.40026304 85.4312174 -7.19225184 87.90877947 -4 90 C2.51303344 86.2965104 8.04372251 81.71092616 13.69140625 76.8359375 C16.65559484 74.27748353 19.69140437 71.8201606 22.75 69.375 C26.29394399 66.50069659 29.56160995 63.51379117 32.75 60.25 C36.29235563 56.63793791 39.62756207 53.57202231 44 51 C51.05042057 51.71485378 56.34335047 59.22723728 60.5 64.3125 C64 68.70769231 64 68.70769231 64 71 C64.61875 71.309375 65.2375 71.61875 65.875 71.9375 C67.25 72.625 68.625 73.3125 70 74 C70 73.34 70 72.68 70 72 C80.23 72 90.46 72 101 72 C100.67 72.99 100.34 73.98 100 75 C90.1 75.33 80.2 75.66 70 76 C72.97 79.63 75.94 83.26 79 87 C79 87.66 79 88.32 79 89 C79.5878125 89.24878906 80.175625 89.49757813 80.78125 89.75390625 C83.30988593 91.17403805 84.66773363 92.70130218 86.5 94.9375 C88.31996437 97.15041123 89.90317584 98.92891607 92.21875 100.62890625 C92.8065625 101.08136719 93.394375 101.53382813 94 102 C94 102.66 94 103.32 94 104 C94.54398438 104.20753906 95.08796875 104.41507812 95.6484375 104.62890625 C98.89193677 106.52004951 101.1563958 109.16197042 103.625 111.9375 C104.35976563 112.74477539 104.35976563 112.74477539 105.109375 113.56835938 C110.94794878 120.03705246 110.94794878 120.03705246 111.125 123.3125 C109.63723422 126.86660714 107.55783946 128.03601966 104.44921875 130.20703125 C97.43187621 135.3441289 91.28470823 141.47827964 85.69140625 148.109375 C82.07856261 152.14774987 78.19382929 156.26872357 73 158 C73 158.66 73 159.32 73 160 C71.25 161.7265625 71.25 161.7265625 69 163.625 C68.2575 164.25664062 67.515 164.88828125 66.75 165.5390625 C66.1725 166.02117187 65.595 166.50328125 65 167 C66.87684739 171.14038192 69.59399433 174.3684795 72.44140625 177.87890625 C74 180 74 180 75 183 C75.99 183.33 76.98 183.66 78 184 C79.75 185.75 79.75 185.75 81 188 C81 191.57097054 80.18194271 192.8028954 77.75 195.4375 C76.8425 196.283125 75.935 197.12875 75 198 C74.09076349 199.09315615 73.19465373 200.19737392 72.3125 201.3125 C71.549375 202.199375 70.78625 203.08625 70 204 C69.34 204 68.68 204 68 204 C68 204.66 68 205.32 68 206 C67.01 206.33 66.02 206.66 65 207 C64.566875 207.66 64.13375 208.32 63.6875 209 C62 211 62 211 59 211.875 C56 212 56 212 53 210 C53 209.34 53 208.68 53 208 C52.34 208 51.68 208 51 208 C49.76407765 206.56365781 48.53444297 205.12095495 47.3515625 203.640625 C45.88520655 201.80707811 45.88520655 201.80707811 43.5625 199.5625 C40.52170185 196.52170185 37.7615838 193.2930226 35 190 C31.15924411 191.50886839 29.50889195 193.80080571 27 197 C25.39289047 198.37976233 23.74543432 199.71381291 22.0625 201 C18.439655 203.82901573 15.1493927 206.65973502 12 210 C11.20706795 210.68036064 11.20706795 210.68036064 10.39811707 211.37446594 C8.62968578 213.43054933 8.60794926 214.51057945 8.56762695 217.19604492 C8.53793571 218.45701241 8.53793571 218.45701241 8.50764465 219.74345398 C8.50125473 220.64666885 8.49486481 221.54988373 8.48828125 222.48046875 C8.47033005 223.40845779 8.45237885 224.33644684 8.43388367 225.29255676 C8.37968709 228.25749157 8.345855 231.22226455 8.3125 234.1875 C8.27933518 236.19728819 8.24484631 238.207055 8.20898438 240.21679688 C8.12395521 245.14441465 8.05718862 250.07198364 8 255 C6 254 6 254 5.39477539 252.39941406 C4.8589105 249.14246899 4.76459865 245.90199597 4.68359375 242.609375 C4.6524221 241.55245453 4.6524221 241.55245453 4.62062073 240.47418213 C4.55546163 238.23288319 4.49639752 235.99147136 4.4375 233.75 C4.39428274 232.22655103 4.35066743 230.70311329 4.30664062 229.1796875 C4.19981509 225.45324409 4.09845361 221.72667506 4 218 C3.33613281 218.61488281 2.67226562 219.22976563 1.98828125 219.86328125 C1.10527344 220.67152344 0.22226563 221.47976563 -0.6875 222.3125 C-1.55761719 223.11300781 -2.42773438 223.91351563 -3.32421875 224.73828125 C-5.80549333 226.83559217 -8.09924138 228.54238086 -11 230 C-18.18474672 228.90666898 -23.07765314 223.39781731 -27.3125 217.875 C-29.16435834 215.34835493 -30.65962581 212.83177645 -32 210 C-32.66 210 -33.32 210 -34 210 C-34.82421875 207.32421875 -34.82421875 207.32421875 -35 204 C-32.83203125 201.33203125 -32.83203125 201.33203125 -29.8125 198.8125 C-28.82894531 197.97332031 -27.84539062 197.13414062 -26.83203125 196.26953125 C-25.89746094 195.52058594 -24.96289062 194.77164063 -24 194 C-23.26136719 193.40574219 -22.52273437 192.81148437 -21.76171875 192.19921875 C-20 191 -20 191 -18 191 C-17.79375 190.4225 -17.5875 189.845 -17.375 189.25 C-15.49800315 186.17855061 -13.00679355 184.94557229 -10 183 C-8.29220027 181.37550757 -6.62449243 179.70779973 -5 178 C-3.33333333 176.33333333 -1.66666667 174.66666667 0 173 C0.74121094 172.23558594 1.48242188 171.47117187 2.24609375 170.68359375 C3.05175781 169.85988281 3.85742188 169.03617188 4.6875 168.1875 C5.45449219 167.39730469 6.22148437 166.60710937 7.01171875 165.79296875 C9 164 9 164 11 164 C10.27482787 159.43447972 7.58817154 157.14373717 4.49609375 153.90234375 C3 152 3 152 3 149 C2.11828125 148.60361328 2.11828125 148.60361328 1.21875 148.19921875 C-1.71897511 146.61139902 -3.8353995 144.45746458 -6.21875 142.14453125 C-7.91697246 140.81455935 -7.91697246 140.81455935 -9.921875 141.06640625 C-12.70213937 142.31543479 -14.52977547 144.03912026 -16.75 146.125 C-17.63300781 146.94355469 -18.51601562 147.76210938 -19.42578125 148.60546875 C-20.27527344 149.39566406 -21.12476563 150.18585938 -22 151 C-23.30702168 152.15207838 -24.61907479 153.29848936 -25.9375 154.4375 C-31.97548679 159.70232994 -38.00618804 165.00618804 -43.671875 170.671875 C-45.99351428 172.99351428 -48.39929933 174.99946103 -51 177 C-51.66 177.61875 -52.32 178.2375 -53 178.875 C-55 180 -55 180 -57.35546875 179.3828125 C-60.55086868 177.71195345 -62.11629827 175.84554951 -64.3125 173 C-65.00988281 172.113125 -65.70726562 171.22625 -66.42578125 170.3125 C-68 168 -68 168 -68 166 C-68.66 166 -69.32 166 -70 166 C-71.3327188 164.53309441 -72.58913869 162.99677499 -73.8125 161.4375 C-77.6515877 156.63708985 -81.5893529 151.94885549 -85.625 147.3125 C-86.181875 146.67086914 -86.73875 146.02923828 -87.3125 145.36816406 C-90.80851109 141.3469209 -94.33571342 137.35574291 -97.92578125 133.41796875 C-99 132 -99 132 -99 130 C-99.85851562 129.64421875 -99.85851562 129.64421875 -100.734375 129.28125 C-108.61149418 124.82660329 -114.50227341 115.04068528 -120 108 C-117.80577223 102.22123635 -117.80577223 102.22123635 -115 100 C-114.34 100 -113.68 100 -113 100 C-112.74347656 99.40832031 -112.48695313 98.81664062 -112.22265625 98.20703125 C-110.88443116 95.79138532 -109.53847487 94.46590095 -107.4375 92.6875 C-106.72851562 92.08550781 -106.01953125 91.48351562 -105.2890625 90.86328125 C-102.25202597 88.39115424 -99.14777278 86.01255812 -96.03515625 83.63671875 C-93.79343384 81.90036758 -93.79343384 81.90036758 -91.25 79.1875 C-88.89418782 76.89712705 -87.01188016 76.17128673 -84 75 C-83.505 73.515 -83.505 73.515 -83 72 C-81.22265625 70.28125 -81.22265625 70.28125 -79.0625 68.5 C-76.49024808 66.37123979 -74.87739237 64.81608855 -73 62 C-78.18757393 56.07144008 -78.18757393 56.07144008 -83.625 50.375 C-85.57795228 48.42204772 -87.50343728 46.46788799 -89.375 44.4375 C-89.89835937 43.87933594 -90.42171875 43.32117188 -90.9609375 42.74609375 C-92 41 -92 41 -91.87890625 39.01953125 C-90.80828798 36.55948839 -89.48243995 35.11804968 -87.5625 33.25 C-86.94503906 32.63640625 -86.32757813 32.0228125 -85.69140625 31.390625 C-84 30 -84 30 -82 30 C-82 29.34 -82 28.68 -82 28 C-80.33418064 26.41003231 -78.59058612 24.90083904 -76.8125 23.4375 C-75.36810547 22.22900391 -75.36810547 22.22900391 -73.89453125 20.99609375 C-71.08786364 19.06059153 -69.34567324 18.34863505 -66 18 C-62.59877591 21.87417537 -59.20434088 25.75124802 -55.875 29.6875 C-51.36233579 35.29535677 -51.36233579 35.29535677 -45.375 39 C-42.93186403 39.25668464 -42.93186403 39.25668464 -41.3125 37.5625 C-40.879375 37.046875 -40.44625 36.53125 -40 36 C-39.34 36 -38.68 36 -38 36 C-37.67 35.01 -37.34 34.02 -37 33 C-34.99609375 31.203125 -34.99609375 31.203125 -32.4375 29.25 C-27.80942083 25.64600643 -23.37071024 21.90976905 -19 18 C-18.16082031 17.25363281 -17.32164062 16.50726563 -16.45703125 15.73828125 C-8.8950752 8.98542817 -8.8950752 8.98542817 -1.9375 1.625 C-0.9784375 0.820625 -0.9784375 0.820625 0 0 Z " fill="#000000" transform="translate(252,183)"/>
<path d="M0 0 C33.66 0 67.32 0 102 0 C101.34 1.98 100.68 3.96 100 6 C89.00196909 39.84009511 93.90921919 71.14333987 106 104 C106.40992188 105.11503906 106.81984375 106.23007812 107.2421875 107.37890625 C109.84005522 113.96315721 113.12149304 120.14196865 116.48730469 126.35668945 C119.24164179 131.46611007 121.72321155 136.65474132 124.125 141.9375 C129.90343165 154.45672657 136.53793706 164.6767458 149.7734375 169.94921875 C152.30268061 170.88055983 154.83310207 171.79294993 157.375 172.6875 C158.65165236 173.1500105 159.92769942 173.61419532 161.203125 174.08007812 C163.67240045 174.97974657 166.14378719 175.87364515 168.61743164 176.76123047 C171.57091726 177.84286064 174.48434534 178.98379143 177.39453125 180.17578125 C181.63687152 181.8979237 185.90638377 183.26593052 190.3125 184.5 C191.79052756 184.92521515 193.26839068 185.35100229 194.74609375 185.77734375 C195.46522949 185.98343262 196.18436523 186.18952148 196.92529297 186.40185547 C199.9161435 187.26412704 202.89686836 188.15734676 205.875 189.0625 C206.80054688 189.34222656 207.72609375 189.62195313 208.6796875 189.91015625 C213.49301392 191.49005986 218.23902037 193.26873468 223 195 C223 205.23 223 215.46 223 226 C165.49283198 227.05196039 111.44500314 204.82782062 70 165 C69.40541992 164.43265137 68.81083984 163.86530273 68.19824219 163.28076172 C42.17471339 138.32421102 24.61731846 108.61246896 12 75 C11.64139893 74.06446289 11.28279785 73.12892578 10.91333008 72.16503906 C8.61748279 66.06214026 6.83996241 59.99083252 5.4375 53.625 C5.22843018 52.68019775 5.01936035 51.73539551 4.80395508 50.76196289 C3.42400476 44.34831199 2.19443906 37.92032861 1.1875 31.4375 C1.06366943 30.69773926 0.93983887 29.95797852 0.81225586 29.19580078 C-0.58356053 19.41584223 0 10.05035631 0 0 Z " fill="#EDEDED" transform="translate(34,258)"/>
<path d="M0 0 C27.72 0 55.44 0 84 0 C84 12.55228335 83.98247158 23.80964679 82 36 C81.83927002 36.99725098 81.83927002 36.99725098 81.67529297 38.01464844 C72.31008693 94.96927845 39.94944228 149.18766427 -6.96875 183.15234375 C-8.3112728 184.1032974 -9.65497923 185.05258276 -11 186 C-11.61230469 186.44102051 -12.22460938 186.88204102 -12.85546875 187.33642578 C-29.77935531 199.48326085 -48.36399822 208.21341583 -68 215 C-68.80147461 215.28214355 -69.60294922 215.56428711 -70.42871094 215.85498047 C-88.66836431 222.21599399 -107.69710145 226.25623971 -127.0625 226.0625 C-131.4865625 226.0315625 -131.4865625 226.0315625 -136 226 C-136 215.77 -136 205.54 -136 195 C-134.68 195 -133.36 195 -132 195 C-132.3920725 191.70659099 -132.81777178 189.31057207 -134.50927734 186.42773438 C-136.51579968 181.81398173 -136.5045455 177.76264899 -136.5390625 172.78125 C-136.55141937 171.80514771 -136.56377625 170.82904541 -136.57650757 169.82336426 C-136.59601935 167.76592983 -136.60729628 165.7084028 -136.61083984 163.65087891 C-136.62495883 160.50916196 -136.69237949 157.37138978 -136.76171875 154.23046875 C-136.77411439 152.22658011 -136.78333548 150.22266879 -136.7890625 148.21875 C-136.81578033 147.28421997 -136.84249817 146.34968994 -136.87002563 145.38684082 C-136.80357328 138.99074646 -136.80357328 138.99074646 -134.47625732 136.12133789 C-132.71628367 134.61139347 -130.91108758 133.30936547 -129 132 C-128.175 131.175 -127.35 130.35 -126.5 129.5 C-124.56943058 127.56943058 -122.65822157 125.85844148 -120.5625 124.125 C-116.95131057 121.08399838 -113.96084277 117.66580534 -111 114 C-109.68 114.66 -108.36 115.32 -107 116 C-107.43570312 116.37898438 -107.87140625 116.75796875 -108.3203125 117.1484375 C-116.8064287 126.50290047 -121.69167381 145.6258423 -122 158 C-122.05027344 159.12664062 -122.10054688 160.25328125 -122.15234375 161.4140625 C-122.4288243 172.27421867 -121.32277756 182.36830727 -116 192 C-116 192.99 -116 193.98 -116 195 C-115.34 195 -114.68 195 -114 195 C-113.505 195.99 -113.505 195.99 -113 197 C-102.73862849 197.39760903 -93.34681611 192.93668629 -84.265625 188.5625 C-81.76938919 187.3681288 -79.26959745 186.22476661 -76.73828125 185.109375 C-71.76250891 182.9099772 -66.84695651 180.59311845 -61.9375 178.25 C-61.03008057 177.81751953 -60.12266113 177.38503906 -59.18774414 176.93945312 C-51.07416883 173.05963584 -43.02578466 169.05764578 -35 165 C-34.29488281 164.72285156 -33.58976562 164.44570313 -32.86328125 164.16015625 C-29.95416219 162.34881797 -28.19151327 159.69569359 -26.25 156.9375 C-25.81461914 156.3197168 -25.37923828 155.70193359 -24.93066406 155.06542969 C-16.79562464 143.13918854 -11.93760304 129.82739083 -7.67333984 116.12768555 C-6.96310477 113.88341481 -6.21283307 111.655089 -5.45703125 109.42578125 C1.21779887 89.45929552 3.45535233 68.94624171 4 48 C4.04125 46.87722656 4.0825 45.75445312 4.125 44.59765625 C4.27398368 37.51161998 3.71439365 30.49330337 3.125 23.4375 C3.04660889 22.49148926 2.96821777 21.54547852 2.88745117 20.57080078 C2.25901601 13.59956894 1.15827558 6.94965349 0 0 Z " fill="#EDEDED" transform="translate(396,258)"/>
<path d="M0 0 C8.92636928 1.08198415 13.6229094 6.43994947 19 13 C20.20478618 14.35732349 21.41307606 15.71154583 22.625 17.0625 C46.8097575 44.85611887 51.83073707 83.44035623 50 119 C48.95572391 134.00639683 47.19769767 148.54502494 43 163 C42.49322337 165.12339409 41.99283126 167.24832599 41.5 169.375 C40.37443795 173.8772482 38.8967487 178.05587807 37.0859375 182.32421875 C35.8355105 185.40530685 34.80464339 188.53418706 33.75 191.6875 C30.92745965 199.5974763 27.35238623 206.83327448 23 214 C22.6380957 214.59796387 22.27619141 215.19592773 21.90332031 215.81201172 C16.22814093 224.86693201 10.04806079 229.26154683 0.15820312 233.12255859 C-3.87037711 234.76042255 -7.76792454 236.682019 -11.6875 238.5625 C-12.50114014 238.94736572 -13.31478027 239.33223145 -14.15307617 239.72875977 C-18.55659901 241.81275723 -22.91690896 243.95971968 -27.25 246.1875 C-32.8538523 249.02082028 -38.60679665 251.34804144 -44.45703125 253.61328125 C-46.5938826 254.44964534 -48.72051448 255.3139171 -50.82421875 256.23046875 C-56.5598636 258.72461887 -61.75055501 259.73406617 -68 260 C-68.495 258.515 -68.495 258.515 -69 257 C-69.66 257 -70.32 257 -71 257 C-79.9654957 238.00820567 -80.31894791 216.90027169 -73.28515625 197.109375 C-70.85943908 191.2404666 -67.95736963 185.61567942 -65 180 C-61 180 -61 180 -59.54296875 181.3203125 C-59.09566406 181.91585937 -58.64835937 182.51140625 -58.1875 183.125 C-55.52981499 186.47599414 -52.67015953 189.09175708 -49.3203125 191.73828125 C-48.88460938 192.15464844 -48.44890625 192.57101562 -48 193 C-48 193.66 -48 194.32 -48 195 C-47.34 195 -46.68 195 -46 195 C-46 195.66 -46 196.32 -46 197 C-41.85458683 197.97355319 -41.85458683 197.97355319 -37.75 197.25 C-35.70982835 195.94895128 -35.70982835 195.94895128 -34 193 C-33.01 193 -32.02 193 -31 193 C-31 192.34 -31 191.68 -31 191 C-29.37897032 189.28891311 -27.70496537 187.62746694 -26 186 C-25.278125 185.236875 -24.55625 184.47375 -23.8125 183.6875 C-22 182 -22 182 -20 182 C-19.09060688 178.75963938 -19.09060688 178.75963938 -19 175 C-20.82473645 172.06511598 -20.82473645 172.06511598 -23.5625 169.5625 C-27.79020882 165.2574913 -31.52686617 160.92733215 -35 156 C-33.26142784 152.23309364 -31.09741625 149.78767463 -28 147 C-27.34 147 -26.68 147 -26 147 C-26 146.34 -26 145.68 -26 145 C-20.52380952 140 -20.52380952 140 -18 140 C-17.67 139.01 -17.34 138.02 -17 137 C-15.546875 135.60546875 -15.546875 135.60546875 -13.75 134.1875 C-11.36598529 132.22419377 -9.557982 130.46731165 -7.5625 128.0625 C-2.347964 121.83049357 4.24950728 116.50032848 11 112 C10.1408848 104.22571166 3.34108456 97.66884169 -2.5625 92.9375 C-3.366875 92.298125 -4.17125 91.65875 -5 91 C-5 90.34 -5 89.68 -5 89 C-5.59167969 88.73445313 -6.18335938 88.46890625 -6.79296875 88.1953125 C-16.0775129 83.16686912 -23.94698407 71.4079887 -30 63 C-30 62.67 -30 62.34 -30 62 C-14.655 61.505 -14.655 61.505 1 61 C3.45844488 40.64680208 3.45844488 40.64680208 4.4375 20.1875 C4.47037109 18.79519165 4.47037109 18.79519165 4.50390625 17.37475586 C4.48605783 11.333624 3.26786285 8.05386314 0 3 C0 2.01 0 1.02 0 0 Z " fill="#FECF02" transform="translate(351,196)"/>
<path d="M0 0 C0.66 0.33 1.32 0.66 2 1 C2.13921875 1.5878125 2.2784375 2.175625 2.421875 2.78125 C4.08327836 9.1574467 10.0461922 14.0623579 15 18 C17.11138992 20.58896622 19.07302947 23.27178056 21 26 C16.00180129 31.21088802 10.93981863 35.98162653 5.17578125 40.33203125 C-1.32916305 45.31876593 -7.27194224 51.04132119 -13.30859375 56.57421875 C-16.27992446 59.25229766 -19.33137658 61.81685133 -22.44140625 64.33203125 C-24.348591 66.37305352 -25.1045204 68.37593291 -26 71 C-19.47757998 79.11062159 -12.86695791 87.13304209 -5.5 94.5 C1.04578374 101.04578374 6.97303147 108.11358126 12.78125 115.3125 C15.59651831 118.7225433 18.55952586 121.98132124 21.56640625 125.22265625 C23 127 23 127 23 129 C23.66 129 24.32 129 25 129 C26.94757281 131.4927428 28.75879311 134.03886496 30.546875 136.64648438 C32.14259495 138.88209874 33.53309035 140.72573803 35.921875 142.12890625 C39.32212075 141.91798875 41.22264683 140.05169303 43.875 138 C44.41092773 137.58572754 44.94685547 137.17145508 45.49902344 136.74462891 C48.95801451 134.00757838 51.84807367 131.15548804 54.56640625 127.703125 C57.96918585 123.66058574 61.95408115 119.68197295 67 118 C67.2784375 117.41476562 67.556875 116.82953125 67.84375 116.2265625 C69.45997419 113.1142389 71.75734988 111.5330326 74.5 109.375 C78.37767542 106.33050718 78.37767542 106.33050718 82 103 C84.9916342 102.91452474 86.58015844 103.62992414 88.8125 105.59765625 C90.04469872 106.84782453 91.25783568 108.11712597 92.44921875 109.40625 C93.9284043 111.10135232 93.9284043 111.10135232 96 112 C97.74839516 114.65756064 98.99127482 116.97382445 100 120 C100.99 120.33 101.98 120.66 103 121 C104.1875 123.0625 104.1875 123.0625 105 125 C103.88020758 126.11979242 102.75972433 127.23889873 101.63671875 128.35546875 C100.40002209 129.5980685 99.17553706 130.85283833 97.95703125 132.11328125 C97.24933594 132.83902344 96.54164063 133.56476563 95.8125 134.3125 C95.13832031 135.00988281 94.46414062 135.70726562 93.76953125 136.42578125 C92 138 92 138 90 138 C89.74476563 138.59167969 89.48953125 139.18335938 89.2265625 139.79296875 C87.87444191 142.22592458 86.50466543 143.53495057 84.375 145.3125 C83.65828125 145.91964844 82.9415625 146.52679688 82.203125 147.15234375 C81.47609375 147.76207031 80.7490625 148.37179687 80 149 C78.70515273 150.12133774 77.41343981 151.24630578 76.125 152.375 C75.47402344 152.94347656 74.82304687 153.51195312 74.15234375 154.09765625 C70.80326826 157.05772842 67.50156696 160.06999936 64.19921875 163.08203125 C62 165 62 165 59 167 C58.7497843 170.08365871 58.7497843 170.08365871 59 173 C59.66 173 60.32 173 61 173 C62.9453125 175.1171875 62.9453125 175.1171875 65.125 177.875 C65.84945312 178.77992188 66.57390625 179.68484375 67.3203125 180.6171875 C69 183 69 183 69 185 C69.556875 185.2475 70.11375 185.495 70.6875 185.75 C73 187 73 187 75.5 189.0625 C77.92916215 190.94510067 79.01224183 191.6860892 82 192 C83.98116608 191.02859426 83.98116608 191.02859426 85.8125 189.4375 C86.50085938 188.88707031 87.18921875 188.33664062 87.8984375 187.76953125 C90.50679867 185.57327175 93.10307843 183.36628568 95.65234375 181.1015625 C97 180 97 180 98 180 C98.02187378 181.43666016 98.02187378 181.43666016 98.04418945 182.90234375 C98.10258363 186.48848011 98.17980984 190.07401526 98.26245117 193.65966797 C98.29550862 195.20546643 98.32359903 196.75138004 98.34643555 198.29736328 C98.42609669 209.98821219 98.42609669 209.98821219 102 221 C102.39703125 221.87269531 102.7940625 222.74539063 103.203125 223.64453125 C103.90811182 225.10448529 104.61651524 226.56279388 105.328125 228.01953125 C106 230 106 230 105 233 C101.0127152 234.08287771 98.64528791 233.87362344 94.75 232.5625 C93.62078125 232.19253906 92.4915625 231.82257813 91.328125 231.44140625 C90.66619141 231.21984863 90.00425781 230.99829102 89.32226562 230.77001953 C85.48829295 229.49874642 81.63806015 228.27850006 77.79003906 227.05053711 C75.650645 226.36741061 73.51193318 225.68214251 71.37402344 224.99438477 C66.13526784 223.31002642 60.89016068 221.66786754 55.6171875 220.09375 C48.4814417 217.90536914 41.56192658 215.24633447 34.625 212.5 C33.40683594 212.02691406 32.18867188 211.55382812 30.93359375 211.06640625 C10.24219949 202.92072105 2.35239965 189.51537206 -6.734375 169.84765625 C-8.46982858 166.09863153 -10.28999501 162.40556557 -12.17431641 158.72949219 C-22.26408165 139.0167653 -30.08214143 117.19236343 -32 95 C-32.13148437 93.83210938 -32.26296875 92.66421875 -32.3984375 91.4609375 C-34.39214052 70.41629455 -30.12760952 48.1349203 -19 30 C-18.34 29.67 -17.68 29.34 -17 29 C-16.63815558 27.6741201 -16.3088525 26.33921582 -16 25 C-14.67487967 22.32766806 -13.10414726 19.80252395 -11.5625 17.25 C-11.15451172 16.55261719 -10.74652344 15.85523438 -10.32617188 15.13671875 C-9.27692374 13.3874013 -8.14456305 11.68849301 -7 10 C-6.34 10 -5.68 10 -5 10 C-4.731875 9.278125 -4.46375 8.55625 -4.1875 7.8125 C-3.01017502 5.02409874 -1.60854116 2.55904276 0 0 Z " fill="#FECF01" transform="translate(159,220)"/>
<path d="M0 0 C4.69685069 1.84519134 7.16477626 5.17937033 9.23828125 9.69921875 C9.59277344 10.68535156 9.94726562 11.67148438 10.3125 12.6875 C10.93705078 14.39873047 10.93705078 14.39873047 11.57421875 16.14453125 C11.79899902 16.76279785 12.0237793 17.38106445 12.25537109 18.01806641 C13.05212307 20.13873282 13.90419703 22.23063831 14.76953125 24.32421875 C18.64299991 33.75558377 21.61511516 42.84573473 23 53 C23.11746582 53.79857422 23.23493164 54.59714844 23.35595703 55.41992188 C26.87018667 80.29561399 22.69613161 106.79355624 13 130 C6.06117413 127.17307094 1.76939064 120.31818776 -2.71875 114.62109375 C-5.01716001 111.98028362 -7.03537398 109.87119142 -10 108 C-13.73445685 107.85567317 -15.06064953 109.04896475 -17.98046875 111.40625 C-19.05842277 112.42814773 -20.12703165 113.45996793 -21.1875 114.5 C-22.34461792 115.60071701 -23.50217399 116.70097358 -24.66015625 117.80078125 C-25.22750488 118.34557129 -25.79485352 118.89036133 -26.37939453 119.45166016 C-50.93521459 142.91249336 -50.93521459 142.91249336 -62 147 C-79 129.00804829 -79 129.00804829 -79 124 C-79.66 124 -80.32 124 -81 124 C-81 122.68 -81 121.36 -81 120 C-79.03105899 118.20814363 -77.15896836 116.7137182 -75 115.1875 C-73.79020485 114.29625172 -72.58186551 113.40302389 -71.375 112.5078125 C-70.78847656 112.07629883 -70.20195312 111.64478516 -69.59765625 111.20019531 C-66.98526623 109.23770917 -64.57335434 107.07562804 -62.140625 104.8984375 C-59.38078314 102.45084052 -56.56764455 100.0679593 -53.75 97.6875 C-53.20126221 97.22375977 -52.65252441 96.76001953 -52.0871582 96.28222656 C-46.41358107 91.49491356 -40.71043203 86.74325976 -35 82 C-35.58449971 78.07289258 -37.48152392 75.87443505 -40 72.875 C-40.80308594 71.91722656 -41.60617187 70.95945312 -42.43359375 69.97265625 C-46.22098042 65.58574414 -50.08174418 61.27025044 -54 57 C-53.01 56.505 -53.01 56.505 -52 56 C-51.24284578 53.93503395 -50.50510726 51.86124416 -49.85693359 49.75952148 C-49.27336983 47.88031315 -48.64394775 46.01487687 -47.97509766 44.16430664 C-45.03566173 35.66861989 -44.50572565 28.12700156 -44.75 19.1875 C-44.76804687 17.91068359 -44.78609375 16.63386719 -44.8046875 15.31835938 C-44.85123351 12.2114131 -44.91659654 9.1061375 -45 6 C-42.64655194 5.66076424 -40.2924516 5.32849466 -37.9375 5 C-37.28072266 4.90460938 -36.62394531 4.80921875 -35.94726562 4.7109375 C-31.59322836 4.11038064 -27.38917633 3.96309678 -23 4 C-22.55084229 4.96413818 -22.10168457 5.92827637 -21.63891602 6.92163086 C-19.97688521 10.4877615 -18.31200236 14.05255431 -16.64624023 17.61694336 C-15.92475364 19.1618251 -15.20404814 20.70707188 -14.48413086 22.25268555 C-13.45109367 24.47019622 -12.41528354 26.68639253 -11.37890625 28.90234375 C-10.89448814 29.94454323 -10.89448814 29.94454323 -10.40028381 31.00779724 C-9.04087031 34.22599101 -9.04087031 34.22599101 -7 37 C-6.823479 35.98574951 -6.64695801 34.97149902 -6.46508789 33.92651367 C-5.80952905 30.16341109 -5.15094901 26.4008425 -4.49145508 22.63842773 C-4.2064503 21.0099912 -3.92226493 19.38141102 -3.63891602 17.75268555 C-3.23148519 15.41156375 -2.8211099 13.07097439 -2.41015625 10.73046875 C-2.22103416 9.63813179 -2.22103416 9.63813179 -2.02809143 8.52372742 C-1.51061037 5.59046653 -0.94360287 2.83080862 0 0 Z " fill="#FED001" transform="translate(309,127)"/>
<path d="M0 0 C1.64666657 1.47425383 3.28086028 2.96263609 4.8984375 4.46875 C6.84585388 6.27577962 8.84812266 7.97739749 10.88671875 9.6796875 C52.68359803 46.36712863 77.85214048 104.72110161 81.4453125 159.5234375 C84.64327551 217.55388983 69.3142284 274.43789591 33.01171875 320.4296875 C32.32851563 321.30625 31.6453125 322.1828125 30.94140625 323.0859375 C1.09221603 360.53510604 -39.61483163 387.92183595 -85.98828125 400.4296875 C-87.18710937 400.76484375 -88.3859375 401.1 -89.62109375 401.4453125 C-106.61348272 406.05406524 -123.55750403 407.9412131 -141.14233398 407.82080078 C-143.92156151 407.80471193 -146.69933136 407.82076972 -149.47851562 407.83984375 C-165.85043663 407.85921198 -181.96645805 405.94368033 -197.92578125 402.2421875 C-198.82288818 402.03424561 -199.71999512 401.82630371 -200.64428711 401.61206055 C-235.77561047 393.0654465 -268.27514328 374.8908277 -294.76953125 350.4609375 C-296.75843924 348.64010625 -298.79511101 346.90881344 -300.86328125 345.1796875 C-334.56994679 315.59347606 -358.20513511 269.89923766 -366.98828125 226.4296875 C-367.18147949 225.56263184 -367.37467773 224.69557617 -367.57373047 223.80224609 C-374.10492068 193.92938179 -374.08490903 159.17648207 -366.98828125 129.4296875 C-366.60682655 127.62450729 -366.22928478 125.81849623 -365.85546875 124.01171875 C-357.76254728 86.15157309 -338.49424469 51.30182934 -312.98828125 22.4296875 C-312.53308105 21.91132324 -312.07788086 21.39295898 -311.60888672 20.85888672 C-276.08777241 -19.40678851 -223.24521628 -47.81158158 -169.44067383 -52.36303711 C-107.2275022 -56.09820313 -48.035915 -41.3171661 0 0 Z M-297.98828125 11.4296875 C-298.57851074 11.99413574 -299.16874023 12.55858398 -299.77685547 13.14013672 C-329.69101901 41.82104436 -351.67499859 78.96226797 -361.47802734 119.33984375 C-361.99564238 121.45983643 -362.54636437 123.56925695 -363.1015625 125.6796875 C-367.3685076 142.28607347 -367.98828125 158.0914632 -367.98828125 175.4296875 C-333.99828125 175.7596875 -300.00828125 176.0896875 -264.98828125 176.4296875 C-264.98828125 177.0896875 -264.98828125 177.7496875 -264.98828125 178.4296875 C-298.97828125 178.4296875 -332.96828125 178.4296875 -367.98828125 178.4296875 C-368.27640507 194.30138345 -368.27640507 194.30138345 -366.80078125 209.8671875 C-366.66551025 210.7216748 -366.53023926 211.57616211 -366.39086914 212.45654297 C-365.95193687 215.12022373 -365.47723017 217.77476346 -364.98828125 220.4296875 C-364.83262695 221.2964209 -364.67697266 222.1631543 -364.51660156 223.05615234 C-360.60927825 244.10188479 -353.29245885 264.8310606 -342.98583984 283.61132812 C-341.94175373 285.51449832 -340.92800929 287.43218813 -339.9140625 289.3515625 C-323.97743128 319.0500031 -300.48128756 345.03887968 -272.98828125 364.4296875 C-272.38661133 364.86539062 -271.78494141 365.30109375 -271.16503906 365.75 C-245.24444925 384.47601059 -214.37592384 396.70332169 -182.98828125 402.4296875 C-181.86808594 402.6359375 -180.74789062 402.8421875 -179.59375 403.0546875 C-168.05223377 404.88707817 -156.65759076 404.56778584 -144.98828125 404.4296875 C-144.98828125 394.1996875 -144.98828125 383.9696875 -144.98828125 373.4296875 C-144.32828125 373.7596875 -143.66828125 374.0896875 -142.98828125 374.4296875 C-142.65828125 384.3296875 -142.32828125 394.2296875 -141.98828125 404.4296875 C-88.04608418 405.65564652 -34.11334873 383.31572522 4.984375 346.36328125 C5.99404805 345.38599331 7.0031251 344.40808938 8.01171875 343.4296875 C8.60194824 342.86523926 9.19217773 342.30079102 9.80029297 341.71923828 C35.83440341 316.75842278 53.38422428 287.0486338 66.01171875 253.4296875 C66.36959473 252.50140137 66.7274707 251.57311523 67.09619141 250.61669922 C69.48117191 244.30562222 71.21373158 238.0203649 72.63671875 231.4296875 C72.84039062 230.5221875 73.0440625 229.6146875 73.25390625 228.6796875 C77.07045453 211.45629012 78.01171875 196.40667247 78.01171875 178.4296875 C49.96171875 178.4296875 21.91171875 178.4296875 -6.98828125 178.4296875 C-6.98828125 177.4396875 -6.98828125 176.4496875 -6.98828125 175.4296875 C21.06171875 175.4296875 49.11171875 175.4296875 78.01171875 175.4296875 C78.01171875 112.69387617 53.53528518 57.27584096 9.82421875 12.8671875 C1.46541281 4.51584256 -7.33814876 -2.77286957 -16.98828125 -9.5703125 C-17.60058594 -10.01133301 -18.21289062 -10.45235352 -18.84375 -10.90673828 C-35.76763656 -23.05357335 -54.35227947 -31.78372833 -73.98828125 -38.5703125 C-74.78975586 -38.85245605 -75.59123047 -39.13459961 -76.41699219 -39.42529297 C-98.15196102 -47.00528518 -118.95317647 -49.5703125 -141.98828125 -49.5703125 C-142.31828125 -36.7003125 -142.64828125 -23.8303125 -142.98828125 -10.5703125 C-143.64828125 -10.5703125 -144.30828125 -10.5703125 -144.98828125 -10.5703125 C-144.98828125 -23.4403125 -144.98828125 -36.3103125 -144.98828125 -49.5703125 C-202.26251062 -50.61801182 -256.8216663 -28.50462467 -297.98828125 11.4296875 Z " fill="#121212" transform="translate(401.98828125,79.5703125)"/>
<path d="M0 0 C0.33 0 0.66 0 1 0 C0.6500128 8.13720236 -0.60142786 16.04937966 -2 24.0625 C-2.17821289 25.08609619 -2.35642578 26.10969238 -2.54003906 27.16430664 C-3.86183255 34.58549765 -3.86183255 34.58549765 -5 38 C-3.68443115 38.4031543 -3.68443115 38.4031543 -2.34228516 38.81445312 C0.8505175 39.94697684 3.54554336 41.28316658 6.4765625 42.96875 C7.476875 43.53980469 8.4771875 44.11085937 9.5078125 44.69921875 C10.53648437 45.29347656 11.56515625 45.88773438 12.625 46.5 C14.67923899 47.67786589 16.73390922 48.8549801 18.7890625 50.03125 C20.14572021 50.81338867 20.14572021 50.81338867 21.52978516 51.61132812 C23.66003638 52.80888386 25.80298005 53.93128338 28 55 C28 55.66 28 56.32 28 57 C23.85651953 57.57568542 19.71223985 58.14511636 15.56713867 58.70898438 C14.15968137 58.90131375 12.75244868 59.0952948 11.34545898 59.29101562 C9.31291852 59.57345301 7.2796211 59.84976911 5.24609375 60.125 C3.41582642 60.37636719 3.41582642 60.37636719 1.54858398 60.6328125 C-1.99540596 60.99952464 -5.43989875 61.06389413 -9 61 C-9.09796875 61.74378906 -9.1959375 62.48757812 -9.296875 63.25390625 C-10.39818138 71.2953416 -11.66258218 79.30722313 -13 87.3125 C-13.1659668 88.34511963 -13.33193359 89.37773926 -13.50292969 90.44165039 C-13.74897949 91.88785767 -13.74897949 91.88785767 -14 93.36328125 C-14.144375 94.23251221 -14.28875 95.10174316 -14.4375 95.99731445 C-14.7159375 96.9886438 -14.7159375 96.9886438 -15 98 C-15.99 98.495 -15.99 98.495 -17 99 C-18.82209405 95.28649727 -20.63656605 91.56937473 -22.44433594 87.84887695 C-23.05916048 86.58616412 -23.67598653 85.32442366 -24.29492188 84.0637207 C-25.18899994 82.24167612 -26.07559786 80.41614737 -26.9609375 78.58984375 C-27.49509277 77.49534912 -28.02924805 76.40085449 -28.57958984 75.27319336 C-30 72 -30 72 -32 65 C-44.87 66.65 -57.74 68.3 -71 70 C-64.34569248 62.23664122 -64.34569248 62.23664122 -61.4375 59.875 C-55.26224375 54.6386716 -49.68129561 48.75924022 -44 43 C-48.65865376 31.03163537 -54.40556249 19.54999588 -60 8 C-56.37668121 8 -54.79747621 9.00210788 -51.6328125 10.73828125 C-50.05693359 11.59776367 -50.05693359 11.59776367 -48.44921875 12.47460938 C-47.35222656 13.08111328 -46.25523437 13.68761719 -45.125 14.3125 C-44.03574219 14.90740234 -42.94648438 15.50230469 -41.82421875 16.11523438 C-33.40147403 20.72867166 -33.40147403 20.72867166 -30.39794922 22.75854492 C-28.13566849 24.19001272 -28.13566849 24.19001272 -25.88574219 23.86962891 C-23.72934157 22.87518315 -22.47047046 21.79872796 -20.828125 20.0859375 C-19.9604248 19.19600098 -19.9604248 19.19600098 -19.07519531 18.28808594 C-18.47288086 17.65676758 -17.87056641 17.02544922 -17.25 16.375 C-16.00190883 15.09449088 -14.75192187 13.81582669 -13.5 12.5390625 C-12.89929688 11.92579102 -12.29859375 11.31251953 -11.6796875 10.68066406 C-9.05644907 8.05590049 -6.28812895 5.6256392 -3.453125 3.234375 C-1.86542205 1.91950675 -1.86542205 1.91950675 0 0 Z " fill="#000000" transform="translate(318,66)"/>
<path d="M0 0 C1.9453125 2.0546875 1.9453125 2.0546875 4.125 4.875 C7.98602088 9.79653155 12.07167424 14.33923614 16.4453125 18.80859375 C18 21 18 21 17.98828125 23.01953125 C16.71128373 25.5785737 15.10706122 27.25350261 13.0625 29.25 C12.35222656 29.95640625 11.64195312 30.6628125 10.91015625 31.390625 C9 33 9 33 7 33 C6.67 33.99 6.34 34.98 6 36 C4.07421875 37.859375 4.07421875 37.859375 1.6875 39.75 C0.90761719 40.38421875 0.12773437 41.0184375 -0.67578125 41.671875 C-3 43 -3 43 -4.92944336 42.78979492 C-7.43912684 41.83249908 -8.63163676 40.65741998 -10.453125 38.69140625 C-11.071875 38.02689453 -11.690625 37.36238281 -12.328125 36.67773438 C-12.96234375 35.97970703 -13.5965625 35.28167969 -14.25 34.5625 C-14.8996875 33.86833984 -15.549375 33.17417969 -16.21875 32.45898438 C-21 27.27092634 -21 27.27092634 -21 25 C-21.99 24.67 -22.98 24.34 -24 24 C-26 21 -26 21 -26 18 C-24.02866014 16.62464661 -22.02318078 15.29788956 -20 14 C-19.21625 13.21625 -18.4325 12.4325 -17.625 11.625 C-14.83228081 8.83228081 -11.8807023 6.61801912 -8.671875 4.33203125 C-6.8678526 3.08643118 -6.8678526 3.08643118 -6 1 C-3 0 -3 0 0 0 Z " fill="#FED001" transform="translate(297,281)"/>
<path d="M0 0 C1.27609323 0.90933009 2.54565553 1.82782853 3.8125 2.75 C4.87404297 3.51570313 4.87404297 3.51570313 5.95703125 4.296875 C10.00633544 7.67258557 11.37227015 10.51683194 12.140625 15.71484375 C12.32044922 16.86178711 12.50027344 18.00873047 12.68554688 19.19042969 C12.87181641 20.42696289 13.05808594 21.66349609 13.25 22.9375 C16.3554207 42.17466222 20.76566908 61.06247663 26.49243164 79.6965332 C27.97324565 84.6178931 29.44254083 89.81432928 29 95 C28.01 95.99 28.01 95.99 27 97 C24.55859375 96.9453125 24.55859375 96.9453125 22 96 C15.26334606 86.9626215 13.36096663 73.78845019 10.75878906 63.06591797 C10.0188066 60.07598883 9.23265526 57.10247398 8.4296875 54.12890625 C5.55327176 43.3463846 3.27561638 32.60372423 1.625 21.5625 C1.45726074 20.44327148 1.28952148 19.32404297 1.11669922 18.17089844 C0.25875073 12.04957018 -0.16895519 6.17986109 0 0 Z " fill="#FFAE01" transform="translate(145,307)"/>
<path d="M0 0 C3.58887581 1.25500565 5.23902538 3.29150139 7.4375 6.3125 C10.07931293 9.83867248 12.83872568 12.92191711 16 16 C17.70932834 17.96831748 19.35396952 19.97773398 21 22 C19.5611898 25.387199 17.77880501 27.3594104 15 29.75 C13.948125 30.67039062 13.948125 30.67039062 12.875 31.609375 C11 33 11 33 9 33 C8.67 33.99 8.34 34.98 8 36 C5.1875 38.75 5.1875 38.75 2 41 C-3.33578153 40.86604733 -6.78238741 35.57218855 -10.21875 31.9921875 C-18.62010919 23.00963839 -18.62010919 23.00963839 -20 20 C-19.06353847 15.69626189 -17.0051603 13.86730554 -13.5 11.375 C-10.60357148 9.29671849 -9.00743526 8.01115289 -7 5 C-6.01 5 -5.02 5 -4 5 C-3.71125 4.360625 -3.4225 3.72125 -3.125 3.0625 C-2 1 -2 1 0 0 Z " fill="#FFAF01" transform="translate(200,274)"/>
<path d="M0 0 C3.50938642 1.42669112 4.96800787 2.99553006 6.953125 6.19140625 C7.48615234 7.04516846 8.01917969 7.89893066 8.56835938 8.77856445 C9.12330078 9.69726318 9.67824219 10.61596191 10.25 11.5625 C10.82556641 12.50762451 11.40113281 13.45274902 11.99414062 14.42651367 C19.96702028 27.72023907 25.90809595 41.04393209 30 56 C30.35320312 57.26714844 30.70640625 58.53429687 31.0703125 59.83984375 C33.17020781 68.4481683 33.20564638 77.30971858 33.25 86.125 C33.270625 87.15753906 33.29125 88.19007813 33.3125 89.25390625 C33.34469981 95.57311992 32.62559918 100.23750075 30 106 C28.35 106 26.7 106 25 106 C23.55111322 98.95250216 22.83911142 92.04719115 22.5625 84.875 C21.88896409 69.30006264 18.79322443 54.79217108 14 40 C13.65598145 38.92314941 13.31196289 37.84629883 12.95751953 36.73681641 C11.79604741 33.11224807 10.61953921 29.4929102 9.4375 25.875 C9.06157715 24.71234619 8.6856543 23.54969238 8.29833984 22.35180664 C6.34261897 16.45765968 4.22183295 11.29859944 1 6 C0.25 2.5625 0.25 2.5625 0 0 Z " fill="#FFAF01" transform="translate(364,210)"/>
<path d="M0 0 C0.33 0 0.66 0 1 0 C2.12498891 33.66633465 -10.55793241 63.74227329 -33.3828125 88.3046875 C-33.91648438 88.86414063 -34.45015625 89.42359375 -35 90 C-40.18010355 87.49038462 -40.18010355 87.49038462 -42 85 C-41.67046558 80.87166597 -39.09601488 78.55383659 -36.4375 75.5625 C-24.92600847 62.18958459 -18.24037454 46.93062695 -12.68652344 30.39135742 C-10.50880952 24.06139661 -7.78211886 18.52185426 -4.44140625 12.71484375 C-2.55783358 9.16719333 -1.74147677 5.92982689 -1 2 C-0.67 1.34 -0.34 0.68 0 0 Z " fill="#FFAE01" transform="translate(234,124)"/>
<path d="M0 0 C4.55555556 0.55555556 4.55555556 0.55555556 6 2 C6.65824074 9.95284305 7.05793025 17.45819747 2 24 C-4.01662366 30.63371327 -13.0918891 32.77438392 -21.4140625 35.40234375 C-31.30095062 38.14805406 -31.30095062 38.14805406 -38.8046875 44.609375 C-42.27174827 51.54349654 -45.44799732 58.62881643 -48.04296875 65.9375 C-48.35878906 66.618125 -48.67460937 67.29875 -49 68 C-51.5625 68.875 -51.5625 68.875 -54 69 C-55 68 -55 68 -55.5 64.4375 C-55.34845397 53.89663148 -48.86729378 42.34643055 -41.625 35.04296875 C-35.45144554 30.238253 -28.12408496 27.91138254 -20.71875 25.703125 C-20.00533447 25.48954346 -19.29191895 25.27596191 -18.55688477 25.0559082 C-17.18265235 24.65492552 -15.80295377 24.27205624 -14.41772461 23.91088867 C-9.72105038 22.59157134 -7.18109922 20.65500599 -4 17 C-3.505 16.505 -3.505 16.505 -3 16 C-2.71406667 12.4099482 -2.55089829 8.81985155 -2.37890625 5.22265625 C-2 2 -2 2 0 0 Z " fill="#FFFCF4" transform="translate(371,360)"/>
<path d="M0 0 C0.33 0.66 0.66 1.32 1 2 C0.1351574 4.49417065 -0.78746087 6.88526286 -1.8125 9.3125 C-2.08642578 9.97701172 -2.36035156 10.64152344 -2.64257812 11.32617188 C-3.76113082 14.03805862 -4.88034995 16.73863678 -6.1015625 19.40625 C-7.43400803 23.2529623 -7.96749756 27.16917435 -8.5625 31.1875 C-8.75646362 32.4710437 -8.75646362 32.4710437 -8.9543457 33.78051758 C-9.31241674 36.1857561 -9.65926071 38.59225235 -10 41 C-10.13664063 41.9590625 -10.27328125 42.918125 -10.4140625 43.90625 C-11.61837709 53.95367462 -11.99540742 64.29722929 -9 74 C-8.875 77.4375 -8.875 77.4375 -9 80 C-11.25 80.75 -11.25 80.75 -14 81 C-18.63191952 77.73040975 -20.32346364 72.64464215 -21.6875 67.3125 C-22.61435608 57.48782554 -21.68924346 48.04577511 -20.08349609 38.34448242 C-19.74905508 36.30674263 -19.43827379 34.26628851 -19.12890625 32.22460938 C-17.34588046 20.90074562 -15.12347417 12.95557537 -6.25 5.4375 C-5.64800781 4.90576172 -5.04601562 4.37402344 -4.42578125 3.82617188 C-2.96248222 2.53707511 -1.48291718 1.26647984 0 0 Z " fill="#FFFEFD" transform="translate(224,338)"/>
<path d="M0 0 C5.80148878 4.01005519 9.70762559 7.12287676 12 14 C12.99 14.33 13.98 14.66 15 15 C16.1875 17.0625 16.1875 17.0625 17 19 C15.88020758 20.11979242 14.75972433 21.23889873 13.63671875 22.35546875 C12.40002209 23.5980685 11.17553706 24.85283833 9.95703125 26.11328125 C8.89548828 27.20189453 8.89548828 27.20189453 7.8125 28.3125 C7.13832031 29.00988281 6.46414062 29.70726562 5.76953125 30.42578125 C4 32 4 32 2 32 C1.74476563 32.59167969 1.48953125 33.18335938 1.2265625 33.79296875 C-0.12555809 36.22592458 -1.49533457 37.53495057 -3.625 39.3125 C-4.33011719 39.90804687 -5.03523437 40.50359375 -5.76171875 41.1171875 C-6.50035156 41.73851562 -7.23898438 42.35984375 -8 43 C-10.14839637 44.9006467 -12.29130177 46.80732349 -14.43359375 48.71484375 C-16 50 -16 50 -17 50 C-17.31261483 45.72759732 -16.67735852 42.9611037 -14.8515625 39.11328125 C-13.78922035 36.47691839 -13.19660909 33.83237213 -12.5625 31.0625 C-11.51565857 26.66794693 -10.19796449 23.01340646 -8.0390625 19.06640625 C-6.34268152 15.6927764 -5.20089996 12.12355562 -3.94921875 8.56640625 C-2.83884405 5.56428206 -1.52028557 2.8125283 0 0 Z " fill="#FFFEFE" transform="translate(247,326)"/>
<path d="M0 0 C3.01474051 3.01474051 1.37243574 12.57482422 1.39379883 16.63769531 C1.26685328 28.45899411 -1.08629824 38.62804121 -7 49 C-9.8125 50.0625 -9.8125 50.0625 -13 51 C-16.82808453 53.81247027 -19.6046497 56.64609995 -22.56640625 60.375 C-25.39253649 63.57846098 -28.73278523 66.25975536 -32 69 C-32 64.65374174 -29.42065226 62.24832178 -26.875 58.9375 C-20.41306479 50.30793045 -20.41306479 50.30793045 -15 41 C-14.5153125 40.07316406 -14.030625 39.14632812 -13.53125 38.19140625 C-8.31746889 26.35901967 -9.53568586 13.6664897 -10 1 C-6.50615721 -0.16461426 -3.66344611 -0.13568319 0 0 Z " fill="#FFAE01" transform="translate(264,134)"/>
<path d="M0 0 C2 1.375 2 1.375 4 3 C4 3.66 4 4.32 4 5 C4.66 5 5.32 5 6 5 C5.43373901 8.66782686 4.45167538 11.23189488 2.5 14.375 C0.16500827 18.38742831 -0.6174577 21.40949239 -1 26 C-1.33 26.33 -1.66 26.66 -2 27 C-2.27977136 30.03255202 -2.23188148 33.08108937 -2.25 36.125 C-2.270625 36.96804688 -2.29125 37.81109375 -2.3125 38.6796875 C-2.34739078 44.29710327 -1.41208402 47.95070413 1 53 C0.6875 55.9375 0.6875 55.9375 0 58 C-2.475 58.495 -2.475 58.495 -5 59 C-5.66 57.68 -6.32 56.36 -7 55 C-7.66 55 -8.32 55 -9 55 C-14.57115943 47.42322318 -14.04512052 36.04635114 -13 27 C-10.88210269 16.92276912 -6.58321311 7.92712348 0 0 Z " fill="#FFFEFC" transform="translate(299,386)"/>
<path d="M0 0 C5.40839975 3.16589254 9.04174791 7.17514834 13 12 C9.6052667 16.15300707 6.28394908 19.73067044 2 23 C1.01 24.0209375 1.01 24.0209375 0 25.0625 C-2 27 -2 27 -4.4375 28.4375 C-7.45564766 30.27783394 -9.52785742 32.47036574 -12 35 C-14.63769119 37.36703258 -17.31438773 39.68757455 -20 42 C-21.36218403 37.9134479 -20.01651873 35.14400806 -18.625 31.25 C-18.35751953 30.4986377 -18.09003906 29.74727539 -17.81445312 28.97314453 C-13.8094785 18.26096239 -7.89983862 8.30495855 0 0 Z " fill="#FFAF01" transform="translate(167,233)"/>
<path d="M0 0 C10.56 0 21.12 0 32 0 C29.69932432 13.80405405 29.69932432 13.80405405 27.375 20.25 C27.14554687 20.91128906 26.91609375 21.57257813 26.6796875 22.25390625 C26.12836899 23.83894698 25.5655286 25.41997354 25 27 C14.74236994 22.39635775 6.4052305 9.89723507 0 1 C0 0.67 0 0.34 0 0 Z " fill="#EEEEEE" transform="translate(321,258)"/>
<path d="M0 0 C1.66880615 3.33761231 0.99628371 7.06759523 0.87890625 10.7265625 C0.85529526 11.58937836 0.83168427 12.45219421 0.80735779 13.34115601 C0.73065703 16.10260206 0.64666038 18.86377218 0.5625 21.625 C0.50928573 23.49477807 0.45654529 25.36456969 0.40429688 27.234375 C0.27503321 31.82309209 0.13922496 36.41157477 0 41 C-4.73369609 36.9993357 -9.17061098 32.93064177 -13.375 28.375 C-13.90738281 27.81554687 -14.43976563 27.25609375 -14.98828125 26.6796875 C-19.59081071 21.71410864 -19.59081071 21.71410864 -20 18 C-17.54516536 15.09883179 -14.73853817 12.77492786 -11.8125 10.375 C-8.88119654 8.12277665 -8.88119654 8.12277665 -7 5 C-6.01 5 -5.02 5 -4 5 C-3.71125 4.360625 -3.4225 3.72125 -3.125 3.0625 C-2 1 -2 1 0 0 Z " fill="#FFCF01" transform="translate(200,274)"/>
<path d="M0 0 C1.67542976 0.28604898 3.34385343 0.61781233 5 1 C6.63869292 5.85924547 5.10146693 9.43551251 3.1875 13.9375 C2.87490234 14.68314209 2.56230469 15.42878418 2.24023438 16.19702148 C-2.34483776 26.61874854 -9.5790562 37.29675027 -18 45 C-18.66 45 -19.32 45 -20 45 C-20.33 45.66 -20.66 46.32 -21 47 C-22.03295436 45.90716423 -23.05107835 44.80029421 -24.0625 43.6875 C-24.63097656 43.07261719 -25.19945312 42.45773437 -25.78515625 41.82421875 C-26.18605469 41.22222656 -26.58695312 40.62023437 -27 40 C-25.85499159 36.56497477 -25.06608986 36.07591072 -22.1875 34.0625 C-11.65223026 26.65025581 -7.2746563 15.75556879 -2.41796875 4.24609375 C-1 1 -1 1 0 0 Z " fill="#FFFDF6" transform="translate(352,323)"/>
<path d="M0 0 C0.66 0 1.32 0 2 0 C3.8493446 7.0805584 4.35019032 13.63232798 4.3125 20.9375 C4.30903564 22.03271973 4.30557129 23.12793945 4.30200195 24.25634766 C4.12586078 37.57495559 1.9543112 50.26767882 -2 63 C-3.66666667 61.33333333 -5.33333333 59.66666667 -7 58 C-7.639375 57.566875 -8.27875 57.13375 -8.9375 56.6875 C-10 55 -10 55 -9.4375 51.5625 C-8.41719278 48.11109039 -7.22478559 44.71826707 -6.0625 41.3125 C-1.45928159 27.48566859 -0.35300714 14.4849948 0 0 Z " fill="#FFAF01" transform="translate(361,236)"/>
<path d="M0 0 C6.46164769 6.01400342 10.31866123 14.27400698 13.8125 22.25 C14.1022168 22.91088623 14.39193359 23.57177246 14.69042969 24.25268555 C16.46690063 28.43178637 17.80850555 32.61055508 19 37 C19.52966455 38.64973501 20.06951033 40.29628052 20.625 41.9375 C21.01558594 43.09572266 21.01558594 43.09572266 21.4140625 44.27734375 C21.60742188 44.84582031 21.80078125 45.41429687 22 46 C21.0479279 47.00596297 20.08812654 48.00461563 19.125 49 C18.59132813 49.556875 18.05765625 50.11375 17.5078125 50.6875 C16 52 16 52 14 52 C11.15077925 43.53407769 8.71251523 35.1480876 7 26.375 C5.59323675 19.17409413 3.6267765 12.51658577 0.953125 5.6875 C0 3 0 3 0 0 Z " fill="#FFAF01" transform="translate(239,77)"/>
<path d="M0 0 C3.08693704 1.35852131 5.08641734 2.84510953 7.3125 5.375 C7.84488281 5.96023438 8.37726563 6.54546875 8.92578125 7.1484375 C10 9 10 9 9.9140625 10.9609375 C8.72500073 13.61345992 7.13872093 15.22258715 5.0625 17.25 C4.35222656 17.95640625 3.64195312 18.6628125 2.91015625 19.390625 C1 21 1 21 -1 21 C-1.33 21.99 -1.66 22.98 -2 24 C-3.92578125 25.859375 -3.92578125 25.859375 -6.3125 27.75 C-7.09238281 28.38421875 -7.87226563 29.0184375 -8.67578125 29.671875 C-11 31 -11 31 -13.16796875 30.890625 C-15 30 -15 30 -17 27 C-16.40960938 26.443125 -15.81921875 25.88625 -15.2109375 25.3125 C-8.41676417 18.20622683 -4.18678699 8.78765182 0 0 Z " fill="#EEEEEE" transform="translate(305,293)"/>
<path d="M0 0 C34.32 0 68.64 0 104 0 C103.67 0.99 103.34 1.98 103 3 C69.01 3 35.02 3 0 3 C0 2.01 0 1.02 0 0 Z " fill="#000000" transform="translate(34,255)"/>
<path d="M0 0 C1.65 0 3.3 0 5 0 C5.65628849 1.20268681 6.29947505 2.41252554 6.9375 3.625 C7.29714844 4.29789062 7.65679687 4.97078125 8.02734375 5.6640625 C11.41733926 13.8054975 11.33760127 25.36195138 10 34 C8.21227416 37.53075853 6.25822944 39.77243498 3 42 C2.01 41.34 1.02 40.68 0 40 C0.16242188 39.22785156 0.32484375 38.45570313 0.4921875 37.66015625 C1.15265133 32.89973615 1.14498379 28.23694006 1.125 23.4375 C1.12886719 22.50486328 1.13273437 21.57222656 1.13671875 20.61132812 C1.13478516 19.25491211 1.13478516 19.25491211 1.1328125 17.87109375 C1.13168457 17.05568115 1.13055664 16.24026855 1.12939453 15.40014648 C0.99205798 12.85268299 0.53118284 10.49205249 0 8 C-0.11678799 5.32321927 -0.0454506 2.68158543 0 0 Z " fill="#FFB001" transform="translate(373,279)"/>
<path d="M0 0 C1.9375 0.8125 1.9375 0.8125 4 2 C4.33 2.99 4.66 3.98 5 5 C5.99 5.33 6.98 5.66 8 6 C9.1875 8.0625 9.1875 8.0625 10 10 C8.88020758 11.11979242 7.75972433 12.23889873 6.63671875 13.35546875 C5.40002209 14.5980685 4.17553706 15.85283833 2.95703125 17.11328125 C1.89548828 18.20189453 1.89548828 18.20189453 0.8125 19.3125 C0.13832031 20.00988281 -0.53585938 20.70726562 -1.23046875 21.42578125 C-3 23 -3 23 -5 23 C-5.2475 23.5775 -5.495 24.155 -5.75 24.75 C-7.18299988 27.32939979 -8.78424676 29.06121592 -11 31 C-11.66 31 -12.32 31 -13 31 C-12.80664062 30.43152344 -12.61328125 29.86304688 -12.4140625 29.27734375 C-10.81863577 24.54635062 -9.33099414 19.81205575 -8 15 C-7.34 15 -6.68 15 -6 15 C-5.90203125 14.22914063 -5.8040625 13.45828125 -5.703125 12.6640625 C-5.55359375 11.66117187 -5.4040625 10.65828125 -5.25 9.625 C-5.04117188 8.12839844 -5.04117188 8.12839844 -4.828125 6.6015625 C-4 4 -4 4 -1.921875 2.6484375 C-0.97054687 2.32746094 -0.97054687 2.32746094 0 2 C0 1.34 0 0.68 0 0 Z " fill="#FFD108" transform="translate(254,335)"/>
<path d="M0 0 C3.40667322 0.44824648 5.07914607 1.05276405 8 3 C10.94041551 11.82124654 8.61003925 22.0872827 7 31 C4.36 30.67 1.72 30.34 -1 30 C-0.96447021 29.3702124 -0.92894043 28.7404248 -0.89233398 28.09155273 C-0.73363809 25.20720847 -0.58549108 22.32241253 -0.4375 19.4375 C-0.38142578 18.44685547 -0.32535156 17.45621094 -0.26757812 16.43554688 C-0.00145902 11.0954235 -0.14009398 6.26782763 -1 1 C-0.67 0.67 -0.34 0.34 0 0 Z " fill="#FFFCF2" transform="translate(295,205)"/>
<path d="M0 0 C2.75 0.5625 2.75 0.5625 4.12109375 2.2421875 C5.40136342 4.31645231 6.58382159 6.42246032 7.75 8.5625 C8.74 10.0475 8.74 10.0475 9.75 11.5625 C11.22201924 22.29125559 11.22201924 22.29125559 8.4765625 26.52734375 C6.34309688 28.32257701 4.59883153 29.5625 1.75 29.5625 C1.64042969 28.48871094 1.53085938 27.41492188 1.41796875 26.30859375 C1.25838413 24.8723322 1.09819558 23.43613767 0.9375 22 C0.86724609 21.29552734 0.79699219 20.59105469 0.72460938 19.86523438 C0.15361625 14.90901408 -1.17812921 11.09366458 -3.25 6.5625 C-3.5 3.6875 -3.5 3.6875 -3.25 1.5625 C-2.25 0.5625 -2.25 0.5625 0 0 Z " fill="#FFFEFB" transform="translate(250.25,241.4375)"/>
<path d="M0 0 C5.32004273 2.25078731 9.40683703 5.56322408 12.125 10.625 C13.70299297 14.02761373 13.70299297 14.02761373 16.25 15.625 C16.8275 16.07875 17.405 16.5325 18 17 C18.25 19.6875 18.25 19.6875 18 22 C15.12013426 22.83953683 13.50316553 23.18471691 10.6484375 22.13671875 C5.16302523 18.64000406 2.85581757 15.85911352 1.41796875 9.48046875 C1.21107422 8.25263672 1.21107422 8.25263672 1 7 C0.87238281 6.27425781 0.74476563 5.54851562 0.61328125 4.80078125 C0.36432907 3.20684065 0.17432809 1.60381843 0 0 Z " fill="#FEFDF8" transform="translate(228,405)"/>
<path d="M0 0 C3.78080393 1.26026798 4.77295425 2.93546534 7.1875 6.0625 C7.90292969 6.98160156 8.61835938 7.90070313 9.35546875 8.84765625 C10.16951172 9.91306641 10.16951172 9.91306641 11 11 C9.55661511 14.415759 7.75105832 16.36026263 4.9375 18.75 C3.86822266 19.67039062 3.86822266 19.67039062 2.77734375 20.609375 C1 22 1 22 0 22 C0 14.74 0 7.48 0 0 Z " fill="#FFCE01" transform="translate(210,285)"/>
<path d="M0 0 C1.98 1.65 3.96 3.3 6 5 C2.6052667 9.15300707 -0.71605092 12.73067044 -5 16 C-5.680625 16.70125 -6.36125 17.4025 -7.0625 18.125 C-8.9605432 19.961816 -10.58885744 20.96665319 -13 22 C-11.71687876 17.68693405 -10.07895544 14.20416086 -7.625 10.4375 C-7.03976563 9.52871094 -6.45453125 8.61992187 -5.8515625 7.68359375 C-4.01218661 5.01766287 -2.05458146 2.50260693 0 0 Z " fill="#FFCF01" transform="translate(174,240)"/>
<path d="M0 0 C1.06031244 3.1965367 0.96635849 4.87934744 -0.29296875 7.984375 C-0.59195068 8.7477417 -0.89093262 9.5111084 -1.19897461 10.29760742 C-1.52518799 11.10689697 -1.85140137 11.91618652 -2.1875 12.75 C-5.53123689 21.37498958 -7.9965843 29.97840758 -10 39 C-10.99 38.34 -11.98 37.68 -13 37 C-12.43841531 29.84627503 -10.38732235 23.51461582 -8.0625 16.75 C-7.70220703 15.67492187 -7.34191406 14.59984375 -6.97070312 13.4921875 C-2.89287054 1.44643527 -2.89287054 1.44643527 0 0 Z " fill="#171717" transform="translate(50,166)"/>
<path d="M0 0 C0.66 0.33 1.32 0.66 2 1 C0.50470777 9.39544284 -1.99072278 17.26507488 -4.9375 25.25 C-5.27330078 26.19125732 -5.60910156 27.13251465 -5.95507812 28.10229492 C-6.28830078 28.98119385 -6.62152344 29.86009277 -6.96484375 30.765625 C-7.2599585 31.55743164 -7.55507324 32.34923828 -7.85913086 33.16503906 C-9 35 -9 35 -11.12719727 35.76464844 C-12.05423462 35.88114746 -12.05423462 35.88114746 -13 36 C-11.56753527 31.62302444 -10.10254468 27.26414113 -8.53515625 22.93359375 C-5.18142155 13.85401216 -5.18142155 13.85401216 -2.75 4.5 C-2.5025 3.345 -2.255 2.19 -2 1 C-1.34 0.67 -0.68 0.34 0 0 Z " fill="#161616" transform="translate(475,312)"/>
<path d="M0 0 C0.66 0.33 1.32 0.66 2 1 C-1.40724988 6.69083225 -5.8024459 11.10029874 -10.5 15.75 C-11.25925781 16.51699219 -12.01851562 17.28398438 -12.80078125 18.07421875 C-13.53683594 18.80769531 -14.27289063 19.54117188 -15.03125 20.296875 C-15.69705078 20.96041992 -16.36285156 21.62396484 -17.04882812 22.30761719 C-18.97139704 23.97519073 -20.70183214 24.94117644 -23 26 C-23.99 26.66 -24.98 27.32 -26 28 C-24.68540518 25.12412774 -23.24593563 22.95542366 -21.09375 20.64453125 C-20.51898926 20.02586182 -19.94422852 19.40719238 -19.35205078 18.76977539 C-18.74087402 18.12387451 -18.12969727 17.47797363 -17.5 16.8125 C-16.87722168 16.14919678 -16.25444336 15.48589355 -15.61279297 14.80249023 C-10.65227931 9.57134522 -5.49490888 4.67193865 0 0 Z " fill="#1A1A1A" transform="translate(111,80)"/>
<path d="M0 0 C0 4.18678194 -2.02541079 7.11522797 -4 10.6875 C-4.3815625 11.38939453 -4.763125 12.09128906 -5.15625 12.81445312 C-6.09859522 14.54601247 -7.04857268 16.27341426 -8 18 C-9.98 17.34 -11.96 16.68 -14 16 C-14 13 -14 13 -12.64453125 11.60546875 C-11.73767578 10.90357422 -11.73767578 10.90357422 -10.8125 10.1875 C-8.32230001 8.17114373 -6.19430047 6.18698801 -4.1875 3.6875 C-2 1 -2 1 0 0 Z " fill="#FFAF01" transform="translate(348,320)"/>
<path d="M0 0 C-2.4558914 3.6838371 -4.93007727 4.34628977 -8.9375 5.6875 C-9.88786133 6.02491211 -9.88786133 6.02491211 -10.85742188 6.36914062 C-13.70264609 7.35345058 -15.96817578 8 -19 8 C-18.9609375 6.17578125 -18.9609375 6.17578125 -18 4 C-15.49335976 2.83641641 -13.24552741 1.97901618 -10.625 1.1875 C-9.93921875 0.95869141 -9.2534375 0.72988281 -8.546875 0.49414062 C-3.41491025 -1.13830342 -3.41491025 -1.13830342 0 0 Z " fill="#1C1C1C" transform="translate(337,471)"/>
<path d="M0 0 C1.16209423 3.48628269 0.88616059 3.86370218 -0.65234375 7.01171875 C-1.01650391 7.76904297 -1.38066406 8.52636719 -1.75585938 9.30664062 C-2.14580078 10.09232422 -2.53574219 10.87800781 -2.9375 11.6875 C-3.32357422 12.48478516 -3.70964844 13.28207031 -4.10742188 14.10351562 C-5.06290602 16.07346443 -6.02732106 18.03849939 -7 20 C-7.99 20 -8.98 20 -10 20 C-9.3726954 15.49715604 -7.60379851 11.75776327 -5.5625 7.75 C-5.24990234 7.11320313 -4.93730469 6.47640625 -4.61523438 5.8203125 C-2.25346482 1.12673241 -2.25346482 1.12673241 0 0 Z " fill="#141414" transform="translate(59,147)"/>
<path d="M0 0 C1.16209423 3.48628269 0.88616059 3.86370218 -0.65234375 7.01171875 C-1.01650391 7.76904297 -1.38066406 8.52636719 -1.75585938 9.30664062 C-2.14580078 10.09232422 -2.53574219 10.87800781 -2.9375 11.6875 C-3.32357422 12.48478516 -3.70964844 13.28207031 -4.10742188 14.10351562 C-5.06290602 16.07346443 -6.02732106 18.03849939 -7 20 C-7.99 20 -8.98 20 -10 20 C-8.66300371 15.70618499 -7.01866598 11.7671453 -5 7.75 C-4.2265625 6.19539063 -4.2265625 6.19539063 -3.4375 4.609375 C-2 2 -2 2 0 0 Z " fill="#141414" transform="translate(464,346)"/>
<path d="M0 0 C-2.55573961 3.0171926 -5.38380793 4.2432533 -9 5.75 C-10.051875 6.19859375 -11.10375 6.6471875 -12.1875 7.109375 C-15 8 -15 8 -18 7 C-13.4766479 2.7782047 -6.24643632 -2.08214544 0 0 Z " fill="#101010" transform="translate(182,41)"/>
<path d="M0 0 C0 8.91 0 17.82 0 27 C-1.87225366 23.25549268 -2.24550933 22.14972809 -2.1953125 18.234375 C-2.18886719 17.34492188 -2.18242187 16.45546875 -2.17578125 15.5390625 C-2.15902344 14.61867188 -2.14226562 13.69828125 -2.125 12.75 C-2.11597656 11.81414062 -2.10695312 10.87828125 -2.09765625 9.9140625 C-2.07413636 7.60911343 -2.04126853 5.3046884 -2 3 C-2.66 2.67 -3.32 2.34 -4 2 C-1 0 -1 0 0 0 Z " fill="#EEEEEE" transform="translate(257,400)"/>
<path d="M0 0 C0.66 0.33 1.32 0.66 2 1 C1.01 5.29 0.02 9.58 -1 14 C-1.99 13.34 -2.98 12.68 -4 12 C-3.125 4.375 -3.125 4.375 -2 1 C-1.34 0.67 -0.68 0.34 0 0 Z " fill="#232323" transform="translate(41,191)"/>
<path d="M0 0 C-2.42195448 2.87255066 -4.59742703 3.70838919 -8.1875 4.6875 C-9.08855469 4.93886719 -9.98960937 5.19023438 -10.91796875 5.44921875 C-11.60503906 5.63097656 -12.29210937 5.81273437 -13 6 C-13 4.68 -13 3.36 -13 2 C-11.5882217 1.46605821 -10.17029756 0.94834896 -8.75 0.4375 C-7.96109375 0.14746094 -7.1721875 -0.14257812 -6.359375 -0.44140625 C-3.80896548 -1.04522837 -2.44677771 -0.8473932 0 0 Z " fill="#1A1A1A" transform="translate(194,37)"/>
<path d="M0 0 C0.66 0.33 1.32 0.66 2 1 C1.01 5.29 0.02 9.58 -1 14 C-1.99 13.34 -2.98 12.68 -4 12 C-3.71905418 10.1858073 -3.42493567 8.37364999 -3.125 6.5625 C-2.96257812 5.55316406 -2.80015625 4.54382813 -2.6328125 3.50390625 C-2.42398437 2.67761719 -2.21515625 1.85132813 -2 1 C-1.34 0.67 -0.68 0.34 0 0 Z " fill="#202020" transform="translate(475,312)"/>
<path d="M0 0 C-2.4453385 2.96527758 -4.44602347 3.55582214 -8.1875 4.1875 C-9.08855469 4.34605469 -9.98960937 4.50460937 -10.91796875 4.66796875 C-11.94857422 4.83232422 -11.94857422 4.83232422 -13 5 C-12 2 -12 2 -10.29296875 1.015625 C-9.59816406 0.76296875 -8.90335937 0.5103125 -8.1875 0.25 C-7.15689453 -0.14445312 -7.15689453 -0.14445312 -6.10546875 -0.546875 C-3.71856031 -1.06056958 -2.29362227 -0.76282269 0 0 Z " fill="#0F0F0F" transform="translate(319,477)"/>
<path d="M0 0 C1 3 1 3 0.22265625 5.04296875 C-0.16019531 5.75066406 -0.54304688 6.45835937 -0.9375 7.1875 C-1.31777344 7.90292969 -1.69804688 8.61835938 -2.08984375 9.35546875 C-2.54037109 10.16951172 -2.54037109 10.16951172 -3 11 C-3.99 11 -4.98 11 -6 11 C-3.76687117 3.98159509 -3.76687117 3.98159509 -2 1 C-1.34 0.67 -0.68 0.34 0 0 Z " fill="#080808" transform="translate(59,147)"/>
<path d="M0 0 C1 3 1 3 0.22265625 5.04296875 C-0.16019531 5.75066406 -0.54304688 6.45835937 -0.9375 7.1875 C-1.31777344 7.90292969 -1.69804687 8.61835938 -2.08984375 9.35546875 C-2.54037109 10.16951172 -2.54037109 10.16951172 -3 11 C-3.99 11 -4.98 11 -6 11 C-4.74194623 6.49197399 -3.09592835 3.5087188 0 0 Z " fill="#070707" transform="translate(460,355)"/>
<path d="M0 0 C0.33 0 0.66 0 1 0 C1.28571429 8.57142857 1.28571429 8.57142857 -1 12 C-1.66 11.34 -2.32 10.68 -3 10 C-2.79296875 7.87109375 -2.79296875 7.87109375 -2.1875 5.4375 C-1.99542969 4.63183594 -1.80335937 3.82617188 -1.60546875 2.99609375 C-1 1 -1 1 0 0 Z " fill="#151515" transform="translate(38,202)"/>
<path d="M0 0 C0.66 0.33 1.32 0.66 2 1 C1.25675659 3.39489543 0.52942646 4.70777616 -1.69140625 5.93359375 C-3.44073501 6.67219923 -5.21934149 7.34049685 -7 8 C-7 6.68 -7 5.36 -7 4 C-1.7265625 0.77734375 -1.7265625 0.77734375 0 0 Z " fill="#181818" transform="translate(371,452)"/>
<path d="M0 0 C0.33 0 0.66 0 1 0 C0.67 3.3 0.34 6.6 0 10 C-0.99 10 -1.98 10 -3 10 C-2.69201674 8.51988629 -2.378482 7.04092675 -2.0625 5.5625 C-1.88847656 4.73878906 -1.71445312 3.91507812 -1.53515625 3.06640625 C-1 1 -1 1 0 0 Z " fill="#080808" transform="translate(477,303)"/>
<path d="M0 0 C0.99 0 1.98 0 3 0 C2.67 1.98 2.34 3.96 2 6 C0.68 6.33 -0.64 6.66 -2 7 C-1.34 4.69 -0.68 2.38 0 0 Z " fill="#1F1F1F" transform="translate(464,341)"/>
<path d="M0 0 C0.66 0.33 1.32 0.66 2 1 C-1.625 5.875 -1.625 5.875 -5 7 C-3.75023244 3.34683329 -3.32901247 2.21934164 0 0 Z " fill="#0D0D0D" transform="translate(376,449)"/>
</svg>
