<?xml version="1.0" encoding="UTF-8" standalone="no"?>
<!-- Created with Inkscape (http://www.inkscape.org/) -->

<svg
   width="200"
   height="200"
   viewBox="0 0 52.916668 52.916666"
   version="1.1"
   id="svg8"
   inkscape:version="1.4 (86a8ad7, 2024-10-11)"
   sodipodi:docname="aco.svg"
   xmlns:inkscape="http://www.inkscape.org/namespaces/inkscape"
   xmlns:sodipodi="http://sodipodi.sourceforge.net/DTD/sodipodi-0.dtd"
   xmlns="http://www.w3.org/2000/svg"
   xmlns:svg="http://www.w3.org/2000/svg"
   xmlns:rdf="http://www.w3.org/1999/02/22-rdf-syntax-ns#"
   xmlns:cc="http://creativecommons.org/ns#"
   xmlns:dc="http://purl.org/dc/elements/1.1/">
  <defs
     id="defs2">
    <inkscape:path-effect
       effect="envelope"
       id="path-effect4658"
       is_visible="true"
       yy="true"
       xx="true"
       bendpath1="m -199.08406,108.42369 h 7.0057"
       bendpath2="m -192.07836,108.42369 v 6.75242"
       bendpath3="m -199.08406,115.17611 h 7.0057"
       bendpath4="m -199.08406,108.42369 v 6.75242" />
    <inkscape:path-effect
       effect="bend_path"
       id="path-effect4656"
       is_visible="true"
       bendpath="m -192.00142,114.60623 c 2.12577,-0.53066 4.48261,0.85111 7.0057,0"
       prop_scale="1"
       scale_y_rel="false"
       vertical="false"
       bendpath-nodetypes="cc" />
    <inkscape:path-effect
       effect="bounding_box"
       id="path-effect4654"
       is_visible="true"
       linkedpath=""
       visualbounds="false" />
    <symbol
       id="AigaSymbols.svg:BaggageLockers">
      <title
         id="title41">Baggage Lockers</title>
      <!-- key -->
      <path
         d="m 34.625,11 a 7.5,7.5 0 1 0 0,7 H 37 l 2.5,-2.5 2,2 2,-2 2,2 2,-2 2,2 L 52,15 c 0.5,-0.5 0.5,-1 0,-1.5 L 49.5,11 Z M 27,14.5 a 2,2 0 1 1 -4,0 2,2 0 1 1 4,0 z"
         style="stroke:none"
         id="path42" />
      <!-- locker -->
      <rect
         x="16.5"
         y="26.5"
         width="39"
         height="32"
         style="fill:#ffffff;stroke-width:5"
         id="rect42" />
      <!-- bag -->
      <path
         d="M 33.5,31.5 A 1.5,1.5 0 0 0 32,33 v 2.5 h -3 v 18 h 14.5 v -18 H 40 V 33 a 1.5,1.5 0 0 0 -1.5,-1.5 z m 0,1.5 h 5 v 2.5 h -5 z m -8,2.5 A 2.5,2.5 0 0 0 23,38 v 13 a 2.5,2.5 0 0 0 2.5,2.5 h 2 v -18 z m 19.5,0 v 18 h 1.5 A 2.5,2.5 0 0 0 49,51 V 38 a 2.5,2.5 0 0 0 -2.5,-2.5 z"
         style="stroke:none"
         id="path43" />
    </symbol>
    <symbol
       id="MapSymbolsNPS.svg:LitterReceptacle">
      <title
         id="title101">Litter Receptacle</title>
      <g
         id="TrashCan"
         style="stroke:none">
        <path
           d="M 29.5,66 34,41.5 h -3.5 l -4,21 h -9 L 14,41.5 h -3.5 l 4,24.5 z"
           id="path101" />
        <rect
           x="20"
           y="46"
           width="3.75"
           height="3.75"
           id="rect102" />
        <rect
           x="-14.49781"
           y="43.493431"
           width="3.7494338"
           height="3.7494338"
           transform="rotate(-45)"
           id="rect103"
           style="stroke-width:0.999849" />
        <rect
           x="-11.998188"
           y="36.994411"
           width="3.7494338"
           height="3.7494338"
           transform="rotate(-45)"
           id="rect104"
           style="stroke-width:0.999849" />
      </g>
      <path
         d="M 40,20.5 C 41,19 42.5,18 45,18 h 11 c 4,0 7,2.75 7,6 v 15 a 2,2 0 0 1 -4,0 V 24 h -2.5 v 39.25 a 2.75,2.75 0 0 1 -5.5,0 V 41 h -3 v 22.25 a 2.75,2.75 0 0 1 -5.5,0 V 24 l -5,7.25 C 37.125,31.75 36.5,32 36,32 h -8.5 a 2,2 0 0 1 0,-4 H 35 Z"
         style="stroke:none"
         id="path104" />
      <circle
         cx="49.5"
         cy="11.5"
         r="4.75"
         style="stroke:none"
         id="circle104" />
    </symbol>
    <symbol
       id="sjjb-amenity.svg:court"
       viewBox="0 0 522.36658 473.4661">
      <title
         id="title3">Court</title>
      <path
         d="m 260.78875,0.00301311 a 5.4151628,5.4151628 0 0 0 -5.19922,5.18554699 l -2.05078,54.2539129 c -28.90909,3.25004 -55.7159,11.07288 -78.80273,26.54687 l 0.0293,-0.0215 C 148.74184,102.91489 123.68227,112.15498 99.753613,112.29596 a 2.7075814,2.7075814 0 0 0 -0.19532,0.008 c -9.83831,0.7734 -23.88398,-2.64486 -37.029294,-8.07618 C 49.383685,98.796473 37.028957,91.341873 30.294624,84.774663 a 2.7075814,2.7075814 0 0 0 -4.078125,3.5332 C 38.638672,105.34514 55.074481,123.43578 86.530953,130.28052 L 6.700874,322.36841 H 5.413765 a 5.4151628,5.4151628 0 0 0 -5.353516,6.2207 c 5.492705,36.45028 44.889174,63.23828 91.425784,63.23828 46.536617,0 85.933077,-26.788 91.425777,-63.23828 a 5.4151628,5.4151628 0 0 0 -5.35547,-6.2207 h -1.22852 L 98.505563,132.2356 c 0.33005,0.0372 0.64949,0.0822 0.98242,0.11718 a 2.7075814,2.7075814 0 0 0 0.32617,0.0137 c 38.437197,-0.62048 57.812267,-12.12584 77.570317,-22.55469 25.6242,-9.51298 46.77047,-26.114537 75.2207,-25.671877 L 239.2165,438.41921 H 132.27118 a 5.4151628,5.4151628 0 0 0 -5.41406,5.41601 v 24.21485 a 5.4151628,5.4151628 0 0 0 5.41406,5.41601 h 126.54688 4.73047 126.54883 a 5.4151628,5.4151628 0 0 0 5.41406,-5.41601 v -24.21485 a 5.4151628,5.4151628 0 0 0 -5.41406,-5.41601 H 283.15009 L 269.76142,84.137963 c 28.4487,-0.44355 49.59326,16.158157 75.21484,25.671867 19.75988,10.42961 39.13748,21.9361 77.57813,22.55665 a 2.7075814,2.7075814 0 0 0 0.32617,-0.0137 c 0.33291,-0.035 0.65239,-0.08 0.98242,-0.11718 l -77.82227,190.13281 h -1.23046 a 5.4151628,5.4151628 0 0 0 -5.35352,6.2207 c 5.4927,36.45028 44.88916,63.23828 91.42578,63.23828 46.53661,0 85.93113,-26.788 91.42383,-63.23828 a 5.4151628,5.4151628 0 0 0 -5.35352,-6.2207 h -1.28515 L 435.83564,130.28052 c 31.45733,-6.84443 47.89204,-24.93504 60.31445,-41.972657 a 2.7075814,2.7075814 0 0 0 -4.07812,-3.5332 c -6.73434,6.56721 -19.08711,14.02181 -32.23243,19.453117 -13.14531,5.43132 -27.19098,8.84958 -37.02929,8.07618 a 2.7075814,2.7075814 0 0 0 -0.19727,-0.008 c -23.92866,-0.14098 -48.98824,-9.38107 -75.01172,-26.328117 -23.07915,-15.45948 -49.87605,-23.2767 -78.77148,-26.52539 L 266.779,5.1885401 a 5.4151628,5.4151628 0 0 0 -5.25391,-5.18554699 5.4151628,5.4151628 0 0 0 -0.24609,0.0059 5.4151628,5.4151628 0 0 0 -0.49024,-0.0059 z M 92.08367,145.13583 164.62469,322.36825 H 18.427417 l 73.65625,-177.23242 z m 338.19922,0 73.65821,177.23242 H 357.74188 Z"
         id="path3" />
    </symbol>
    <symbol
       id="AigaSymbols.svg:Cashier">
      <title
         id="title27">Cashier</title>
      <g
         style="fill:none;stroke-width:6"
         id="g28">
        <circle
           cx="36"
           cy="36"
           r="24"
           id="circle28" />
        <path
           d="m 45,30 c 0,-4 -4,-6 -9,-6 -5,0 -9,2 -9,6 0,4 4,5.5 9,6 5,0.5 10,1 10,6 0,5 -5,6 -10,6 -5,0 -9,-3 -9,-7 m 9,-24 v 38"
           id="path28" />
      </g>
    </symbol>
    <symbol
       id="sjjb-amenity.svg:firestation"
       viewBox="0 0 338.31653 553.83203">
      <title
         id="title4">Fire station</title>
      <path
         d="m 152.01603,0 c -37.22584,151.15831 30.73892,149.83168 68.4375,238.67188 C 246.89612,101.68359 167.79098,132.50454 152.01603,0 Z M 114.63321,99.494148 C 91.205297,185.32102 123.79758,226.47356 121.53556,289.28126 88.730667,231.20307 56.202397,179.7808 24.916417,158.15626 c 25.79108,51.97809 -7.86136,114.40046 -19.41016,164.98046 -16.4627,72.10121 5.8324,120.34358 42.41406,140.97657 -0.55356,-35.13325 10.9929,-66.18415 17.83008,-73.61328 9.01264,63.48876 19.33359,102.39652 69.587893,140.32617 5.06853,-79.96596 30.20227,-59.26818 39.10742,-158.73047 36.67983,60.57819 29.55919,121.15815 11.50196,181.73633 32.30895,-28.8767 68.07701,-52.68648 112.7207,-181.73633 l -9.20117,96.61914 C 317.90054,399.18051 399.02845,330.12416 256.68595,135.72657 270.82122,248.47951 241.85478,263.42495 227.93009,308.83399 195.19301,212.25401 130.7087,205.67293 114.63321,99.494148 Z"
         id="path4" />
    </symbol>
  </defs>
  <sodipodi:namedview
     id="base"
     pagecolor="#ffffff"
     bordercolor="#666666"
     borderopacity="1.0"
     inkscape:pageopacity="0.0"
     inkscape:pageshadow="2"
     inkscape:zoom="2.49"
     inkscape:cx="131.92771"
     inkscape:cy="68.072289"
     inkscape:document-units="px"
     inkscape:current-layer="g5175"
     showgrid="false"
     fit-margin-top="0"
     fit-margin-left="0"
     fit-margin-right="0"
     fit-margin-bottom="0"
     inkscape:window-width="1600"
     inkscape:window-height="847"
     inkscape:window-x="-8"
     inkscape:window-y="22"
     inkscape:window-maximized="1"
     showguides="false"
     inkscape:object-nodes="true"
     units="px"
     inkscape:snap-page="true"
     inkscape:showpageshadow="2"
     inkscape:pagecheckerboard="0"
     inkscape:deskcolor="#d1d1d1" />
  <metadata
     id="metadata5">
    <rdf:RDF>
      <cc:Work
         rdf:about="">
        <dc:format>image/svg+xml</dc:format>
        <dc:type
           rdf:resource="http://purl.org/dc/dcmitype/StillImage" />
      </cc:Work>
    </rdf:RDF>
  </metadata>
  <g
     inkscape:label="Layer 1"
     inkscape:groupmode="layer"
     id="layer1"
     transform="translate(98.048812,-95.14345)">
    <g
       style="stroke-width:0.5"
       transform="matrix(2,0,0,2,-98.048812,95.143449)"
       id="g5175">
      <rect
         y="-1.110223e-16"
         x="0"
         height="26.458334"
         width="26.458334"
         id="rect5163"
         style="opacity:1;fill:#222222;fill-opacity:1;fill-rule:nonzero;stroke:none;stroke-width:0.25;stroke-linecap:butt;stroke-linejoin:round;stroke-miterlimit:4;stroke-dasharray:none;stroke-dashoffset:0;stroke-opacity:0.90944878;paint-order:normal"
         rx="1.984375"
         ry="1.984375" />
      <rect
         style="display:inline;opacity:1;fill:#165016;fill-opacity:1;fill-rule:nonzero;stroke:none;stroke-width:0.25;stroke-linecap:butt;stroke-linejoin:round;stroke-miterlimit:4;stroke-dasharray:none;stroke-dashoffset:0;stroke-opacity:0.909449;paint-order:normal"
         id="rect5165"
         width="23.8125"
         height="23.8125"
         x="1.2166586"
         y="1.322917"
         rx="1.3229166"
         ry="1.3229166" />
      <path
         style="display:inline;opacity:1;fill:#222222;fill-opacity:1;fill-rule:nonzero;stroke:none;stroke-width:0.256624;stroke-linecap:butt;stroke-linejoin:round;stroke-miterlimit:4;stroke-dasharray:none;stroke-dashoffset:0;stroke-opacity:0.909449;paint-order:normal"
         d="m 0.35570063,18.520836 v 4.326576 c 0,1.597948 1.25747387,2.884382 2.81944767,2.884382 H 22.911281 c 1.561974,0 2.819448,-1.286434 2.819448,-2.884382 v -4.326576 z"
         id="rect5205-3-6"
         inkscape:connector-curvature="0" />
      <text
         xml:space="preserve"
         style="font-style:normal;font-variant:normal;font-weight:bold;font-stretch:normal;font-size:2.99816px;font-family:'Times New Roman';-inkscape-font-specification:'Times New Roman,  Bold';text-align:center;writing-mode:lr-tb;direction:ltr;text-anchor:middle;mix-blend-mode:normal;fill:#ffffff;fill-opacity:1;stroke-width:0.0450184"
         x="16.830542"
         y="18.001419"
         id="text12"
         transform="scale(0.77887171,1.2839085)"><tspan
           sodipodi:role="line"
           id="tspan12"
           style="font-style:normal;font-variant:normal;font-weight:bold;font-stretch:normal;font-size:2.99816px;font-family:'Times New Roman';-inkscape-font-specification:'Times New Roman,  Bold';text-align:center;text-anchor:middle;fill:#ffffff;stroke-width:0.0450184"
           x="16.830542"
           y="18.001419">ANTICONSUMERISM</tspan></text>
      <path
         style="fill:#222222;fill-opacity:1;stroke-width:0.200803"
         d=""
         id="path18"
         transform="scale(0.13229167)" />
      <path
         style="fill:#222222;fill-opacity:1;stroke-width:0.0383756"
         d="M 15.096094,9.5930793 14.804953,9.2642819 14.430897,9.4218502 c -0.26481,0.1115487 -0.547089,0.159641 -0.966514,0.1646652 -0.525345,0.00629 -0.641674,-0.019255 -1.026929,-0.2255339 -0.238956,-0.1279467 -0.434469,-0.26411 -0.434469,-0.3025847 0,-0.038475 0.190444,-0.229626 0.423208,-0.4247803 0.303219,-0.2542258 0.459995,-0.3387609 0.552961,-0.2981624 0.191934,0.083818 0.822438,0.07673 0.851228,-0.00957 0.01368,-0.041015 -0.160828,-0.2692524 -0.387797,-0.5071948 L 13.029913,7.3860664 12.695982,7.5399658 C 12.231615,7.7539777 11.642268,7.8708245 11.317397,7.8132902 10.830798,7.727114 10.348753,7.3760199 10.118718,6.9402427 9.7916755,6.3206929 9.8754035,5.6181757 10.345653,5.036161 c 0.107762,-0.1333776 0.195936,-0.2658448 0.195936,-0.2943712 0,-0.028526 -0.130261,-0.1879732 -0.289458,-0.3543255 L 9.9626735,4.0850055 10.426916,3.6961487 10.89116,3.3072922 l 0.301846,0.323718 0.301848,0.3237182 0.396191,-0.1878558 c 0.740637,-0.3511758 1.546613,-0.3055263 2.126298,0.1204313 l 0.197486,0.1451142 -0.428296,0.3553517 c -0.40392,0.3351267 -0.454125,0.3554455 -0.882083,0.3570004 -0.249581,9.098e-4 -0.479611,0.026021 -0.511178,0.055809 -0.03156,0.029787 0.143301,0.2699516 0.388581,0.5336969 l 0.445976,0.4795368 0.545834,-0.2643709 c 0.753038,-0.3647304 1.211485,-0.3995988 1.783044,-0.1356149 0.624254,0.2883205 0.935171,0.731485 0.975064,1.3897939 0.03274,0.5402994 -0.100988,0.8823696 -0.560402,1.433439 l -0.236792,0.2840372 0.192009,0.2006821 c 0.422803,0.4418961 0.425711,0.410849 -0.07701,0.8219963 L 15.387247,9.921876 Z m 0.194097,-2.5210279 c 0.07982,-0.1793462 0.07046,-0.2389199 -0.06444,-0.410147 -0.0868,-0.1101788 -0.239276,-0.2116695 -0.338819,-0.225536 -0.16631,-0.023167 -0.790591,0.1890647 -0.790591,0.268771 0,0.018962 0.184042,0.2350288 0.408984,0.4801466 l 0.408986,0.4456688 0.141235,-0.1745402 c 0.07769,-0.095997 0.183271,-0.2689606 0.234639,-0.3843632 z M 12.016273,6.552153 C 12.184254,6.463322 12.180075,6.453695 11.798862,6.0514331 11.425947,5.6579266 11.405375,5.6471591 11.29186,5.7860403 11.154789,5.953738 11.137379,6.2957347 11.25531,6.5037688 c 0.09463,0.1669053 0.489364,0.1920045 0.760954,0.048384 z"
         id="path1" />
      <path
         style="fill:#222222;fill-opacity:1;stroke-width:0.200803"
         d="M 11.216606,199.25234 C 7.2952048,198.19014 3.473239,195.02137 1.703299,191.3649 1.2220075,190.37061 0.64545305,188.2923 0.42206699,186.74643 -0.1324504,182.90906 -0.13651478,17.130447 0.41781349,13.253012 1.1705402,7.9878141 4.3189787,3.7419383 9.1493715,1.4779342 L 11.445783,0.40160643 H 100 188.55422 l 2.29641,1.07632777 c 4.83039,2.2640041 7.97883,6.5098799 8.73155,11.7750778 0.55053,3.850851 0.55053,169.643128 0,173.493978 -0.75272,5.26519 -3.90116,9.51107 -8.73155,11.77507 l -2.29641,1.07633 -87.75101,0.0756 c -68.687686,0.0592 -88.149773,-0.0324 -89.586604,-0.42163 z M 32.53012,166.26113 c 0,-8.54309 0.04416,-9.07789 0.803213,-9.72781 1.244933,-1.06594 0.980937,-1.31244 -1.405622,-1.31244 -1.21486,0 -2.208835,0.10658 -2.208835,0.23683 0,0.13026 0.404783,0.56461 0.899518,0.96522 0.825368,0.66834 0.909581,1.12057 1.0216,5.48606 l 0.122083,4.75768 -2.803741,-5.72289 -2.80374,-5.7229 h -2.233925 c -2.407005,0 -2.683616,0.27176 -1.430711,1.40563 0.75172,0.68029 0.803213,1.23693 0.803213,8.68265 0,7.62686 -0.03427,7.97409 -0.828885,8.39936 -1.661651,0.88929 -1.652795,0.91004 -5.019833,-11.76073 -1.041854,-3.92068 -2.009841,-7.12851 -2.151081,-7.12851 -0.14124,0 -0.775676,1.94277 -1.409858,4.31727 -2.523294,9.4477 -3.9050236,13.96072 -4.4630863,14.57737 -0.9324695,1.03037 -0.7197743,1.18568 1.6237473,1.18568 2.20208,0 2.930247,-0.52012 1.405622,-1.00402 -0.848792,-0.2694 -0.994059,-1.1542 -0.552209,-3.36345 0.239074,-1.19537 0.342157,-1.25502 2.168779,-1.25502 h 1.917775 l 0.497333,2.07311 c 0.437664,1.82439 0.418378,2.13085 -0.160747,2.55432 -0.361944,0.26466 -0.658079,0.59682 -0.658079,0.73813 0,0.14131 2.349397,0.25693 5.220883,0.25693 2.871486,0 5.220884,-0.13725 5.220884,-0.305 0,-0.16775 -0.361446,-0.53073 -0.803213,-0.80662 -0.749187,-0.46788 -0.803213,-0.93655 -0.803213,-6.96798 v -6.46636 l 3.699863,7.47379 c 2.034925,4.11057 3.842154,7.47377 4.016064,7.47377 0.173911,0 0.316201,-4.06803 0.316201,-9.04007 z m 30.763053,7.67461 c 0.992694,-0.99269 1.365462,-1.72178 1.365462,-2.6707 v -1.30523 l -1.201125,1.6581 c -1.964739,2.71224 -4.076647,2.65356 -5.407141,-0.15025 -1.040473,-2.19264 -1.297437,-8.26732 -0.4701,-11.11327 0.636117,-2.18817 2.081498,-3.92869 3.262502,-3.92869 0.936868,0 2.633803,2.14434 3.071028,3.88073 0.697482,2.76994 1.146442,2.03657 1.146442,-1.8727 0,-1.98795 -0.115619,-3.61445 -0.256932,-3.61445 -0.141309,0 -0.470674,0.29231 -0.731919,0.64959 -0.437547,0.59838 -0.574017,0.59838 -1.731161,0 -3.824755,-1.97786 -7.436659,1.04569 -8.559241,7.165 -0.565189,3.08091 -0.175956,6.3061 1.076803,8.92243 1.215145,2.53778 2.911097,3.7288 5.322932,3.73814 1.456004,0.006 1.974422,-0.22067 3.11245,-1.3587 z m 11.788401,0.77279 c 3.531727,-1.82633 5.14343,-10.57369 2.880526,-15.6338 -1.613614,-3.60822 -4.620674,-5.0319 -7.577132,-3.58736 -4.218141,2.061 -5.515004,12.25967 -2.201916,17.31608 1.489101,2.27265 4.552028,3.1185 6.898522,1.90508 z m 15.359285,-8.67304 c 0.109149,-8.33142 0.192257,-9.30532 0.824201,-9.65851 1.257109,-0.70259 0.745101,-1.1561 -1.305221,-1.1561 -1.104417,0 -2.008032,0.10704 -2.008032,0.23786 0,0.13083 0.361446,0.69737 0.803213,1.25898 0.692333,0.88016 0.800309,1.60961 0.782177,5.28423 l -0.02104,4.26311 -2.793016,-5.52209 -2.793017,-5.52209 h -2.206028 c -2.383799,0 -2.647494,0.24671 -1.402811,1.31244 0.753518,0.64519 0.803213,1.18472 0.803213,8.72039 0,7.59772 -0.04349,8.05982 -0.803213,8.53427 -1.30843,0.81713 -0.936052,1.11162 1.405623,1.11162 1.214859,0 2.208835,-0.0904 2.208835,-0.2008 0,-0.11045 -0.361446,-0.56225 -0.803213,-1.00402 -0.737727,-0.73773 -0.801056,-1.31891 -0.776779,-7.12851 l 0.02643,-6.32531 3.650691,7.53012 c 2.007879,4.14157 3.793771,7.53012 3.968642,7.53012 0.174876,0 0.372578,-4.16957 0.439341,-9.26571 z m 3.443828,8.79468 c 0.360309,-0.36031 0.714052,-0.36031 1.504843,0 2.557281,1.16518 4.98414,-0.12709 5.80786,-3.0926 1.01789,-3.66451 0.25639,-5.84588 -3.232398,-9.25937 -1.78257,-1.7441 -2.784269,-3.04342 -2.784269,-3.61153 0,-2.62685 2.274329,-3.34056 3.619193,-1.13575 0.437879,0.71788 0.90714,1.89257 1.042807,2.61045 0.458617,2.42674 0.960487,1.32505 0.960487,-2.10844 0,-2.00803 -0.16536,-3.41365 -0.4016,-3.41365 -0.22089,0 -0.40161,0.27108 -0.40161,0.60241 0,0.74954 -0.378731,0.74604 -1.38198,-0.0128 -0.910153,-0.68841 -2.364036,-0.76243 -3.459542,-0.17613 -1.252398,0.67026 -2.066109,2.72175 -2.066109,5.20898 0,2.82842 0.650225,4.13739 3.31296,6.66931 2.333197,2.21857 2.936599,3.40221 2.574599,5.05038 -0.340358,1.54963 -1.563627,2.1764 -2.741474,1.40464 -0.903221,-0.59181 -2.00255,-2.74871 -2.44188,-4.791 -0.507582,-2.35956 -1.02549,-0.99049 -1.02549,2.71084 0,3.75107 0.176555,4.28128 1.113603,3.34423 z m 16.866223,-0.15197 c 1.69663,-1.18837 1.88709,-2.08747 2.09827,-9.90524 0.22424,-8.30133 0.47041,-9.12162 2.57868,-8.59248 l 1.038,0.26052 v 8.42269 c 0,7.98774 -0.0415,8.44858 -0.80321,8.92429 -1.30843,0.81713 -0.93605,1.11162 1.40562,1.11162 2.34168,0 2.71406,-0.29449 1.40563,-1.11162 -0.7548,-0.47137 -0.80139,-0.91906 -0.773,-7.42592 l 0.0302,-6.92431 2.03382,7.73092 c 1.1186,4.25201 2.16452,7.73093 2.32426,7.73093 0.15974,0 1.17369,-3.47892 2.25324,-7.73093 l 1.96279,-7.73092 0.11342,6.82731 c 0.10716,6.45037 0.0684,6.86412 -0.70281,7.49409 -0.44893,0.36673 -0.81623,0.77336 -0.81623,0.90362 0,0.13025 1.44578,0.23683 3.21285,0.23683 3.29828,0 3.81093,-0.2365 2.40964,-1.11162 -0.76074,-0.47509 -0.80321,-0.93655 -0.80321,-8.72774 0,-7.79118 0.0425,-8.25265 0.80321,-8.72774 1.34652,-0.84091 0.91849,-1.11162 -1.75766,-1.11162 h -2.56088 l -1.07351,4.31727 c -0.59043,2.3745 -1.26891,5.04016 -1.50773,5.9237 l -0.43423,1.60642 -1.10973,-4.21686 c -0.61035,-2.31928 -1.31657,-4.98494 -1.56936,-5.9237 l -0.45963,-1.70683 h -4.80379 c -4.64092,0 -5.65422,0.28606 -4.10099,1.15772 0.62747,0.35213 0.70219,1.13995 0.69703,7.34927 -0.006,7.46027 -0.39837,9.20973 -2.16831,9.67258 -2.16101,0.56512 -2.82306,-1.68013 -2.83641,-9.61929 -0.01,-5.87389 0.32662,-7.75706 1.3861,-7.75706 0.33679,0 0.61235,-0.18073 0.61235,-0.40161 0,-0.23427 -1.33869,-0.40161 -3.21285,-0.40161 -1.93934,0 -3.21285,0.16419 -3.21285,0.41421 0,0.22782 0.27108,0.51824 0.60241,0.64538 0.49905,0.19151 0.60241,1.28244 0.60241,6.35829 0,7.77894 0.40285,10.09261 2.01244,11.55803 1.4026,1.27696 3.6824,1.49115 5.12401,0.48141 z m 53.75868,0.0305 c 0.2004,-0.52223 0.3632,-0.52223 1.37308,0 2.93648,1.51851 5.44055,-0.20784 6.20395,-4.27714 0.4835,-2.57723 -0.41322,-4.61279 -3.44144,-7.81218 -2.78511,-2.94252 -3.19185,-3.87376 -2.36599,-5.4169 0.97491,-1.82162 3.31733,-0.24835 4.06782,2.73212 0.67944,2.69829 1.13893,2.01174 1.13893,-1.7017 0,-3.18257 -0.3837,-4.28293 -0.96514,-2.76774 -0.22774,0.59349 -0.32788,0.59349 -1.23365,0 -2.25603,-1.4782 -4.58028,-0.19349 -5.44243,3.00827 -0.87482,3.24886 0.20935,6.21504 3.19045,8.72874 2.39947,2.02327 3.13883,3.60726 2.45469,5.2589 -1.11578,2.69375 -3.3888,1.55743 -4.61524,-2.30724 -0.43342,-1.36575 -0.9304,-2.48318 -1.10442,-2.48318 -0.17401,0 -0.31638,1.71687 -0.31638,3.81526 0,2.35317 0.15873,3.81526 0.4142,3.81526 0.22782,0 0.51653,-0.26661 0.64157,-0.59247 z M 43.373494,174.5946 c 0,-0.16775 -0.361446,-0.53073 -0.803213,-0.80662 -0.760763,-0.4751 -0.803213,-0.93655 -0.803213,-8.73114 0,-7.73136 0.04486,-8.22953 0.740968,-8.22953 0.990679,0 1.918972,1.11432 2.258293,2.71084 0.475237,2.23601 1.016804,1.43389 1.016804,-1.50602 v -2.81125 h -5.421687 -5.421687 v 2.83495 c 0,2.87547 0.489321,3.45339 0.954529,1.12735 0.319137,-1.59569 0.934122,-2.35587 1.905891,-2.35587 0.713631,0 0.754038,0.45049 0.754038,8.40667 0,8.05396 -0.0337,8.41737 -0.803213,8.6616 -1.736168,0.55104 -0.649021,1.00402 2.409639,1.00402 1.767068,0 3.212851,-0.13725 3.212851,-0.305 z m 9.236948,0.1042 c 0,-0.11045 -0.361446,-0.56225 -0.803213,-1.00402 -0.748293,-0.74829 -0.803213,-1.33869 -0.803213,-8.63454 0,-7.29585 0.05492,-7.88624 0.803213,-8.63454 0.441767,-0.44176 0.803213,-0.89357 0.803213,-1.00401 0,-0.11045 -1.445783,-0.20081 -3.212852,-0.20081 -3.058658,0 -4.145807,0.45298 -2.409638,1.00402 0.770442,0.24453 0.803213,0.60764 0.803213,8.9 0,8.30732 -0.03138,8.65328 -0.803213,8.85512 -1.79396,0.46913 -0.613623,0.91958 2.409638,0.91958 1.767069,0 3.212852,-0.0904 3.212852,-0.2008 z m 89.701828,-2.26775 c 0.34905,-3.33952 0.32663,-3.95715 -0.1436,-3.95715 -0.22088,0 -0.4016,0.27828 -0.4016,0.61841 0,0.99149 -1.51236,3.67722 -2.22458,3.95053 -0.3588,0.13768 -1.17975,0.25033 -1.82433,0.25033 h -1.17198 v -3.80266 c 0,-3.19284 0.0953,-3.76606 0.59457,-3.57449 0.54292,0.20833 1.40581,2.44763 1.41123,3.66229 0.001,0.27611 0.18296,0.50201 0.40384,0.50201 0.24714,0 0.40161,-2.00803 0.40161,-5.22088 0,-5.10266 -0.43248,-6.72059 -0.99497,-3.72226 -0.15463,0.82425 -0.45218,1.81823 -0.66123,2.20884 -0.80179,1.49816 -1.15505,0.60994 -1.15505,-2.90425 v -3.61446 h 1.39637 c 1.56405,0 2.42693,0.94377 2.86486,3.13344 0.45532,2.27658 0.95966,1.36854 0.95966,-1.72782 v -3.01205 h -5.02008 c -2.76105,0 -5.02008,0.13725 -5.02008,0.305 0,0.16775 0.36144,0.53073 0.80321,0.80662 0.76074,0.47509 0.80321,0.93656 0.80321,8.72774 0,7.79119 -0.0425,8.25265 -0.80321,8.72774 -0.44177,0.27589 -0.80321,0.63887 -0.80321,0.80662 0,0.16775 2.32365,0.305 5.16367,0.305 h 5.16367 z m 7.48693,2.09401 c 0,-0.206 -0.36145,-0.48926 -0.80322,-0.62948 -0.72842,-0.23119 -0.80321,-0.60764 -0.80321,-4.04313 0,-2.0835 0.0674,-3.78819 0.14968,-3.78819 0.0823,0 1.00895,1.98795 2.05916,4.41767 l 1.90947,4.41767 h 5.16976 c 2.84337,0 5.16976,-0.13725 5.16976,-0.305 0,-0.16775 -0.36144,-0.53073 -0.80321,-0.80662 -0.76074,-0.47509 -0.80321,-0.93655 -0.80321,-8.72774 0,-7.79118 0.0425,-8.25265 0.80321,-8.72774 1.40129,-0.87512 0.88865,-1.11162 -2.40964,-1.11162 -3.29828,0 -3.81093,0.2365 -2.40964,1.11162 0.76051,0.47495 0.80322,0.93656 0.80322,8.68197 0,6.75035 -0.10442,8.26701 -0.5973,8.67606 -1.03781,0.86131 -1.64822,0.17907 -3.38696,-3.78553 l -1.69306,-3.86044 0.99377,-1.18103 c 2.16101,-2.56821 1.60575,-7.72432 -0.97557,-9.05918 -1.19442,-0.61766 -8.79872,-0.85833 -8.79872,-0.27847 0,0.16775 0.36145,0.53073 0.80322,0.80662 0.76074,0.47509 0.80321,0.93656 0.80321,8.72774 0,7.79119 -0.0425,8.25265 -0.80321,8.72774 -1.4013,0.87512 -0.88865,1.11162 2.40964,1.11162 1.76706,0 3.21285,-0.16855 3.21285,-0.37454 z m 27.30923,0.0622 c 0,-0.17179 -0.36144,-0.62183 -0.80321,-1.00008 -0.74361,-0.6367 -0.80321,-1.18471 -0.80321,-7.3851 0,-3.68356 0.0634,-6.62207 0.14081,-6.53004 0.0774,0.092 1.01,3.55589 2.07236,7.69746 1.06236,4.14156 2.05864,7.53012 2.21397,7.53012 0.15532,0 1.01965,-2.84639 1.92072,-6.3253 0.90107,-3.47892 1.81308,-6.95783 2.02668,-7.73093 0.29228,-1.05787 0.39732,0.30745 0.42458,5.51869 0.0341,6.51033 -0.0118,6.9543 -0.76699,7.42592 -1.4013,0.87512 -0.88865,1.11162 2.40964,1.11162 3.29828,0 3.81093,-0.2365 2.40963,-1.11162 -0.76074,-0.47509 -0.80321,-0.93655 -0.80321,-8.72774 0,-7.79118 0.0425,-8.25265 0.80321,-8.72774 1.34652,-0.84091 0.91849,-1.11162 -1.75766,-1.11162 h -2.56087 l -1.07351,4.31727 c -0.59043,2.3745 -1.27239,5.04016 -1.51546,5.9237 l -0.44194,1.60642 -1.46693,-5.82329 -1.46693,-5.82329 -2.68967,-0.11875 c -2.60348,-0.11495 -3.60748,0.37573 -1.88646,0.92196 0.76949,0.24423 0.80321,0.60764 0.80321,8.6582 0,7.96833 -0.0416,8.42923 -0.80321,8.90488 -1.30843,0.81713 -0.93606,1.11162 1.40562,1.11162 1.21486,0 2.20883,-0.14056 2.20883,-0.31236 z M 88.278329,137.82959 c -3.008538,-2.93541 -4.741602,-6.08436 -5.785425,-10.51203 -0.391631,-1.6612 -0.86741,-3.02037 -1.057286,-3.02037 -0.597096,0 -2.641771,4.79299 -2.925867,6.85862 -0.14953,1.08719 -0.480815,1.97224 -0.736193,1.96676 -0.765221,-0.0164 -4.126703,-2.65444 -5.23661,-4.1096 -1.482293,-1.94339 -2.255824,-4.44396 -2.255824,-7.29234 0,-3.2277 0.713764,-5.84158 3.134707,-11.47967 2.848727,-6.63432 3.423816,-9.84947 2.316679,-12.951803 -0.295602,-0.828314 -0.455775,-1.506024 -0.35594,-1.506024 0.09984,0 0.992245,0.557795 1.983133,1.239542 2.827052,1.94506 6.521707,5.573705 10.420004,10.233825 l 3.585755,4.28651 0.120771,-1.81577 c 0.07239,-1.08846 -0.369984,-3.71848 -1.104418,-6.566 C 89.04751,97.987944 88.787639,92.99439 89.695984,89.982582 l 0.47763,-1.583678 1.095932,2.788498 c 1.456101,3.704923 3.748121,6.526176 9.130594,11.238888 4.66777,4.08693 7.55054,7.30142 8.87339,9.8944 0.43062,0.84411 0.91482,1.53171 1.076,1.52802 0.44469,-0.0102 4.39196,-6.77336 5.15276,-8.82863 0.71667,-1.93605 0.99624,-9.20453 0.44025,-11.445783 -0.26297,-1.06004 0.0164,-0.867 2.32494,1.606426 10.71809,11.483687 13.70585,20.162747 9.76337,28.361317 -1.3192,2.74333 -6.35398,10.17377 -6.3363,9.35124 0.004,-0.19974 0.26965,-2.17039 0.58968,-4.37922 0.99583,-6.87326 0.92561,-6.93987 -1.96879,-1.86737 -2.92437,5.12504 -5.04766,8.07578 -8.20857,11.40749 l -2.19273,2.3112 39.72165,-0.10237 39.72164,-0.10237 V 78.915663 c 0,-55.675926 -0.0593,-61.375451 -0.65257,-62.67981 -0.92788,-2.04016 -3.01552,-4.290274 -4.9319,-5.315738 l -1.64445,-0.879954 H 99.196787 16.26506 l -1.64445,0.879954 c -1.916377,1.025464 -4.004013,3.275578 -4.9318935,5.315738 -0.5915908,1.300749 -0.6627779,7.119402 -0.76179,62.266798 -0.06007,33.457579 -0.020561,61.062999 0.087798,61.345379 0.1581586,0.41216 8.2498935,0.51342 41.0277775,0.51342 h 40.830763 z m 16.746071,1.82904 c 0.16007,-0.38654 0.38311,-2.44011 0.49562,-4.56347 0.24239,-4.57466 -0.57117,-7.62017 -2.99413,-11.20821 l -1.48576,-2.2002 -0.28689,1.20482 c -1.202682,5.05072 -1.860489,6.849 -3.621573,9.90043 -1.979988,3.43072 -3.320294,6.86944 -2.857775,7.33196 0.130618,0.13061 2.537429,0.23749 5.348469,0.23749 4.488989,0 5.146399,-0.0855 5.402039,-0.70282 z"
         id="path5"
         transform="scale(0.13229167)" />
      <path
         style="fill:#222222;fill-opacity:1;stroke-width:0.200803"
         d="m 108.43719,103.81801 c -0.29581,-0.55069 -2.95021,-3.47009 -5.89866,-6.487539 -5.833382,-5.969893 -6.895221,-7.665387 -7.249841,-11.576191 -0.184674,-2.036622 0.738977,-8.344294 1.371822,-9.368259 0.118511,-0.191754 0.602112,0.795959 1.07467,2.194917 1.280139,3.789718 2.768529,6.043923 6.750569,10.223885 4.43368,4.654047 5.3052,6.417847 5.2341,10.592767 -0.0282,1.65663 -0.20734,3.55422 -0.39806,4.21687 l -0.34675,1.20482 z"
         id="path6"
         transform="scale(0.13229167)" />
    </g>
    <g
       style="stroke-width:0.5"
       id="g5375"
       transform="matrix(2,0,0,2,298.8262,161.81845)">
      <rect
         ry="1.984375"
         rx="1.984375"
         style="opacity:1;fill:#222222;fill-opacity:1;fill-rule:nonzero;stroke:none;stroke-width:0.25;stroke-linecap:butt;stroke-linejoin:round;stroke-miterlimit:4;stroke-dasharray:none;stroke-dashoffset:0;stroke-opacity:0.90944878;paint-order:normal"
         id="rect5363"
         width="26.458334"
         height="26.458334"
         x="0"
         y="-1.110223e-16" />
      <rect
         ry="1.3229166"
         rx="1.3229166"
         y="1.322917"
         x="1.322917"
         height="23.8125"
         width="23.8125"
         id="rect5365"
         style="opacity:1;fill:#9c27b0;fill-opacity:1;fill-rule:nonzero;stroke:none;stroke-width:0.25;stroke-linecap:butt;stroke-linejoin:round;stroke-miterlimit:4;stroke-dasharray:none;stroke-dashoffset:0;stroke-opacity:0.90944878;paint-order:normal" />
      <path
         inkscape:connector-curvature="0"
         style="font-style:normal;font-variant:normal;font-weight:bold;font-stretch:normal;font-size:4.23333311px;line-height:4.23333311px;font-family:Montserrat;-inkscape-font-specification:'Montserrat Bold';text-align:center;text-anchor:middle;opacity:1;fill:#222222;fill-opacity:1;fill-rule:nonzero;stroke:none;stroke-width:0.24999999;stroke-linecap:butt;stroke-linejoin:round;stroke-miterlimit:4;stroke-dasharray:none;stroke-dashoffset:0;stroke-opacity:0.90944878;paint-order:normal"
         d="m 10.804879,3.4467321 a 0.15871531,0.15871531 0 0 0 -0.136382,0.1146841 0.15871531,0.15871531 0 0 0 0,0.00252 C 10.140525,3.6384432 9.6416792,3.965285 9.1881282,4.6909495 8.7115532,5.4663873 8.3524323,6.579977 8.0772328,7.9666052 6.7809381,7.5183239 5.6533861,7.2662043 4.7408247,7.2822132 3.7816738,7.2991518 3.1147858,7.5444251 2.8147338,8.0695121 a 0.15871531,0.15871531 0 0 0 0,0.00253 C 2.7114104,8.2598824 2.6603742,8.4734102 2.6603742,8.7068424 c 0,0.4210159 0.1552856,0.8916088 0.4475822,1.4177576 0.4325522,0.800072 1.2077345,1.656709 2.2422503,2.565227 -1.0505355,0.923913 -1.835515,1.786695 -2.2682869,2.580106 a 0.15871531,0.15871531 0 0 0 0,0.002 c -0.2751035,0.525219 -0.4215456,0.985636 -0.4215456,1.389797 0,0.23355 0.051235,0.447071 0.1543596,0.634798 a 0.15871531,0.15871531 0 0 0 0,0.0025 c 0.291392,0.51696 0.943761,0.765711 1.8864159,0.799078 a 0.15871531,0.15871531 0 0 0 0.00252,0 c 0.9137959,0.02385 2.0535277,-0.233556 3.3717428,-0.696171 0.2741331,1.348491 0.6233467,2.453038 1.0867197,3.23598 a 0.15871531,0.15871531 0 0 0 0,0.002 c 0.500317,0.825527 1.0505898,1.281995 1.6589068,1.281995 0.601456,0 1.143394,-0.456502 1.635347,-1.281995 a 0.15871531,0.15871531 0 0 0 0,-0.002 c 0.463775,-0.783622 0.815602,-1.888301 1.089818,-3.238461 1.329834,0.457616 2.472598,0.71099 3.381042,0.686873 0.941434,-0.02479 1.593573,-0.269105 1.885797,-0.78482 v -0.0025 c 0.112868,-0.188987 0.168617,-0.409658 0.168617,-0.651537 0,-0.404148 -0.146131,-0.860011 -0.421545,-1.377461 a 0.15871531,0.15871531 0 0 0 0,-0.0025 c -0.442823,-0.797089 -1.23398,-1.657456 -2.293703,-2.579495 1.035751,-0.909437 1.822657,-1.768065 2.270146,-2.575146 h -0.0025 c 0.292427,-0.5180303 0.447581,-0.9804659 0.447581,-1.3941992 0,-0.2419357 -0.05577,-0.4625695 -0.168619,-0.6515355 C 18.512152,7.5425303 17.843709,7.2989275 16.877611,7.2822708 15.967425,7.2660519 14.83776,7.5183689 13.538724,7.964183 13.2636,6.5792764 12.907093,5.4657804 12.430927,4.6910059 11.93891,3.8904337 11.406296,3.446827 10.820996,3.446827 a 0.15871531,0.15871531 0 0 0 -0.01612,0 z m 0.01612,0.9373179 c 0.150341,0 0.307715,0.067598 0.482918,0.2318503 0.175202,0.1642516 0.359966,0.4245219 0.545528,0.7798595 0.346282,0.6549206 0.623917,1.637559 0.838751,2.8683679 C 12.063219,8.5044145 11.441451,8.7755104 10.823482,9.0818019 10.1896,8.7745053 9.5580522,8.5050791 8.9302472,8.2641277 9.1450812,7.0333188 9.4227172,6.0506804 9.7689982,5.3957598 9.9543492,5.040836 10.140769,4.7800283 10.319487,4.6159003 10.498204,4.4517709 10.66064,4.38405 10.821003,4.38405 Z M 4.7637673,8.1296051 c 0.0911,-0.00115 0.1872412,6.346e-4 0.2888825,0.00565 0.7474087,0.037804 1.7184191,0.2872155 2.8559695,0.7048491 C 7.8091824,9.5057349 7.7347419,10.1847 7.6885481,10.876545 7.1087668,11.268017 6.5593987,11.671897 6.038942,12.090331 5.1011119,11.31416 4.3963857,10.596689 3.988867,9.9627665 a 0.15871531,0.15871531 0 0 0 0,-0.00253 C 3.7681673,9.6213132 3.6336709,9.3292372 3.580961,9.0911211 3.5282498,8.8530027 3.5516668,8.6760009 3.6373786,8.5331928 a 0.15871531,0.15871531 0 0 0 0.00252,-0.00253 c 0.077723,-0.1367995 0.2165721,-0.2425416 0.4500609,-0.3136849 0.1751178,-0.053358 0.4005682,-0.083788 0.673853,-0.0874 z m 12.1033117,0 c 0.27339,0.00358 0.499447,0.033915 0.676332,0.0874 0.234475,0.070887 0.376969,0.1768772 0.458741,0.313679 0.08224,0.1423488 0.106741,0.319181 0.05208,0.5579284 -0.05467,0.2387484 -0.192044,0.5324907 -0.412866,0.8716061 a 0.15871531,0.15871531 0 0 0 0,0.00253 c -0.407388,0.6412594 -1.116485,1.3628534 -2.061855,2.1393474 -0.520806,-0.418729 -1.06877,-0.824565 -1.648986,-1.216282 -0.04645,-0.698312 -0.126237,-1.3800514 -0.23247,-2.0457355 1.137528,-0.4174882 2.114328,-0.6667861 2.877667,-0.7048491 h 0.002 c 0.10164,-0.00496 0.198374,-0.00669 0.289502,-0.00565 z m -4.035678,1.0433264 c 0.04584,0.3539495 0.08088,0.7148688 0.112198,1.0798995 -0.175573,-0.108229 -0.351341,-0.216193 -0.526931,-0.327937 a 0.15871531,0.15871531 0 0 0 -0.0069,-0.00427 C 12.214625,9.8121648 12.028243,9.7125709 11.840155,9.6112854 12.174114,9.458371 12.504862,9.3113246 12.831407,9.1730008 Z m -4.0418758,0.00935 c 0.326574,0.1336185 0.657179,0.2795376 0.991253,0.4314618 -0.186048,0.1011782 -0.370227,0.2010224 -0.559789,0.3093389 a 0.15871531,0.15871531 0 0 0 -0.0049,0.00196 c -0.182855,0.1129498 -0.361907,0.2210548 -0.541185,0.3304198 0.03138,-0.364238 0.06877,-0.7236537 0.114684,-1.0730809 z m 2.0060608,0.9373175 c 0.380181,0.198616 0.760401,0.400801 1.140652,0.613721 0.371731,0.21239 0.734257,0.434199 1.091678,0.660834 0.02131,0.42509 0.03285,0.856072 0.03285,1.295632 0,0.432446 -0.01154,0.86114 -0.03285,1.286333 -0.349844,0.226046 -0.713033,0.446287 -1.091678,0.658356 a 0.15871531,0.15871531 0 0 0 -0.0025,0.0025 c -0.371354,0.219764 -0.744002,0.424638 -1.115216,0.623009 -0.383491,-0.197657 -0.757492,-0.404235 -1.1195748,-0.62302 a 0.15871531,0.15871531 0 0 0 -0.0074,-0.0025 c -0.386186,-0.212008 -0.751044,-0.432481 -1.1010585,-0.658357 -0.014251,-0.425344 -0.021077,-0.853753 -0.021077,-1.286334 0,-0.43968 0.00695,-0.870323 0.021076,-1.295631 0.3576325,-0.22649 0.7242425,-0.448455 1.1034555,-0.660834 a 0.15871531,0.15871531 0 0 0 0.0025,0 c 0.3630898,-0.211751 0.7289838,-0.416062 1.0991248,-0.613701 z m 0.02542,1.485328 c -0.188874,0 -0.3708,0.04999 -0.538711,0.143202 -0.171397,0.08681 -0.3084208,0.221062 -0.4029468,0.391169 -0.09393,0.16904 -0.143202,0.354836 -0.143202,0.550488 0,0.188829 0.04989,0.373214 0.143202,0.541191 a 0.15871531,0.15871531 0 0 0 0.0025,0.0025 c 0.09539,0.162205 0.2318638,0.293164 0.4004678,0.38683 0.167961,0.09331 0.349881,0.142581 0.538712,0.142581 0.182147,0 0.360733,-0.04998 0.52755,-0.142581 0.168607,-0.09366 0.305067,-0.224631 0.400468,-0.38683 a 0.15871531,0.15871531 0 0 0 0.0025,-0.0025 c 0.0933,-0.167972 0.142582,-0.352359 0.142582,-0.541191 0,-0.195699 -0.04866,-0.381459 -0.142582,-0.550488 -0.09453,-0.170196 -0.231581,-0.304361 -0.402947,-0.391169 -0.166866,-0.09271 -0.345443,-0.143202 -0.527551,-0.143202 z m -3.1839118,0.440762 c -0.00372,0.214088 -0.00744,0.42643 -0.00744,0.644097 0,0.211732 0.00372,0.42303 0.00744,0.634798 -0.3033437,-0.208533 -0.599767,-0.419111 -0.8809054,-0.634798 0.2813243,-0.220605 0.5773205,-0.434325 0.8809054,-0.644097 z m 6.3467368,0 c 0.305228,0.210184 0.604168,0.422996 0.890825,0.644097 -0.286462,0.216167 -0.585836,0.425848 -0.890825,0.634798 0.0071,-0.211604 0.01673,-0.42321 0.01673,-0.634798 0,-0.217475 -0.0095,-0.430149 -0.01673,-0.644097 z M 6.0296423,13.2781 c 0.5275631,0.418627 1.0784643,0.823966 1.6589043,1.215663 0.046328,0.690981 0.1207678,1.369074 0.2200723,2.033955 -1.160654,0.425172 -2.144836,0.675309 -2.8913055,0.705469 C 4.61878,17.248937 4.3031245,17.217547 4.0731758,17.146397 3.8432258,17.075227 3.7056835,16.970535 3.6280732,16.837059 3.5506142,16.70381 3.5280247,16.531303 3.5809642,16.295868 3.6338912,16.060432 3.7639564,15.76801 3.9770937,15.4286 a 0.15871531,0.15871531 0 0 0 0.00252,-0.002 c 0.3832817,-0.631258 1.0899612,-1.357034 2.0500742,-2.148612 z m 9.5591617,0 c 0.96081,0.791844 1.672955,1.518278 2.064332,2.150501 a 0.15871531,0.15871531 0 0 0 0,0.0025 c 0.216985,0.339287 0.350189,0.630109 0.402948,0.864788 0.05275,0.234678 0.02916,0.40539 -0.05146,0.53871 a 0.15871531,0.15871531 0 0 0 0,0.0025 c -0.07762,0.13351 -0.217644,0.238174 -0.447582,0.309341 -0.229941,0.07116 -0.545612,0.102586 -0.944138,0.08679 -0.746585,-0.0301 -1.734583,-0.280105 -2.903084,-0.70547 0.09934,-0.664867 0.1745,-1.342932 0.220691,-2.033956 0.580438,-0.391713 1.13072,-0.797047 1.658285,-1.215663 z m -6.9139598,1.83434 c 0.179297,0.11221 0.356256,0.226872 0.546149,0.335376 0.183963,0.108171 0.37225,0.208311 0.559787,0.30934 -0.334633,0.153247 -0.66654,0.299067 -0.993731,0.437665 -0.04593,-0.354709 -0.08083,-0.716546 -0.112201,-1.082381 z m 4.2687668,0.0025 c -0.03133,0.365031 -0.06636,0.72595 -0.11221,1.079899 -0.326544,-0.138319 -0.657293,-0.284745 -0.991251,-0.437662 0.188098,-0.101294 0.374478,-0.200883 0.569706,-0.30934 a 0.15871531,0.15871531 0 0 0 0.002,-0.0025 c 0.182513,-0.107351 0.356337,-0.219479 0.531892,-0.330417 z m -2.148023,1.171648 c 0.628416,0.308237 1.259678,0.581275 1.895095,0.829452 -0.207335,1.202298 -0.481959,2.171875 -0.829453,2.844192 a 0.15871531,0.15871531 0 0 0 0,0.0025 c -0.181416,0.358889 -0.367022,0.621577 -0.543669,0.787298 -0.176647,0.165722 -0.336712,0.23433 -0.496555,0.23433 -0.164814,0 -0.330249,-0.07084 -0.510814,-0.23681 -0.180567,-0.165946 -0.3676438,-0.428443 -0.5529688,-0.78727 -0.347492,-0.672316 -0.622117,-1.641893 -0.829453,-2.84419 0.625889,-0.247397 1.2488838,-0.522441 1.8678178,-0.829454 z"
         id="text5407" />
      <path
         inkscape:connector-curvature="0"
         id="path5369"
         d="m 0.72760492,18.520836 v 4.167188 c 0,1.539081 1.23904398,2.778124 2.77812498,2.778124 H 22.952604 c 1.539081,0 2.778125,-1.239043 2.778125,-2.778124 v -4.167188 z"
         style="opacity:1;fill:#222222;fill-opacity:1;fill-rule:nonzero;stroke:none;stroke-width:0.24999997;stroke-linecap:butt;stroke-linejoin:round;stroke-miterlimit:4;stroke-dasharray:none;stroke-dashoffset:0;stroke-opacity:0.90944878;paint-order:normal" />
      <g
         id="text5373"
         style="font-style:normal;font-variant:normal;font-weight:500;font-stretch:normal;font-size:4.23333311px;line-height:4.23333311px;font-family:Montserrat;-inkscape-font-specification:'Montserrat Medium';text-align:center;letter-spacing:-0.26458332px;text-anchor:middle;opacity:1;fill:#eeeeee;fill-opacity:1;fill-rule:nonzero;stroke:none;stroke-width:0.25;stroke-linecap:butt;stroke-linejoin:round;stroke-miterlimit:4;stroke-dasharray:none;stroke-dashoffset:0;stroke-opacity:0.90944878;paint-order:normal"
         aria-label="PROGRESS">
        <path
           id="path4608"
           style="font-style:normal;font-variant:normal;font-weight:500;font-stretch:normal;font-size:4.23333311px;font-family:Montserrat;-inkscape-font-specification:'Montserrat Medium';letter-spacing:-0.26458332px;fill:#eeeeee;fill-opacity:1;stroke-width:0.25"
           d="m 3.760524,20.325294 q 0.5587999,0 0.8635999,0.2667 0.3090333,0.2667 0.3090333,0.753534 0,0.508 -0.3090333,0.791633 -0.3048,0.2794 -0.8635999,0.2794 h -0.6477 v 0.872067 H 2.5455574 v -2.963334 z m -0.029633,1.591734 q 0.3217333,0 0.4910667,-0.1397 0.1735666,-0.1397 0.1735666,-0.414867 0,-0.270933 -0.1735666,-0.4064 Q 4.0526239,20.820594 3.7308906,20.820594 H 3.112824 v 1.096434 z"
           inkscape:connector-curvature="0" />
        <path
           id="path4610"
           style="font-style:normal;font-variant:normal;font-weight:500;font-stretch:normal;font-size:4.23333311px;font-family:Montserrat;-inkscape-font-specification:'Montserrat Medium';letter-spacing:-0.26458332px;fill:#eeeeee;fill-opacity:1;stroke-width:0.25"
           d="m 6.9959811,23.288628 -0.5122333,-0.8763 q -0.033867,0.0042 -0.1058333,0.0042 H 5.7090478 v 0.872067 H 5.1417812 v -2.963334 h 1.2361333 q 0.5757333,0 0.8889999,0.2667 0.3132667,0.2667 0.3132667,0.753534 0,0.347133 -0.1524,0.592666 -0.1481667,0.245534 -0.4360333,0.3683 l 0.6519333,0.982134 z m -1.2869333,-1.3716 h 0.6688667 q 0.3217333,0 0.4910666,-0.1397 0.1693333,-0.1397 0.1693333,-0.414867 0,-0.270933 -0.1693333,-0.4064 Q 6.6996478,20.820594 6.3779145,20.820594 H 5.7090478 Z"
           inkscape:connector-curvature="0" />
        <path
           id="path4612"
           style="font-style:normal;font-variant:normal;font-weight:500;font-stretch:normal;font-size:4.23333311px;font-family:Montserrat;-inkscape-font-specification:'Montserrat Medium';letter-spacing:-0.26458332px;fill:#eeeeee;fill-opacity:1;stroke-width:0.25"
           d="m 9.2826426,20.287194 q 0.4402667,0 0.8001004,0.198967 0.364066,0.198967 0.5715,0.5461 0.207433,0.347133 0.207433,0.770467 0,0.423333 -0.207433,0.7747 -0.207434,0.347133 -0.5715,0.550333 -0.3598337,0.2032 -0.8001004,0.2032 -0.4402666,0 -0.8043333,-0.2032 -0.3598333,-0.2032 -0.5672666,-0.550333 -0.2074333,-0.351367 -0.2074333,-0.7747 0,-0.423334 0.2074333,-0.770467 0.2074333,-0.347133 0.5672666,-0.5461 0.3640667,-0.198967 0.8043333,-0.198967 z m 0.00847,0.508 q -0.2709333,0 -0.5037666,0.135467 -0.2328334,0.131233 -0.3683,0.364067 -0.1354667,0.2286 -0.1354667,0.508 0,0.2794 0.1354667,0.512233 0.1397,0.232833 0.3683,0.3683 0.2328333,0.135467 0.5037666,0.135467 0.2667,0 0.4953,-0.135467 0.2285994,-0.135467 0.3598334,-0.3683 0.135466,-0.232833 0.135466,-0.512233 0,-0.2794 -0.135466,-0.508 -0.131234,-0.232834 -0.3598334,-0.364067 -0.2286,-0.135467 -0.4953,-0.135467 z"
           inkscape:connector-curvature="0" />
        <path
           id="path4614"
           style="font-style:normal;font-variant:normal;font-weight:500;font-stretch:normal;font-size:4.23333311px;font-family:Montserrat;-inkscape-font-specification:'Montserrat Medium';letter-spacing:-0.26458332px;fill:#eeeeee;fill-opacity:1;stroke-width:0.25"
           d="m 13.00652,21.815428 h 0.4953 v 1.126066 q -0.232833,0.173567 -0.550333,0.283634 -0.3175,0.105833 -0.6223,0.105833 -0.436034,0 -0.795867,-0.2032 -0.3556,-0.2032 -0.563033,-0.550333 -0.207433,-0.351367 -0.207433,-0.7747 0,-0.423334 0.211666,-0.766234 0.211667,-0.347133 0.575734,-0.5461 0.368299,-0.2032 0.812799,-0.2032 0.3175,0 0.626534,0.1143 0.309033,0.1143 0.5334,0.313267 l -0.321734,0.4191 q -0.169333,-0.160867 -0.3937,-0.249767 -0.220133,-0.0889 -0.4445,-0.0889 -0.2794,0 -0.516466,0.135467 -0.232834,0.131233 -0.3683,0.364067 -0.135467,0.232833 -0.135467,0.508 0,0.2794 0.135467,0.512233 0.1397,0.232833 0.372533,0.3683 0.232833,0.135467 0.516467,0.135467 0.1524,0 0.3175,-0.04657 0.169333,-0.0508 0.321733,-0.1397 z"
           inkscape:connector-curvature="0" />
        <path
           id="path4616"
           style="font-style:normal;font-variant:normal;font-weight:500;font-stretch:normal;font-size:4.23333311px;font-family:Montserrat;-inkscape-font-specification:'Montserrat Medium';letter-spacing:-0.26458332px;fill:#eeeeee;fill-opacity:1;stroke-width:0.25"
           d="m 15.743768,23.288628 -0.512234,-0.8763 q -0.03387,0.0042 -0.105833,0.0042 h -0.668867 v 0.872067 h -0.567266 v -2.963334 h 1.236133 q 0.575733,0 0.889,0.2667 0.313267,0.2667 0.313267,0.753534 0,0.347133 -0.1524,0.592666 -0.148167,0.245534 -0.436034,0.3683 l 0.651934,0.982134 z m -1.286934,-1.3716 h 0.668867 q 0.321733,0 0.491067,-0.1397 0.169333,-0.1397 0.169333,-0.414867 0,-0.270933 -0.169333,-0.4064 -0.169334,-0.135467 -0.491067,-0.135467 h -0.668867 z"
           inkscape:connector-curvature="0" />
        <path
           id="path4618"
           style="font-style:normal;font-variant:normal;font-weight:500;font-stretch:normal;font-size:4.23333311px;font-family:Montserrat;-inkscape-font-specification:'Montserrat Medium';letter-spacing:-0.26458332px;fill:#eeeeee;fill-opacity:1;stroke-width:0.25"
           d="m 16.684228,20.325294 h 2.1717 v 0.4953 h -1.604433 v 0.732367 h 1.439333 v 0.4953 h -1.439333 v 0.745067 h 1.655233 v 0.4953 h -2.2225 z"
           inkscape:connector-curvature="0" />
        <path
           id="path4620"
           style="font-style:normal;font-variant:normal;font-weight:500;font-stretch:normal;font-size:4.23333311px;font-family:Montserrat;-inkscape-font-specification:'Montserrat Medium';letter-spacing:-0.26458332px;fill:#eeeeee;fill-opacity:1;stroke-width:0.25"
           d="m 21.076973,21.087294 q -0.2286,-0.1397 -0.4699,-0.2159 -0.237067,-0.0762 -0.4191,-0.0762 -0.2032,0 -0.321733,0.0762 -0.118534,0.0762 -0.118534,0.211667 0,0.122767 0.08043,0.207433 0.08467,0.08043 0.207433,0.135467 0.127,0.0508 0.3429,0.1143 0.300566,0.0889 0.491066,0.1778 0.194734,0.0889 0.3302,0.262467 0.135467,0.173566 0.135467,0.4572 0,0.270933 -0.148167,0.474133 -0.143933,0.198967 -0.402166,0.3048 -0.254,0.105833 -0.5842,0.105833 -0.347133,0 -0.677333,-0.127 -0.3302,-0.131233 -0.575734,-0.347133 l 0.237067,-0.4826 q 0.224367,0.207433 0.503767,0.325967 0.2794,0.118533 0.520699,0.118533 0.237067,0 0.372534,-0.0889 0.135466,-0.09313 0.135466,-0.249767 0,-0.127 -0.08467,-0.207433 -0.08043,-0.08467 -0.207434,-0.135467 -0.127,-0.0508 -0.347133,-0.1143 -0.300566,-0.0889 -0.491066,-0.173566 -0.1905,-0.08467 -0.325967,-0.254 -0.135467,-0.173567 -0.135467,-0.452967 0,-0.258233 0.135467,-0.448733 0.1397,-0.194734 0.389467,-0.300567 0.254,-0.105833 0.584199,-0.105833 0.287867,0 0.567267,0.08467 0.283633,0.08467 0.503767,0.2286 z"
           inkscape:connector-curvature="0" />
        <path
           id="path4622"
           style="font-style:normal;font-variant:normal;font-weight:500;font-stretch:normal;font-size:4.23333311px;font-family:Montserrat;-inkscape-font-specification:'Montserrat Medium';letter-spacing:-0.26458332px;fill:#eeeeee;fill-opacity:1;stroke-width:0.25"
           d="m 23.47476,21.087294 q -0.2286,-0.1397 -0.4699,-0.2159 -0.237067,-0.0762 -0.4191,-0.0762 -0.2032,0 -0.321733,0.0762 -0.118534,0.0762 -0.118534,0.211667 0,0.122767 0.08043,0.207433 0.08467,0.08043 0.207433,0.135467 0.127,0.0508 0.3429,0.1143 0.300567,0.0889 0.491067,0.1778 0.194733,0.0889 0.3302,0.262467 0.135466,0.173566 0.135466,0.4572 0,0.270933 -0.148166,0.474133 -0.143934,0.198967 -0.402167,0.3048 -0.254,0.105833 -0.5842,0.105833 -0.347133,0 -0.677333,-0.127 -0.3302,-0.131233 -0.575734,-0.347133 l 0.237067,-0.4826 q 0.224367,0.207433 0.503767,0.325967 0.2794,0.118533 0.5207,0.118533 0.237066,0 0.372533,-0.0889 0.135467,-0.09313 0.135467,-0.249767 0,-0.127 -0.08467,-0.207433 -0.08043,-0.08467 -0.207433,-0.135467 -0.127,-0.0508 -0.347134,-0.1143 -0.300566,-0.0889 -0.491066,-0.173566 -0.1905,-0.08467 -0.325967,-0.254 -0.135467,-0.173567 -0.135467,-0.452967 0,-0.258233 0.135467,-0.448733 0.1397,-0.194734 0.389467,-0.300567 0.254,-0.105833 0.5842,-0.105833 0.287866,0 0.567266,0.08467 0.283634,0.08467 0.503767,0.2286 z"
           inkscape:connector-curvature="0" />
      </g>
    </g>
    <text
       xml:space="preserve"
       style="font-style:normal;font-variant:normal;font-weight:500;font-stretch:normal;font-size:8.46666622px;line-height:4.23333311px;font-family:Montserrat;-inkscape-font-specification:'Montserrat Medium';text-align:center;text-anchor:middle;opacity:1;fill:#eeeeee;fill-opacity:1;fill-rule:nonzero;stroke:none;stroke-width:4.23333311;stroke-linecap:butt;stroke-linejoin:round;stroke-miterlimit:4;stroke-dasharray:none;stroke-dashoffset:0;stroke-opacity:1;paint-order:stroke fill markers"
       x="-355.53735"
       y="24.113144"
       id="text4627-36-3"><tspan
         sodipodi:role="line"
         id="tspan4625-0-6"
         x="-355.53735"
         y="24.113144"
         style="font-style:normal;font-variant:normal;font-weight:500;font-stretch:normal;font-size:8.46666622px;font-family:Montserrat;-inkscape-font-specification:'Montserrat Medium';text-align:center;text-anchor:middle;fill:#eeeeee;fill-opacity:1;stroke-width:4.23333311">ORD</tspan></text>
  </g>
</svg>
