<?xml version="1.0" encoding="UTF-8" standalone="no"?>
<!-- Created with Inkscape (http://www.inkscape.org/) -->

<svg
   width="200"
   height="200"
   viewBox="0 0 52.916668 52.916666"
   version="1.1"
   id="svg8"
   inkscape:version="1.4 (86a8ad7, 2024-10-11)"
   sodipodi:docname="consumerism.svg"
   xmlns:inkscape="http://www.inkscape.org/namespaces/inkscape"
   xmlns:sodipodi="http://sodipodi.sourceforge.net/DTD/sodipodi-0.dtd"
   xmlns="http://www.w3.org/2000/svg"
   xmlns:svg="http://www.w3.org/2000/svg"
   xmlns:rdf="http://www.w3.org/1999/02/22-rdf-syntax-ns#"
   xmlns:cc="http://creativecommons.org/ns#"
   xmlns:dc="http://purl.org/dc/elements/1.1/">
  <defs
     id="defs2">
    <inkscape:path-effect
       effect="envelope"
       id="path-effect4658"
       is_visible="true"
       yy="true"
       xx="true"
       bendpath1="m -199.08406,108.42369 h 7.0057"
       bendpath2="m -192.07836,108.42369 v 6.75242"
       bendpath3="m -199.08406,115.17611 h 7.0057"
       bendpath4="m -199.08406,108.42369 v 6.75242" />
    <inkscape:path-effect
       effect="bend_path"
       id="path-effect4656"
       is_visible="true"
       bendpath="m -192.00142,114.60623 c 2.12577,-0.53066 4.48261,0.85111 7.0057,0"
       prop_scale="1"
       scale_y_rel="false"
       vertical="false"
       bendpath-nodetypes="cc" />
    <inkscape:path-effect
       effect="bounding_box"
       id="path-effect4654"
       is_visible="true"
       linkedpath=""
       visualbounds="false" />
    <symbol
       id="AigaSymbols.svg:BaggageLockers">
      <title
         id="title41">Baggage Lockers</title>
      <!-- key -->
      <path
         d="m 34.625,11 a 7.5,7.5 0 1 0 0,7 H 37 l 2.5,-2.5 2,2 2,-2 2,2 2,-2 2,2 L 52,15 c 0.5,-0.5 0.5,-1 0,-1.5 L 49.5,11 Z M 27,14.5 a 2,2 0 1 1 -4,0 2,2 0 1 1 4,0 z"
         style="stroke:none"
         id="path42" />
      <!-- locker -->
      <rect
         x="16.5"
         y="26.5"
         width="39"
         height="32"
         style="fill:#ffffff;stroke-width:5"
         id="rect42" />
      <!-- bag -->
      <path
         d="M 33.5,31.5 A 1.5,1.5 0 0 0 32,33 v 2.5 h -3 v 18 h 14.5 v -18 H 40 V 33 a 1.5,1.5 0 0 0 -1.5,-1.5 z m 0,1.5 h 5 v 2.5 h -5 z m -8,2.5 A 2.5,2.5 0 0 0 23,38 v 13 a 2.5,2.5 0 0 0 2.5,2.5 h 2 v -18 z m 19.5,0 v 18 h 1.5 A 2.5,2.5 0 0 0 49,51 V 38 a 2.5,2.5 0 0 0 -2.5,-2.5 z"
         style="stroke:none"
         id="path43" />
    </symbol>
    <symbol
       id="MapSymbolsNPS.svg:LitterReceptacle">
      <title
         id="title101">Litter Receptacle</title>
      <g
         id="TrashCan"
         style="stroke:none">
        <path
           d="M 29.5,66 34,41.5 h -3.5 l -4,21 h -9 L 14,41.5 h -3.5 l 4,24.5 z"
           id="path101" />
        <rect
           x="20"
           y="46"
           width="3.75"
           height="3.75"
           id="rect102" />
        <rect
           x="-14.49781"
           y="43.493431"
           width="3.7494338"
           height="3.7494338"
           transform="rotate(-45)"
           id="rect103"
           style="stroke-width:0.999849" />
        <rect
           x="-11.998188"
           y="36.994411"
           width="3.7494338"
           height="3.7494338"
           transform="rotate(-45)"
           id="rect104"
           style="stroke-width:0.999849" />
      </g>
      <path
         d="M 40,20.5 C 41,19 42.5,18 45,18 h 11 c 4,0 7,2.75 7,6 v 15 a 2,2 0 0 1 -4,0 V 24 h -2.5 v 39.25 a 2.75,2.75 0 0 1 -5.5,0 V 41 h -3 v 22.25 a 2.75,2.75 0 0 1 -5.5,0 V 24 l -5,7.25 C 37.125,31.75 36.5,32 36,32 h -8.5 a 2,2 0 0 1 0,-4 H 35 Z"
         style="stroke:none"
         id="path104" />
      <circle
         cx="49.5"
         cy="11.5"
         r="4.75"
         style="stroke:none"
         id="circle104" />
    </symbol>
    <symbol
       id="sjjb-amenity.svg:court"
       viewBox="0 0 522.36658 473.4661">
      <title
         id="title3">Court</title>
      <path
         d="m 260.78875,0.00301311 a 5.4151628,5.4151628 0 0 0 -5.19922,5.18554699 l -2.05078,54.2539129 c -28.90909,3.25004 -55.7159,11.07288 -78.80273,26.54687 l 0.0293,-0.0215 C 148.74184,102.91489 123.68227,112.15498 99.753613,112.29596 a 2.7075814,2.7075814 0 0 0 -0.19532,0.008 c -9.83831,0.7734 -23.88398,-2.64486 -37.029294,-8.07618 C 49.383685,98.796473 37.028957,91.341873 30.294624,84.774663 a 2.7075814,2.7075814 0 0 0 -4.078125,3.5332 C 38.638672,105.34514 55.074481,123.43578 86.530953,130.28052 L 6.700874,322.36841 H 5.413765 a 5.4151628,5.4151628 0 0 0 -5.353516,6.2207 c 5.492705,36.45028 44.889174,63.23828 91.425784,63.23828 46.536617,0 85.933077,-26.788 91.425777,-63.23828 a 5.4151628,5.4151628 0 0 0 -5.35547,-6.2207 h -1.22852 L 98.505563,132.2356 c 0.33005,0.0372 0.64949,0.0822 0.98242,0.11718 a 2.7075814,2.7075814 0 0 0 0.32617,0.0137 c 38.437197,-0.62048 57.812267,-12.12584 77.570317,-22.55469 25.6242,-9.51298 46.77047,-26.114537 75.2207,-25.671877 L 239.2165,438.41921 H 132.27118 a 5.4151628,5.4151628 0 0 0 -5.41406,5.41601 v 24.21485 a 5.4151628,5.4151628 0 0 0 5.41406,5.41601 h 126.54688 4.73047 126.54883 a 5.4151628,5.4151628 0 0 0 5.41406,-5.41601 v -24.21485 a 5.4151628,5.4151628 0 0 0 -5.41406,-5.41601 H 283.15009 L 269.76142,84.137963 c 28.4487,-0.44355 49.59326,16.158157 75.21484,25.671867 19.75988,10.42961 39.13748,21.9361 77.57813,22.55665 a 2.7075814,2.7075814 0 0 0 0.32617,-0.0137 c 0.33291,-0.035 0.65239,-0.08 0.98242,-0.11718 l -77.82227,190.13281 h -1.23046 a 5.4151628,5.4151628 0 0 0 -5.35352,6.2207 c 5.4927,36.45028 44.88916,63.23828 91.42578,63.23828 46.53661,0 85.93113,-26.788 91.42383,-63.23828 a 5.4151628,5.4151628 0 0 0 -5.35352,-6.2207 h -1.28515 L 435.83564,130.28052 c 31.45733,-6.84443 47.89204,-24.93504 60.31445,-41.972657 a 2.7075814,2.7075814 0 0 0 -4.07812,-3.5332 c -6.73434,6.56721 -19.08711,14.02181 -32.23243,19.453117 -13.14531,5.43132 -27.19098,8.84958 -37.02929,8.07618 a 2.7075814,2.7075814 0 0 0 -0.19727,-0.008 c -23.92866,-0.14098 -48.98824,-9.38107 -75.01172,-26.328117 -23.07915,-15.45948 -49.87605,-23.2767 -78.77148,-26.52539 L 266.779,5.1885401 a 5.4151628,5.4151628 0 0 0 -5.25391,-5.18554699 5.4151628,5.4151628 0 0 0 -0.24609,0.0059 5.4151628,5.4151628 0 0 0 -0.49024,-0.0059 z M 92.08367,145.13583 164.62469,322.36825 H 18.427417 l 73.65625,-177.23242 z m 338.19922,0 73.65821,177.23242 H 357.74188 Z"
         id="path3" />
    </symbol>
    <symbol
       id="AigaSymbols.svg:Cashier">
      <title
         id="title27">Cashier</title>
      <g
         style="fill:none;stroke-width:6"
         id="g28">
        <circle
           cx="36"
           cy="36"
           r="24"
           id="circle28" />
        <path
           d="m 45,30 c 0,-4 -4,-6 -9,-6 -5,0 -9,2 -9,6 0,4 4,5.5 9,6 5,0.5 10,1 10,6 0,5 -5,6 -10,6 -5,0 -9,-3 -9,-7 m 9,-24 v 38"
           id="path28" />
      </g>
    </symbol>
    <symbol
       id="sjjb-amenity.svg:firestation"
       viewBox="0 0 338.31653 553.83203">
      <title
         id="title4">Fire station</title>
      <path
         d="m 152.01603,0 c -37.22584,151.15831 30.73892,149.83168 68.4375,238.67188 C 246.89612,101.68359 167.79098,132.50454 152.01603,0 Z M 114.63321,99.494148 C 91.205297,185.32102 123.79758,226.47356 121.53556,289.28126 88.730667,231.20307 56.202397,179.7808 24.916417,158.15626 c 25.79108,51.97809 -7.86136,114.40046 -19.41016,164.98046 -16.4627,72.10121 5.8324,120.34358 42.41406,140.97657 -0.55356,-35.13325 10.9929,-66.18415 17.83008,-73.61328 9.01264,63.48876 19.33359,102.39652 69.587893,140.32617 5.06853,-79.96596 30.20227,-59.26818 39.10742,-158.73047 36.67983,60.57819 29.55919,121.15815 11.50196,181.73633 32.30895,-28.8767 68.07701,-52.68648 112.7207,-181.73633 l -9.20117,96.61914 C 317.90054,399.18051 399.02845,330.12416 256.68595,135.72657 270.82122,248.47951 241.85478,263.42495 227.93009,308.83399 195.19301,212.25401 130.7087,205.67293 114.63321,99.494148 Z"
         id="path4" />
    </symbol>
    <symbol
       id="sjjb-food.svg:fastfood"
       viewBox="0 0 469.95761 412.9675">
      <title
         id="title8">Fast food</title>
      <path
         d="M 451.74373,0 420.60444,109.85696 H 262.00383 l 38.18462,303.11055 H 429.99822 L 468.77443,109.85696 H 439.40992 L 469.95761,5.28849 451.74373,2e-6 Z M 243.19836,286.67146 C 246.32933,259.25515 225.5758,244.37573 180.93772,242.0331 H 73.4292 C 28.790769,244.37573 7.840039,259.25515 10.576966,286.67146 H 243.19837 Z m -232.62139,82.2493 c -2.736927,27.40448 18.213803,42.08672 62.85223,44.04675 h 107.50852 c 44.63808,-1.96003 65.39161,-16.64227 62.26064,-44.04675 z M 233.21299,307.82538 H 19.97073 c -5.473779,9e-5 -10.170663,1.95712 -14.090651,5.8711 C 1.959972,317.61063 -4.4e-5,322.11331 0,327.20452 c -4.3999259e-5,5.88013 1.959972,10.6786 5.880078,14.39541 3.919988,3.71693 8.616872,5.57536 14.090651,5.57532 H 233.21299 c 5.4854,4e-5 10.18526,-1.85839 14.09963,-5.57532 3.91377,-3.71681 5.87081,-8.51528 5.8711,-14.39541 -2.9e-4,-5.09121 -1.95733,-9.59389 -5.8711,-13.50804 -3.91437,-3.91398 -8.61423,-5.87101 -14.09963,-5.8711 z"
         id="path9" />
    </symbol>
  </defs>
  <sodipodi:namedview
     id="base"
     pagecolor="#ffffff"
     bordercolor="#666666"
     borderopacity="1.0"
     inkscape:pageopacity="0.0"
     inkscape:pageshadow="2"
     inkscape:zoom="2.49"
     inkscape:cx="93.574297"
     inkscape:cy="100.2008"
     inkscape:document-units="px"
     inkscape:current-layer="g5175"
     showgrid="false"
     fit-margin-top="0"
     fit-margin-left="0"
     fit-margin-right="0"
     fit-margin-bottom="0"
     inkscape:window-width="1600"
     inkscape:window-height="847"
     inkscape:window-x="-8"
     inkscape:window-y="22"
     inkscape:window-maximized="1"
     showguides="false"
     inkscape:object-nodes="true"
     units="px"
     inkscape:snap-page="true"
     inkscape:showpageshadow="2"
     inkscape:pagecheckerboard="0"
     inkscape:deskcolor="#d1d1d1" />
  <metadata
     id="metadata5">
    <rdf:RDF>
      <cc:Work
         rdf:about="">
        <dc:format>image/svg+xml</dc:format>
        <dc:type
           rdf:resource="http://purl.org/dc/dcmitype/StillImage" />
      </cc:Work>
    </rdf:RDF>
  </metadata>
  <g
     inkscape:label="Layer 1"
     inkscape:groupmode="layer"
     id="layer1"
     transform="translate(98.048812,-95.14345)">
    <g
       style="stroke-width:0.5"
       transform="matrix(2,0,0,2,-98.048812,95.143449)"
       id="g5175">
      <rect
         y="-1.110223e-16"
         x="0"
         height="26.458334"
         width="26.458334"
         id="rect5163"
         style="opacity:1;fill:#222222;fill-opacity:1;fill-rule:nonzero;stroke:none;stroke-width:0.25;stroke-linecap:butt;stroke-linejoin:round;stroke-miterlimit:4;stroke-dasharray:none;stroke-dashoffset:0;stroke-opacity:0.90944878;paint-order:normal"
         rx="1.984375"
         ry="1.984375" />
      <rect
         style="display:inline;opacity:1;fill:#aa0000;fill-opacity:1;fill-rule:nonzero;stroke:none;stroke-width:0.25;stroke-linecap:butt;stroke-linejoin:round;stroke-miterlimit:4;stroke-dasharray:none;stroke-dashoffset:0;stroke-opacity:0.909449;paint-order:normal"
         id="rect5165"
         width="23.8125"
         height="23.8125"
         x="1.2166586"
         y="1.322917"
         rx="1.3229166"
         ry="1.3229166" />
      <path
         style="display:inline;opacity:1;fill:#222222;fill-opacity:1;fill-rule:nonzero;stroke:none;stroke-width:0.256624;stroke-linecap:butt;stroke-linejoin:round;stroke-miterlimit:4;stroke-dasharray:none;stroke-dashoffset:0;stroke-opacity:0.909449;paint-order:normal"
         d="m 0.35570063,18.520836 v 4.326576 c 0,1.597948 1.25747387,2.884382 2.81944767,2.884382 H 22.911281 c 1.561974,0 2.819448,-1.286434 2.819448,-2.884382 v -4.326576 z"
         id="rect5205-3-6"
         inkscape:connector-curvature="0" />
      <text
         xml:space="preserve"
         style="font-style:normal;font-variant:normal;font-weight:bold;font-stretch:normal;font-size:3.88055558px;font-family:'Times New Roman';-inkscape-font-specification:'Times New Roman,  Bold';text-align:center;writing-mode:lr-tb;direction:ltr;text-anchor:middle;mix-blend-mode:normal;fill:#ffffff;fill-opacity:1;stroke-width:0.0450184"
         x="16.830542"
         y="18.001419"
         id="text12"
         transform="scale(0.77887171,1.2839085)"><tspan
           sodipodi:role="line"
           id="tspan12"
           style="font-style:normal;font-variant:normal;font-weight:bold;font-stretch:normal;font-family:'Times New Roman';-inkscape-font-specification:'Times New Roman,  Bold';text-align:center;text-anchor:middle;fill:#ffffff;stroke-width:0.0450184;font-size:3.88055558px"
           x="16.830542"
           y="18.001419">CONSUMERISM</tspan></text>
      <path
         style="fill:#222222;fill-opacity:1;stroke-width:0.200803"
         d=""
         id="path18"
         transform="scale(0.13229167)" />
      <path
         style="fill:#222222;fill-opacity:1;stroke-width:0.200803"
         d="M 92.971888,134.49314 C 78.393247,132.35727 66.338869,126.21186 56.54918,115.92457 48.908122,107.89513 43.738639,97.918759 41.3261,86.546185 40.025864,80.416948 40.00749,70.106169 41.285476,63.749859 44.999698,45.276454 56.338329,30.255555 72.972182,21.772761 94.898056,10.591185 120.6987,13.874226 139.59725,30.250569 c 9.60187,8.320398 16.47711,20.367901 19.11728,33.49929 1.27798,6.35631 1.25961,16.667089 -0.0406,22.796326 -4.43733,20.917295 -18.8868,37.679655 -38.59358,44.771135 -6.40854,2.30611 -10.86547,3.07428 -18.6747,3.21867 -3.975901,0.0735 -7.771082,0.0542 -8.433732,-0.0428 z m 13.857092,-13.18573 c 10.06774,-1.51771 19.02353,-6.00586 26.0978,-13.07878 18.0299,-18.026465 18.59387,-46.605032 1.28431,-65.081031 -1.8365,-1.960266 -4.54735,-4.482622 -6.02409,-5.605236 -3.75182,-2.852112 -11.50029,-6.598074 -16.33961,-7.899303 -3.7111,-0.997865 -4.61075,-1.079866 -11.84739,-1.079866 -7.236639,0 -8.136293,0.082 -11.84739,1.079866 -4.839317,1.301229 -12.587792,5.047191 -16.339608,7.899303 -3.785973,2.878078 -8.990047,8.571931 -11.484094,12.564914 -16.550974,26.498197 -3.124937,61.279743 27.02049,69.999383 5.982843,1.73055 13.068022,2.1673 19.479582,1.20075 z"
         id="path1"
         transform="scale(0.13229167)" />
      <path
         style="fill:#222222;fill-opacity:1;stroke-width:0.200803"
         d="m 93.574297,112.31484 v -4.75343 l -2.442566,-0.6791 c -8.824467,-2.45342 -15.757579,-9.326808 -17.227833,-17.079426 -0.75376,-3.974563 -1.272481,-3.658306 6.000301,-3.658306 h 6.410223 l 0.433986,1.611699 c 0.238692,0.886434 0.996619,2.252502 1.684282,3.035707 1.170365,1.332972 3.783499,2.983116 4.724002,2.983116 0.272062,0 0.416545,-2.274469 0.414563,-6.526104 l -0.003,-6.526104 -3.310211,-0.90827 c -9.6635,-2.65151 -15.159062,-7.845897 -16.483958,-15.580585 -0.902375,-5.268032 1.144389,-11.252212 5.220707,-15.263919 2.688326,-2.645716 7.359661,-5.074996 11.552688,-6.007855 l 3.026858,-0.673412 V 37.71069 33.13253 H 100 h 6.4257 v 4.57816 4.578161 l 2.92903,0.651645 c 9.40704,2.092869 15.89468,8.453253 16.98186,16.648746 l 0.27291,2.057344 h -6.4463 -6.44629 L 113.2725,60.30002 c -0.24442,-0.740611 -0.84579,-1.72337 -1.33636,-2.183908 -0.93357,-0.876398 -4.14492,-2.46963 -5.00843,-2.484802 -0.38216,-0.0067 -0.50201,1.612138 -0.50201,6.780803 v 6.789624 l 2.10844,0.285439 c 3.45931,0.46832 8.76998,2.156557 11.4001,3.624037 3.14309,1.753695 6.24588,5.13702 7.44218,8.115028 0.79487,1.978691 0.9278,3.025269 0.93197,7.33708 0.005,4.898225 -0.0302,5.100366 -1.34108,7.762522 -2.8379,5.763207 -8.12744,9.309487 -16.1952,10.857777 l -4.34641,0.83413 v 4.52526 4.52526 H 100 93.574297 Z M 110.84974,93.936807 c 1.31414,-0.390257 2.67965,-1.160976 3.48655,-1.967871 1.1584,-1.158402 1.32636,-1.589085 1.32636,-3.40096 0,-2.530952 -0.43912,-3.419217 -2.12034,-4.289028 -1.511,-0.781751 -4.91471,-1.737213 -6.21299,-1.74406 -0.89714,-0.0047 -0.90362,0.03844 -0.90362,6.019329 v 6.024096 h 1.13193 c 0.62256,0 2.10401,-0.288678 3.29211,-0.641506 z M 93.574297,61.445783 c 0,-4.392989 -0.123302,-5.82233 -0.502008,-5.81937 -0.276104,0.0022 -1.419875,0.431322 -2.541712,0.953698 -3.398956,1.5827 -4.761431,4.114754 -3.648012,6.779542 0.45382,1.086143 1.139362,1.672818 3.098967,2.652045 1.38393,0.691558 2.758456,1.257378 3.054501,1.257378 0.4252,0 0.538264,-1.2232 0.538264,-5.823293 z"
         id="path2"
         transform="scale(0.13229167)" />
    </g>
    <g
       style="stroke-width:0.5"
       id="g5375"
       transform="matrix(2,0,0,2,298.8262,161.81845)">
      <rect
         ry="1.984375"
         rx="1.984375"
         style="opacity:1;fill:#222222;fill-opacity:1;fill-rule:nonzero;stroke:none;stroke-width:0.25;stroke-linecap:butt;stroke-linejoin:round;stroke-miterlimit:4;stroke-dasharray:none;stroke-dashoffset:0;stroke-opacity:0.90944878;paint-order:normal"
         id="rect5363"
         width="26.458334"
         height="26.458334"
         x="0"
         y="-1.110223e-16" />
      <rect
         ry="1.3229166"
         rx="1.3229166"
         y="1.322917"
         x="1.322917"
         height="23.8125"
         width="23.8125"
         id="rect5365"
         style="opacity:1;fill:#9c27b0;fill-opacity:1;fill-rule:nonzero;stroke:none;stroke-width:0.25;stroke-linecap:butt;stroke-linejoin:round;stroke-miterlimit:4;stroke-dasharray:none;stroke-dashoffset:0;stroke-opacity:0.90944878;paint-order:normal" />
      <path
         inkscape:connector-curvature="0"
         style="font-style:normal;font-variant:normal;font-weight:bold;font-stretch:normal;font-size:4.23333311px;line-height:4.23333311px;font-family:Montserrat;-inkscape-font-specification:'Montserrat Bold';text-align:center;text-anchor:middle;opacity:1;fill:#222222;fill-opacity:1;fill-rule:nonzero;stroke:none;stroke-width:0.24999999;stroke-linecap:butt;stroke-linejoin:round;stroke-miterlimit:4;stroke-dasharray:none;stroke-dashoffset:0;stroke-opacity:0.90944878;paint-order:normal"
         d="m 10.804879,3.4467321 a 0.15871531,0.15871531 0 0 0 -0.136382,0.1146841 0.15871531,0.15871531 0 0 0 0,0.00252 C 10.140525,3.6384432 9.6416792,3.965285 9.1881282,4.6909495 8.7115532,5.4663873 8.3524323,6.579977 8.0772328,7.9666052 6.7809381,7.5183239 5.6533861,7.2662043 4.7408247,7.2822132 3.7816738,7.2991518 3.1147858,7.5444251 2.8147338,8.0695121 a 0.15871531,0.15871531 0 0 0 0,0.00253 C 2.7114104,8.2598824 2.6603742,8.4734102 2.6603742,8.7068424 c 0,0.4210159 0.1552856,0.8916088 0.4475822,1.4177576 0.4325522,0.800072 1.2077345,1.656709 2.2422503,2.565227 -1.0505355,0.923913 -1.835515,1.786695 -2.2682869,2.580106 a 0.15871531,0.15871531 0 0 0 0,0.002 c -0.2751035,0.525219 -0.4215456,0.985636 -0.4215456,1.389797 0,0.23355 0.051235,0.447071 0.1543596,0.634798 a 0.15871531,0.15871531 0 0 0 0,0.0025 c 0.291392,0.51696 0.943761,0.765711 1.8864159,0.799078 a 0.15871531,0.15871531 0 0 0 0.00252,0 c 0.9137959,0.02385 2.0535277,-0.233556 3.3717428,-0.696171 0.2741331,1.348491 0.6233467,2.453038 1.0867197,3.23598 a 0.15871531,0.15871531 0 0 0 0,0.002 c 0.500317,0.825527 1.0505898,1.281995 1.6589068,1.281995 0.601456,0 1.143394,-0.456502 1.635347,-1.281995 a 0.15871531,0.15871531 0 0 0 0,-0.002 c 0.463775,-0.783622 0.815602,-1.888301 1.089818,-3.238461 1.329834,0.457616 2.472598,0.71099 3.381042,0.686873 0.941434,-0.02479 1.593573,-0.269105 1.885797,-0.78482 v -0.0025 c 0.112868,-0.188987 0.168617,-0.409658 0.168617,-0.651537 0,-0.404148 -0.146131,-0.860011 -0.421545,-1.377461 a 0.15871531,0.15871531 0 0 0 0,-0.0025 c -0.442823,-0.797089 -1.23398,-1.657456 -2.293703,-2.579495 1.035751,-0.909437 1.822657,-1.768065 2.270146,-2.575146 h -0.0025 c 0.292427,-0.5180303 0.447581,-0.9804659 0.447581,-1.3941992 0,-0.2419357 -0.05577,-0.4625695 -0.168619,-0.6515355 C 18.512152,7.5425303 17.843709,7.2989275 16.877611,7.2822708 15.967425,7.2660519 14.83776,7.5183689 13.538724,7.964183 13.2636,6.5792764 12.907093,5.4657804 12.430927,4.6910059 11.93891,3.8904337 11.406296,3.446827 10.820996,3.446827 a 0.15871531,0.15871531 0 0 0 -0.01612,0 z m 0.01612,0.9373179 c 0.150341,0 0.307715,0.067598 0.482918,0.2318503 0.175202,0.1642516 0.359966,0.4245219 0.545528,0.7798595 0.346282,0.6549206 0.623917,1.637559 0.838751,2.8683679 C 12.063219,8.5044145 11.441451,8.7755104 10.823482,9.0818019 10.1896,8.7745053 9.5580522,8.5050791 8.9302472,8.2641277 9.1450812,7.0333188 9.4227172,6.0506804 9.7689982,5.3957598 9.9543492,5.040836 10.140769,4.7800283 10.319487,4.6159003 10.498204,4.4517709 10.66064,4.38405 10.821003,4.38405 Z M 4.7637673,8.1296051 c 0.0911,-0.00115 0.1872412,6.346e-4 0.2888825,0.00565 0.7474087,0.037804 1.7184191,0.2872155 2.8559695,0.7048491 C 7.8091824,9.5057349 7.7347419,10.1847 7.6885481,10.876545 7.1087668,11.268017 6.5593987,11.671897 6.038942,12.090331 5.1011119,11.31416 4.3963857,10.596689 3.988867,9.9627665 a 0.15871531,0.15871531 0 0 0 0,-0.00253 C 3.7681673,9.6213132 3.6336709,9.3292372 3.580961,9.0911211 3.5282498,8.8530027 3.5516668,8.6760009 3.6373786,8.5331928 a 0.15871531,0.15871531 0 0 0 0.00252,-0.00253 c 0.077723,-0.1367995 0.2165721,-0.2425416 0.4500609,-0.3136849 0.1751178,-0.053358 0.4005682,-0.083788 0.673853,-0.0874 z m 12.1033117,0 c 0.27339,0.00358 0.499447,0.033915 0.676332,0.0874 0.234475,0.070887 0.376969,0.1768772 0.458741,0.313679 0.08224,0.1423488 0.106741,0.319181 0.05208,0.5579284 -0.05467,0.2387484 -0.192044,0.5324907 -0.412866,0.8716061 a 0.15871531,0.15871531 0 0 0 0,0.00253 c -0.407388,0.6412594 -1.116485,1.3628534 -2.061855,2.1393474 -0.520806,-0.418729 -1.06877,-0.824565 -1.648986,-1.216282 -0.04645,-0.698312 -0.126237,-1.3800514 -0.23247,-2.0457355 1.137528,-0.4174882 2.114328,-0.6667861 2.877667,-0.7048491 h 0.002 c 0.10164,-0.00496 0.198374,-0.00669 0.289502,-0.00565 z m -4.035678,1.0433264 c 0.04584,0.3539495 0.08088,0.7148688 0.112198,1.0798995 -0.175573,-0.108229 -0.351341,-0.216193 -0.526931,-0.327937 a 0.15871531,0.15871531 0 0 0 -0.0069,-0.00427 C 12.214625,9.8121648 12.028243,9.7125709 11.840155,9.6112854 12.174114,9.458371 12.504862,9.3113246 12.831407,9.1730008 Z m -4.0418758,0.00935 c 0.326574,0.1336185 0.657179,0.2795376 0.991253,0.4314618 -0.186048,0.1011782 -0.370227,0.2010224 -0.559789,0.3093389 a 0.15871531,0.15871531 0 0 0 -0.0049,0.00196 c -0.182855,0.1129498 -0.361907,0.2210548 -0.541185,0.3304198 0.03138,-0.364238 0.06877,-0.7236537 0.114684,-1.0730809 z m 2.0060608,0.9373175 c 0.380181,0.198616 0.760401,0.400801 1.140652,0.613721 0.371731,0.21239 0.734257,0.434199 1.091678,0.660834 0.02131,0.42509 0.03285,0.856072 0.03285,1.295632 0,0.432446 -0.01154,0.86114 -0.03285,1.286333 -0.349844,0.226046 -0.713033,0.446287 -1.091678,0.658356 a 0.15871531,0.15871531 0 0 0 -0.0025,0.0025 c -0.371354,0.219764 -0.744002,0.424638 -1.115216,0.623009 -0.383491,-0.197657 -0.757492,-0.404235 -1.1195748,-0.62302 a 0.15871531,0.15871531 0 0 0 -0.0074,-0.0025 c -0.386186,-0.212008 -0.751044,-0.432481 -1.1010585,-0.658357 -0.014251,-0.425344 -0.021077,-0.853753 -0.021077,-1.286334 0,-0.43968 0.00695,-0.870323 0.021076,-1.295631 0.3576325,-0.22649 0.7242425,-0.448455 1.1034555,-0.660834 a 0.15871531,0.15871531 0 0 0 0.0025,0 c 0.3630898,-0.211751 0.7289838,-0.416062 1.0991248,-0.613701 z m 0.02542,1.485328 c -0.188874,0 -0.3708,0.04999 -0.538711,0.143202 -0.171397,0.08681 -0.3084208,0.221062 -0.4029468,0.391169 -0.09393,0.16904 -0.143202,0.354836 -0.143202,0.550488 0,0.188829 0.04989,0.373214 0.143202,0.541191 a 0.15871531,0.15871531 0 0 0 0.0025,0.0025 c 0.09539,0.162205 0.2318638,0.293164 0.4004678,0.38683 0.167961,0.09331 0.349881,0.142581 0.538712,0.142581 0.182147,0 0.360733,-0.04998 0.52755,-0.142581 0.168607,-0.09366 0.305067,-0.224631 0.400468,-0.38683 a 0.15871531,0.15871531 0 0 0 0.0025,-0.0025 c 0.0933,-0.167972 0.142582,-0.352359 0.142582,-0.541191 0,-0.195699 -0.04866,-0.381459 -0.142582,-0.550488 -0.09453,-0.170196 -0.231581,-0.304361 -0.402947,-0.391169 -0.166866,-0.09271 -0.345443,-0.143202 -0.527551,-0.143202 z m -3.1839118,0.440762 c -0.00372,0.214088 -0.00744,0.42643 -0.00744,0.644097 0,0.211732 0.00372,0.42303 0.00744,0.634798 -0.3033437,-0.208533 -0.599767,-0.419111 -0.8809054,-0.634798 0.2813243,-0.220605 0.5773205,-0.434325 0.8809054,-0.644097 z m 6.3467368,0 c 0.305228,0.210184 0.604168,0.422996 0.890825,0.644097 -0.286462,0.216167 -0.585836,0.425848 -0.890825,0.634798 0.0071,-0.211604 0.01673,-0.42321 0.01673,-0.634798 0,-0.217475 -0.0095,-0.430149 -0.01673,-0.644097 z M 6.0296423,13.2781 c 0.5275631,0.418627 1.0784643,0.823966 1.6589043,1.215663 0.046328,0.690981 0.1207678,1.369074 0.2200723,2.033955 -1.160654,0.425172 -2.144836,0.675309 -2.8913055,0.705469 C 4.61878,17.248937 4.3031245,17.217547 4.0731758,17.146397 3.8432258,17.075227 3.7056835,16.970535 3.6280732,16.837059 3.5506142,16.70381 3.5280247,16.531303 3.5809642,16.295868 3.6338912,16.060432 3.7639564,15.76801 3.9770937,15.4286 a 0.15871531,0.15871531 0 0 0 0.00252,-0.002 c 0.3832817,-0.631258 1.0899612,-1.357034 2.0500742,-2.148612 z m 9.5591617,0 c 0.96081,0.791844 1.672955,1.518278 2.064332,2.150501 a 0.15871531,0.15871531 0 0 0 0,0.0025 c 0.216985,0.339287 0.350189,0.630109 0.402948,0.864788 0.05275,0.234678 0.02916,0.40539 -0.05146,0.53871 a 0.15871531,0.15871531 0 0 0 0,0.0025 c -0.07762,0.13351 -0.217644,0.238174 -0.447582,0.309341 -0.229941,0.07116 -0.545612,0.102586 -0.944138,0.08679 -0.746585,-0.0301 -1.734583,-0.280105 -2.903084,-0.70547 0.09934,-0.664867 0.1745,-1.342932 0.220691,-2.033956 0.580438,-0.391713 1.13072,-0.797047 1.658285,-1.215663 z m -6.9139598,1.83434 c 0.179297,0.11221 0.356256,0.226872 0.546149,0.335376 0.183963,0.108171 0.37225,0.208311 0.559787,0.30934 -0.334633,0.153247 -0.66654,0.299067 -0.993731,0.437665 -0.04593,-0.354709 -0.08083,-0.716546 -0.112201,-1.082381 z m 4.2687668,0.0025 c -0.03133,0.365031 -0.06636,0.72595 -0.11221,1.079899 -0.326544,-0.138319 -0.657293,-0.284745 -0.991251,-0.437662 0.188098,-0.101294 0.374478,-0.200883 0.569706,-0.30934 a 0.15871531,0.15871531 0 0 0 0.002,-0.0025 c 0.182513,-0.107351 0.356337,-0.219479 0.531892,-0.330417 z m -2.148023,1.171648 c 0.628416,0.308237 1.259678,0.581275 1.895095,0.829452 -0.207335,1.202298 -0.481959,2.171875 -0.829453,2.844192 a 0.15871531,0.15871531 0 0 0 0,0.0025 c -0.181416,0.358889 -0.367022,0.621577 -0.543669,0.787298 -0.176647,0.165722 -0.336712,0.23433 -0.496555,0.23433 -0.164814,0 -0.330249,-0.07084 -0.510814,-0.23681 -0.180567,-0.165946 -0.3676438,-0.428443 -0.5529688,-0.78727 -0.347492,-0.672316 -0.622117,-1.641893 -0.829453,-2.84419 0.625889,-0.247397 1.2488838,-0.522441 1.8678178,-0.829454 z"
         id="text5407" />
      <path
         inkscape:connector-curvature="0"
         id="path5369"
         d="m 0.72760492,18.520836 v 4.167188 c 0,1.539081 1.23904398,2.778124 2.77812498,2.778124 H 22.952604 c 1.539081,0 2.778125,-1.239043 2.778125,-2.778124 v -4.167188 z"
         style="opacity:1;fill:#222222;fill-opacity:1;fill-rule:nonzero;stroke:none;stroke-width:0.24999997;stroke-linecap:butt;stroke-linejoin:round;stroke-miterlimit:4;stroke-dasharray:none;stroke-dashoffset:0;stroke-opacity:0.90944878;paint-order:normal" />
      <g
         id="text5373"
         style="font-style:normal;font-variant:normal;font-weight:500;font-stretch:normal;font-size:4.23333311px;line-height:4.23333311px;font-family:Montserrat;-inkscape-font-specification:'Montserrat Medium';text-align:center;letter-spacing:-0.26458332px;text-anchor:middle;opacity:1;fill:#eeeeee;fill-opacity:1;fill-rule:nonzero;stroke:none;stroke-width:0.25;stroke-linecap:butt;stroke-linejoin:round;stroke-miterlimit:4;stroke-dasharray:none;stroke-dashoffset:0;stroke-opacity:0.90944878;paint-order:normal"
         aria-label="PROGRESS">
        <path
           id="path4608"
           style="font-style:normal;font-variant:normal;font-weight:500;font-stretch:normal;font-size:4.23333311px;font-family:Montserrat;-inkscape-font-specification:'Montserrat Medium';letter-spacing:-0.26458332px;fill:#eeeeee;fill-opacity:1;stroke-width:0.25"
           d="m 3.760524,20.325294 q 0.5587999,0 0.8635999,0.2667 0.3090333,0.2667 0.3090333,0.753534 0,0.508 -0.3090333,0.791633 -0.3048,0.2794 -0.8635999,0.2794 h -0.6477 v 0.872067 H 2.5455574 v -2.963334 z m -0.029633,1.591734 q 0.3217333,0 0.4910667,-0.1397 0.1735666,-0.1397 0.1735666,-0.414867 0,-0.270933 -0.1735666,-0.4064 Q 4.0526239,20.820594 3.7308906,20.820594 H 3.112824 v 1.096434 z"
           inkscape:connector-curvature="0" />
        <path
           id="path4610"
           style="font-style:normal;font-variant:normal;font-weight:500;font-stretch:normal;font-size:4.23333311px;font-family:Montserrat;-inkscape-font-specification:'Montserrat Medium';letter-spacing:-0.26458332px;fill:#eeeeee;fill-opacity:1;stroke-width:0.25"
           d="m 6.9959811,23.288628 -0.5122333,-0.8763 q -0.033867,0.0042 -0.1058333,0.0042 H 5.7090478 v 0.872067 H 5.1417812 v -2.963334 h 1.2361333 q 0.5757333,0 0.8889999,0.2667 0.3132667,0.2667 0.3132667,0.753534 0,0.347133 -0.1524,0.592666 -0.1481667,0.245534 -0.4360333,0.3683 l 0.6519333,0.982134 z m -1.2869333,-1.3716 h 0.6688667 q 0.3217333,0 0.4910666,-0.1397 0.1693333,-0.1397 0.1693333,-0.414867 0,-0.270933 -0.1693333,-0.4064 Q 6.6996478,20.820594 6.3779145,20.820594 H 5.7090478 Z"
           inkscape:connector-curvature="0" />
        <path
           id="path4612"
           style="font-style:normal;font-variant:normal;font-weight:500;font-stretch:normal;font-size:4.23333311px;font-family:Montserrat;-inkscape-font-specification:'Montserrat Medium';letter-spacing:-0.26458332px;fill:#eeeeee;fill-opacity:1;stroke-width:0.25"
           d="m 9.2826426,20.287194 q 0.4402667,0 0.8001004,0.198967 0.364066,0.198967 0.5715,0.5461 0.207433,0.347133 0.207433,0.770467 0,0.423333 -0.207433,0.7747 -0.207434,0.347133 -0.5715,0.550333 -0.3598337,0.2032 -0.8001004,0.2032 -0.4402666,0 -0.8043333,-0.2032 -0.3598333,-0.2032 -0.5672666,-0.550333 -0.2074333,-0.351367 -0.2074333,-0.7747 0,-0.423334 0.2074333,-0.770467 0.2074333,-0.347133 0.5672666,-0.5461 0.3640667,-0.198967 0.8043333,-0.198967 z m 0.00847,0.508 q -0.2709333,0 -0.5037666,0.135467 -0.2328334,0.131233 -0.3683,0.364067 -0.1354667,0.2286 -0.1354667,0.508 0,0.2794 0.1354667,0.512233 0.1397,0.232833 0.3683,0.3683 0.2328333,0.135467 0.5037666,0.135467 0.2667,0 0.4953,-0.135467 0.2285994,-0.135467 0.3598334,-0.3683 0.135466,-0.232833 0.135466,-0.512233 0,-0.2794 -0.135466,-0.508 -0.131234,-0.232834 -0.3598334,-0.364067 -0.2286,-0.135467 -0.4953,-0.135467 z"
           inkscape:connector-curvature="0" />
        <path
           id="path4614"
           style="font-style:normal;font-variant:normal;font-weight:500;font-stretch:normal;font-size:4.23333311px;font-family:Montserrat;-inkscape-font-specification:'Montserrat Medium';letter-spacing:-0.26458332px;fill:#eeeeee;fill-opacity:1;stroke-width:0.25"
           d="m 13.00652,21.815428 h 0.4953 v 1.126066 q -0.232833,0.173567 -0.550333,0.283634 -0.3175,0.105833 -0.6223,0.105833 -0.436034,0 -0.795867,-0.2032 -0.3556,-0.2032 -0.563033,-0.550333 -0.207433,-0.351367 -0.207433,-0.7747 0,-0.423334 0.211666,-0.766234 0.211667,-0.347133 0.575734,-0.5461 0.368299,-0.2032 0.812799,-0.2032 0.3175,0 0.626534,0.1143 0.309033,0.1143 0.5334,0.313267 l -0.321734,0.4191 q -0.169333,-0.160867 -0.3937,-0.249767 -0.220133,-0.0889 -0.4445,-0.0889 -0.2794,0 -0.516466,0.135467 -0.232834,0.131233 -0.3683,0.364067 -0.135467,0.232833 -0.135467,0.508 0,0.2794 0.135467,0.512233 0.1397,0.232833 0.372533,0.3683 0.232833,0.135467 0.516467,0.135467 0.1524,0 0.3175,-0.04657 0.169333,-0.0508 0.321733,-0.1397 z"
           inkscape:connector-curvature="0" />
        <path
           id="path4616"
           style="font-style:normal;font-variant:normal;font-weight:500;font-stretch:normal;font-size:4.23333311px;font-family:Montserrat;-inkscape-font-specification:'Montserrat Medium';letter-spacing:-0.26458332px;fill:#eeeeee;fill-opacity:1;stroke-width:0.25"
           d="m 15.743768,23.288628 -0.512234,-0.8763 q -0.03387,0.0042 -0.105833,0.0042 h -0.668867 v 0.872067 h -0.567266 v -2.963334 h 1.236133 q 0.575733,0 0.889,0.2667 0.313267,0.2667 0.313267,0.753534 0,0.347133 -0.1524,0.592666 -0.148167,0.245534 -0.436034,0.3683 l 0.651934,0.982134 z m -1.286934,-1.3716 h 0.668867 q 0.321733,0 0.491067,-0.1397 0.169333,-0.1397 0.169333,-0.414867 0,-0.270933 -0.169333,-0.4064 -0.169334,-0.135467 -0.491067,-0.135467 h -0.668867 z"
           inkscape:connector-curvature="0" />
        <path
           id="path4618"
           style="font-style:normal;font-variant:normal;font-weight:500;font-stretch:normal;font-size:4.23333311px;font-family:Montserrat;-inkscape-font-specification:'Montserrat Medium';letter-spacing:-0.26458332px;fill:#eeeeee;fill-opacity:1;stroke-width:0.25"
           d="m 16.684228,20.325294 h 2.1717 v 0.4953 h -1.604433 v 0.732367 h 1.439333 v 0.4953 h -1.439333 v 0.745067 h 1.655233 v 0.4953 h -2.2225 z"
           inkscape:connector-curvature="0" />
        <path
           id="path4620"
           style="font-style:normal;font-variant:normal;font-weight:500;font-stretch:normal;font-size:4.23333311px;font-family:Montserrat;-inkscape-font-specification:'Montserrat Medium';letter-spacing:-0.26458332px;fill:#eeeeee;fill-opacity:1;stroke-width:0.25"
           d="m 21.076973,21.087294 q -0.2286,-0.1397 -0.4699,-0.2159 -0.237067,-0.0762 -0.4191,-0.0762 -0.2032,0 -0.321733,0.0762 -0.118534,0.0762 -0.118534,0.211667 0,0.122767 0.08043,0.207433 0.08467,0.08043 0.207433,0.135467 0.127,0.0508 0.3429,0.1143 0.300566,0.0889 0.491066,0.1778 0.194734,0.0889 0.3302,0.262467 0.135467,0.173566 0.135467,0.4572 0,0.270933 -0.148167,0.474133 -0.143933,0.198967 -0.402166,0.3048 -0.254,0.105833 -0.5842,0.105833 -0.347133,0 -0.677333,-0.127 -0.3302,-0.131233 -0.575734,-0.347133 l 0.237067,-0.4826 q 0.224367,0.207433 0.503767,0.325967 0.2794,0.118533 0.520699,0.118533 0.237067,0 0.372534,-0.0889 0.135466,-0.09313 0.135466,-0.249767 0,-0.127 -0.08467,-0.207433 -0.08043,-0.08467 -0.207434,-0.135467 -0.127,-0.0508 -0.347133,-0.1143 -0.300566,-0.0889 -0.491066,-0.173566 -0.1905,-0.08467 -0.325967,-0.254 -0.135467,-0.173567 -0.135467,-0.452967 0,-0.258233 0.135467,-0.448733 0.1397,-0.194734 0.389467,-0.300567 0.254,-0.105833 0.584199,-0.105833 0.287867,0 0.567267,0.08467 0.283633,0.08467 0.503767,0.2286 z"
           inkscape:connector-curvature="0" />
        <path
           id="path4622"
           style="font-style:normal;font-variant:normal;font-weight:500;font-stretch:normal;font-size:4.23333311px;font-family:Montserrat;-inkscape-font-specification:'Montserrat Medium';letter-spacing:-0.26458332px;fill:#eeeeee;fill-opacity:1;stroke-width:0.25"
           d="m 23.47476,21.087294 q -0.2286,-0.1397 -0.4699,-0.2159 -0.237067,-0.0762 -0.4191,-0.0762 -0.2032,0 -0.321733,0.0762 -0.118534,0.0762 -0.118534,0.211667 0,0.122767 0.08043,0.207433 0.08467,0.08043 0.207433,0.135467 0.127,0.0508 0.3429,0.1143 0.300567,0.0889 0.491067,0.1778 0.194733,0.0889 0.3302,0.262467 0.135466,0.173566 0.135466,0.4572 0,0.270933 -0.148166,0.474133 -0.143934,0.198967 -0.402167,0.3048 -0.254,0.105833 -0.5842,0.105833 -0.347133,0 -0.677333,-0.127 -0.3302,-0.131233 -0.575734,-0.347133 l 0.237067,-0.4826 q 0.224367,0.207433 0.503767,0.325967 0.2794,0.118533 0.5207,0.118533 0.237066,0 0.372533,-0.0889 0.135467,-0.09313 0.135467,-0.249767 0,-0.127 -0.08467,-0.207433 -0.08043,-0.08467 -0.207433,-0.135467 -0.127,-0.0508 -0.347134,-0.1143 -0.300566,-0.0889 -0.491066,-0.173566 -0.1905,-0.08467 -0.325967,-0.254 -0.135467,-0.173567 -0.135467,-0.452967 0,-0.258233 0.135467,-0.448733 0.1397,-0.194734 0.389467,-0.300567 0.254,-0.105833 0.5842,-0.105833 0.287866,0 0.567266,0.08467 0.283634,0.08467 0.503767,0.2286 z"
           inkscape:connector-curvature="0" />
      </g>
    </g>
    <text
       xml:space="preserve"
       style="font-style:normal;font-variant:normal;font-weight:500;font-stretch:normal;font-size:8.46666622px;line-height:4.23333311px;font-family:Montserrat;-inkscape-font-specification:'Montserrat Medium';text-align:center;text-anchor:middle;opacity:1;fill:#eeeeee;fill-opacity:1;fill-rule:nonzero;stroke:none;stroke-width:4.23333311;stroke-linecap:butt;stroke-linejoin:round;stroke-miterlimit:4;stroke-dasharray:none;stroke-dashoffset:0;stroke-opacity:1;paint-order:stroke fill markers"
       x="-355.53735"
       y="24.113144"
       id="text4627-36-3"><tspan
         sodipodi:role="line"
         id="tspan4625-0-6"
         x="-355.53735"
         y="24.113144"
         style="font-style:normal;font-variant:normal;font-weight:500;font-stretch:normal;font-size:8.46666622px;font-family:Montserrat;-inkscape-font-specification:'Montserrat Medium';text-align:center;text-anchor:middle;fill:#eeeeee;fill-opacity:1;stroke-width:4.23333311">ORD</tspan></text>
  </g>
</svg>
