<?xml version="1.0" encoding="UTF-8" standalone="no"?>
<!-- Created with Inkscape (http://www.inkscape.org/) -->

<svg
   width="200"
   height="200"
   viewBox="0 0 52.916668 52.916666"
   version="1.1"
   id="svg8"
   inkscape:version="1.4 (86a8ad7, 2024-10-11)"
   sodipodi:docname="deceleration.svg"
   xmlns:inkscape="http://www.inkscape.org/namespaces/inkscape"
   xmlns:sodipodi="http://sodipodi.sourceforge.net/DTD/sodipodi-0.dtd"
   xmlns:xlink="http://www.w3.org/1999/xlink"
   xmlns="http://www.w3.org/2000/svg"
   xmlns:svg="http://www.w3.org/2000/svg"
   xmlns:rdf="http://www.w3.org/1999/02/22-rdf-syntax-ns#"
   xmlns:cc="http://creativecommons.org/ns#"
   xmlns:dc="http://purl.org/dc/elements/1.1/">
  <defs
     id="defs2">
    <inkscape:path-effect
       effect="envelope"
       id="path-effect4658"
       is_visible="true"
       yy="true"
       xx="true"
       bendpath1="m -199.08406,108.42369 h 7.0057"
       bendpath2="m -192.07836,108.42369 v 6.75242"
       bendpath3="m -199.08406,115.17611 h 7.0057"
       bendpath4="m -199.08406,108.42369 v 6.75242" />
    <inkscape:path-effect
       effect="bend_path"
       id="path-effect4656"
       is_visible="true"
       bendpath="m -192.00142,114.60623 c 2.12577,-0.53066 4.48261,0.85111 7.0057,0"
       prop_scale="1"
       scale_y_rel="false"
       vertical="false"
       bendpath-nodetypes="cc" />
    <inkscape:path-effect
       effect="bounding_box"
       id="path-effect4654"
       is_visible="true"
       linkedpath=""
       visualbounds="false" />
    <symbol
       id="AigaSymbols.svg:BaggageLockers">
      <title
         id="title41">Baggage Lockers</title>
      <!-- key -->
      <path
         d="m 34.625,11 a 7.5,7.5 0 1 0 0,7 H 37 l 2.5,-2.5 2,2 2,-2 2,2 2,-2 2,2 L 52,15 c 0.5,-0.5 0.5,-1 0,-1.5 L 49.5,11 Z M 27,14.5 a 2,2 0 1 1 -4,0 2,2 0 1 1 4,0 z"
         style="stroke:none"
         id="path42" />
      <!-- locker -->
      <rect
         x="16.5"
         y="26.5"
         width="39"
         height="32"
         style="fill:#ffffff;stroke-width:5"
         id="rect42" />
      <!-- bag -->
      <path
         d="M 33.5,31.5 A 1.5,1.5 0 0 0 32,33 v 2.5 h -3 v 18 h 14.5 v -18 H 40 V 33 a 1.5,1.5 0 0 0 -1.5,-1.5 z m 0,1.5 h 5 v 2.5 h -5 z m -8,2.5 A 2.5,2.5 0 0 0 23,38 v 13 a 2.5,2.5 0 0 0 2.5,2.5 h 2 v -18 z m 19.5,0 v 18 h 1.5 A 2.5,2.5 0 0 0 49,51 V 38 a 2.5,2.5 0 0 0 -2.5,-2.5 z"
         style="stroke:none"
         id="path43" />
    </symbol>
    <symbol
       id="MapSymbolsNPS.svg:LitterReceptacle">
      <title
         id="title101">Litter Receptacle</title>
      <g
         id="TrashCan"
         style="stroke:none">
        <path
           d="M 29.5,66 34,41.5 h -3.5 l -4,21 h -9 L 14,41.5 h -3.5 l 4,24.5 z"
           id="path101" />
        <rect
           x="20"
           y="46"
           width="3.75"
           height="3.75"
           id="rect102" />
        <rect
           x="-14.49781"
           y="43.493431"
           width="3.7494338"
           height="3.7494338"
           transform="rotate(-45)"
           id="rect103"
           style="stroke-width:0.999849" />
        <rect
           x="-11.998188"
           y="36.994411"
           width="3.7494338"
           height="3.7494338"
           transform="rotate(-45)"
           id="rect104"
           style="stroke-width:0.999849" />
      </g>
      <path
         d="M 40,20.5 C 41,19 42.5,18 45,18 h 11 c 4,0 7,2.75 7,6 v 15 a 2,2 0 0 1 -4,0 V 24 h -2.5 v 39.25 a 2.75,2.75 0 0 1 -5.5,0 V 41 h -3 v 22.25 a 2.75,2.75 0 0 1 -5.5,0 V 24 l -5,7.25 C 37.125,31.75 36.5,32 36,32 h -8.5 a 2,2 0 0 1 0,-4 H 35 Z"
         style="stroke:none"
         id="path104" />
      <circle
         cx="49.5"
         cy="11.5"
         r="4.75"
         style="stroke:none"
         id="circle104" />
    </symbol>
    <symbol
       id="sjjb-amenity.svg:court"
       viewBox="0 0 522.36658 473.4661">
      <title
         id="title3">Court</title>
      <path
         d="m 260.78875,0.00301311 a 5.4151628,5.4151628 0 0 0 -5.19922,5.18554699 l -2.05078,54.2539129 c -28.90909,3.25004 -55.7159,11.07288 -78.80273,26.54687 l 0.0293,-0.0215 C 148.74184,102.91489 123.68227,112.15498 99.753613,112.29596 a 2.7075814,2.7075814 0 0 0 -0.19532,0.008 c -9.83831,0.7734 -23.88398,-2.64486 -37.029294,-8.07618 C 49.383685,98.796473 37.028957,91.341873 30.294624,84.774663 a 2.7075814,2.7075814 0 0 0 -4.078125,3.5332 C 38.638672,105.34514 55.074481,123.43578 86.530953,130.28052 L 6.700874,322.36841 H 5.413765 a 5.4151628,5.4151628 0 0 0 -5.353516,6.2207 c 5.492705,36.45028 44.889174,63.23828 91.425784,63.23828 46.536617,0 85.933077,-26.788 91.425777,-63.23828 a 5.4151628,5.4151628 0 0 0 -5.35547,-6.2207 h -1.22852 L 98.505563,132.2356 c 0.33005,0.0372 0.64949,0.0822 0.98242,0.11718 a 2.7075814,2.7075814 0 0 0 0.32617,0.0137 c 38.437197,-0.62048 57.812267,-12.12584 77.570317,-22.55469 25.6242,-9.51298 46.77047,-26.114537 75.2207,-25.671877 L 239.2165,438.41921 H 132.27118 a 5.4151628,5.4151628 0 0 0 -5.41406,5.41601 v 24.21485 a 5.4151628,5.4151628 0 0 0 5.41406,5.41601 h 126.54688 4.73047 126.54883 a 5.4151628,5.4151628 0 0 0 5.41406,-5.41601 v -24.21485 a 5.4151628,5.4151628 0 0 0 -5.41406,-5.41601 H 283.15009 L 269.76142,84.137963 c 28.4487,-0.44355 49.59326,16.158157 75.21484,25.671867 19.75988,10.42961 39.13748,21.9361 77.57813,22.55665 a 2.7075814,2.7075814 0 0 0 0.32617,-0.0137 c 0.33291,-0.035 0.65239,-0.08 0.98242,-0.11718 l -77.82227,190.13281 h -1.23046 a 5.4151628,5.4151628 0 0 0 -5.35352,6.2207 c 5.4927,36.45028 44.88916,63.23828 91.42578,63.23828 46.53661,0 85.93113,-26.788 91.42383,-63.23828 a 5.4151628,5.4151628 0 0 0 -5.35352,-6.2207 h -1.28515 L 435.83564,130.28052 c 31.45733,-6.84443 47.89204,-24.93504 60.31445,-41.972657 a 2.7075814,2.7075814 0 0 0 -4.07812,-3.5332 c -6.73434,6.56721 -19.08711,14.02181 -32.23243,19.453117 -13.14531,5.43132 -27.19098,8.84958 -37.02929,8.07618 a 2.7075814,2.7075814 0 0 0 -0.19727,-0.008 c -23.92866,-0.14098 -48.98824,-9.38107 -75.01172,-26.328117 -23.07915,-15.45948 -49.87605,-23.2767 -78.77148,-26.52539 L 266.779,5.1885401 a 5.4151628,5.4151628 0 0 0 -5.25391,-5.18554699 5.4151628,5.4151628 0 0 0 -0.24609,0.0059 5.4151628,5.4151628 0 0 0 -0.49024,-0.0059 z M 92.08367,145.13583 164.62469,322.36825 H 18.427417 l 73.65625,-177.23242 z m 338.19922,0 73.65821,177.23242 H 357.74188 Z"
         id="path3" />
    </symbol>
    <symbol
       id="AigaSymbols.svg:Cashier">
      <title
         id="title27">Cashier</title>
      <g
         style="fill:none;stroke-width:6"
         id="g28">
        <circle
           cx="36"
           cy="36"
           r="24"
           id="circle28" />
        <path
           d="m 45,30 c 0,-4 -4,-6 -9,-6 -5,0 -9,2 -9,6 0,4 4,5.5 9,6 5,0.5 10,1 10,6 0,5 -5,6 -10,6 -5,0 -9,-3 -9,-7 m 9,-24 v 38"
           id="path28" />
      </g>
    </symbol>
    <symbol
       id="sjjb-amenity.svg:firestation"
       viewBox="0 0 338.31653 553.83203">
      <title
         id="title4">Fire station</title>
      <path
         d="m 152.01603,0 c -37.22584,151.15831 30.73892,149.83168 68.4375,238.67188 C 246.89612,101.68359 167.79098,132.50454 152.01603,0 Z M 114.63321,99.494148 C 91.205297,185.32102 123.79758,226.47356 121.53556,289.28126 88.730667,231.20307 56.202397,179.7808 24.916417,158.15626 c 25.79108,51.97809 -7.86136,114.40046 -19.41016,164.98046 -16.4627,72.10121 5.8324,120.34358 42.41406,140.97657 -0.55356,-35.13325 10.9929,-66.18415 17.83008,-73.61328 9.01264,63.48876 19.33359,102.39652 69.587893,140.32617 5.06853,-79.96596 30.20227,-59.26818 39.10742,-158.73047 36.67983,60.57819 29.55919,121.15815 11.50196,181.73633 32.30895,-28.8767 68.07701,-52.68648 112.7207,-181.73633 l -9.20117,96.61914 C 317.90054,399.18051 399.02845,330.12416 256.68595,135.72657 270.82122,248.47951 241.85478,263.42495 227.93009,308.83399 195.19301,212.25401 130.7087,205.67293 114.63321,99.494148 Z"
         id="path4" />
    </symbol>
    <symbol
       id="sjjb-food.svg:fastfood"
       viewBox="0 0 469.95761 412.9675">
      <title
         id="title8">Fast food</title>
      <path
         d="M 451.74373,0 420.60444,109.85696 H 262.00383 l 38.18462,303.11055 H 429.99822 L 468.77443,109.85696 H 439.40992 L 469.95761,5.28849 451.74373,2e-6 Z M 243.19836,286.67146 C 246.32933,259.25515 225.5758,244.37573 180.93772,242.0331 H 73.4292 C 28.790769,244.37573 7.840039,259.25515 10.576966,286.67146 H 243.19837 Z m -232.62139,82.2493 c -2.736927,27.40448 18.213803,42.08672 62.85223,44.04675 h 107.50852 c 44.63808,-1.96003 65.39161,-16.64227 62.26064,-44.04675 z M 233.21299,307.82538 H 19.97073 c -5.473779,9e-5 -10.170663,1.95712 -14.090651,5.8711 C 1.959972,317.61063 -4.4e-5,322.11331 0,327.20452 c -4.3999259e-5,5.88013 1.959972,10.6786 5.880078,14.39541 3.919988,3.71693 8.616872,5.57536 14.090651,5.57532 H 233.21299 c 5.4854,4e-5 10.18526,-1.85839 14.09963,-5.57532 3.91377,-3.71681 5.87081,-8.51528 5.8711,-14.39541 -2.9e-4,-5.09121 -1.95733,-9.59389 -5.8711,-13.50804 -3.91437,-3.91398 -8.61423,-5.87101 -14.09963,-5.8711 z"
         id="path9" />
    </symbol>
    <symbol
       id="MapSymbolsNPS.svg:Showers">
      <title
         id="title223">Showers</title>
      <path
         d="M 6.75,13.25 8.5,15 17,6.5 15.25,4.75 11.5,6 9.875,4.375 6.375,7.875 8,9.5 Z"
         style="stroke:none"
         id="path224" />
      <g
         id="WaterDrops"
         style="stroke:none">
        <circle
           cx="18.5"
           cy="9"
           r="1.3"
           id="circle224" />
        <circle
           cx="16"
           cy="11.5"
           r="1.3"
           id="circle225" />
        <circle
           cx="13.5"
           cy="14"
           r="1.3"
           id="circle226" />
        <circle
           cx="11"
           cy="16.5"
           r="1.3"
           id="circle227" />
        <circle
           cx="23.5"
           cy="11"
           r="1.4"
           id="circle228" />
        <circle
           cx="20"
           cy="14.5"
           r="1.4"
           id="circle229" />
        <circle
           cx="16.5"
           cy="18"
           r="1.4"
           id="circle230" />
        <circle
           cx="13"
           cy="21.5"
           r="1.4"
           id="circle231" />
        <circle
           cx="28.5"
           cy="13"
           r="1.5"
           id="circle232" />
        <circle
           cx="24"
           cy="17.5"
           r="1.5"
           id="circle233" />
        <circle
           cx="19.5"
           cy="22"
           r="1.5"
           id="circle234" />
        <circle
           cx="15"
           cy="26.5"
           r="1.5"
           id="circle235" />
        <circle
           cx="33.5"
           cy="15"
           r="1.6"
           id="circle236" />
        <circle
           cx="28"
           cy="20.5"
           r="1.6"
           id="circle237" />
        <circle
           cx="22.5"
           cy="26"
           r="1.6"
           id="circle238" />
        <circle
           cx="17"
           cy="31.5"
           r="1.6"
           id="circle239" />
        <circle
           cx="38.5"
           cy="17"
           r="1.7"
           id="circle240" />
        <circle
           cx="32"
           cy="23.5"
           r="1.7"
           id="circle241" />
        <circle
           cx="25.5"
           cy="30"
           r="1.7"
           id="circle242" />
        <circle
           cx="19"
           cy="36.5"
           r="1.7"
           id="circle243" />
        <circle
           cx="43.5"
           cy="19"
           r="1.8"
           id="circle244" />
        <circle
           cx="28.5"
           cy="34"
           r="1.8"
           id="circle245" />
        <circle
           cx="21"
           cy="41.5"
           r="1.8"
           id="circle246" />
        <circle
           cx="48.5"
           cy="21"
           r="1.9"
           id="circle247" />
      </g>
      <path
         d="m 29.5,41 c 0.5,-0.5 1.5,-1.25 3,-1.25 h 14.25 l 14.5,-14.5 a 2.75,2.75 0 0 1 3.875,3.875 L 49.25,45 V 66.375 H 30.5 v -10.5 H 22 c -3,0 -4,-3.5 -2.25,-5.25 z M 34,57.75 h 3.5 A 1.5,1.75 0 0 0 39,56 V 50 A 1.5,1.75 0 0 0 37.5,48.25 H 34 a 1.5,1.75 0 0 0 -1.5,1.75 3,3 0 0 1 0,6 1.5,1.75 0 0 0 1.5,1.75 z"
         style="stroke:none"
         id="path247" />
      <circle
         cx="39.5"
         cy="31.5"
         r="6.5"
         style="stroke:none"
         id="circle248" />
    </symbol>
    <symbol
       id="sjjb-poi.svg:mine"
       viewBox="0 0 517.2331 467.22699">
      <title
         id="title9">Mine</title>
      <path
         d="m 183.57062,0.0023637 a 10.001,10.001 0 0 0 -5.95704,1.808593 C 142.55849,26.390063 106.21725,50.009989 74.44757,81.135179 a 10.001,10.001 0 0 0 -0.12305,0.12305 C 44.459591,111.5542 25.196742,148.88188 1.924132,180.74846 a 10.001,10.001 0 0 0 2.181641,13.97657 l 52.824219,38.52929 a 10.001,10.001 0 0 0 14.109379,-2.3789 l 53.068359,-76.48438 c 1.11259,1.35797 2.49546,2.99079 4.46093,4.86914 l -0.13086,-0.12695 c 57.52237,57.0392 114.42417,114.93572 171.78516,172.39062 l -0.0156,-0.0137 127.25196,127.98828 a 10.001,10.001 0 0 0 14.22851,-0.0469 l 22.54493,-22.97266 a 10.001,10.001 0 0 0 -0.22071,-14.22656 l -130.3594,-124.82221 0.0137,0.0156 C 275.1424,241.17585 216.18389,185.37113 158.07257,128.93206 l 0.13281,0.13086 c -1.91472,-1.9295 -3.57455,-3.28235 -4.95312,-4.36915 l 75.4707,-54.498041 a 10.001,10.001 0 0 0 2.11328,-14.15235 L 191.32062,3.9554887 a 10.001,10.001 0 0 0 -7.75,-3.953125 z m 165.11132,1.541015 a 10.001,10.001 0 0 0 -6.83593,2.47461 L 290.25226,49.236739 a 10.001,10.001 0 0 0 -0.4375,14.63477 l 62.84961,62.087891 c -23.82352,25.80411 -47.76325,51.53626 -71.78125,77.2168 a 10.001,10.001 0 0 0 0.48242,14.14453 c 5.98081,5.57807 11.95355,11.15604 17.92969,16.74219 a 10.001,10.001 0 0 0 14.30273,-0.66016 c 24.16543,-27.18331 48.39777,-54.30264 72.72461,-81.28906 2.86984,1.85371 6.73864,4.80001 10.67969,8.18945 4.15931,3.57716 8.34628,7.50332 11.6289,10.78516 3.28262,3.28183 6.09012,6.71712 5.74024,6.19336 a 10.001,10.001 0 0 0 3.65234,3.29101 l 84.59375,44.59375 a 10.001,10.001 0 0 0 11.69727,-15.93359 c -0.0655,-0.0589 0.25499,0.25368 0.20898,0.17969 -0.31446,-0.50586 -0.88843,-1.5168 -1.57227,-2.82227 -1.36761,-2.61094 -3.2262,-6.44286 -5.35546,-10.99414 -4.25853,-9.10257 -9.64017,-21.14451 -15.07422,-33.27149 -5.43406,-12.12697 -10.91991,-24.33985 -15.48438,-33.97265 -2.28223,-4.8164 -4.32527,-8.97428 -6.08984,-12.27539 -0.88229,-1.65056 -1.68642,-3.08088 -2.50391,-4.37696 -0.81463,-1.29155 -1.23549,-2.29536 -3.35351,-4.14843 l -0.006,-0.004 c -6.88467,-6.03524 -15.17777,-13.483861 -23.35938,-20.830081 l 10.21875,-9.95117 a 10.001,10.001 0 0 0 -0.51758,-14.79883 l -13.78125,-11.65625 a 10.001,10.001 0 0 0 -13.46484,0.5 l -10.52539,10.33594 C 391.68605,40.846399 369.87826,19.998974 355.77946,4.7503207 A 10.001,10.001 0 0 0 348.6818,1.5432884 Z M 212.99054,280.07659 a 10.001,10.001 0 0 0 -6.99219,3.17187 c -4.22907,4.53366 -8.4768,9.06967 -12.72461,13.63281 L 70.03741,428.7094 a 10.001,10.001 0 0 0 0.56641,14.21875 l 23.78125,21.6875 a 10.001,10.001 0 0 0 14.21094,-0.74219 l 119.95312,-134.82812 0.0156,-0.0156 c 3.9758,-4.45016 7.90638,-8.89731 11.83593,-13.30468 a 10.001,10.001 0 0 0 -0.50976,-13.83985 c -6.53585,-6.32586 -13.07056,-12.67071 -19.63086,-19.00781 a 10.001,10.001 0 0 0 -7.26953,-2.80078 z"
         id="path10" />
    </symbol>
    <symbol
       id="sjjb-amenity.svg:police"
       viewBox="0 0 550.90815 508.76563">
      <title
         id="title12">Police</title>
      <path
         d="M 237.7003,0.01355803 C 231.1899,-0.20229097 225.1382,2.160729 221.5675,6.99012 l -2.0899,2.828126 c -0.8354,-0.01044 -1.6789,0.01673 -2.5293,0.08984 l -42.5214,3.65625 c -0.1,0.0086 -0.1977,0.02156 -0.2969,0.03125 l -2.6113,-2.015625 c -8.4514,-6.525495 -22.0469,-3.204008 -29.9043,7.304688 l -26.8243,35.873047 c -7.8573,10.508726 -7.3616,24.710876 1.0899,31.236336 l 8.1191,6.26758 c 0.7373,0.56924 1.5159,1.05931 2.3242,1.48047 l 12.7188,36.242178 c -3.256,4.64862 -4.9091,10.79048 -4.0898,17.18946 l 4.957,38.71093 c -23.7384,7.63329 -57.095902,22.33137 -61.123102,45.5 -0.1205,0.69339 -0.2189,1.36559 -0.3242,2.04493 -3.5849,6.54156 -1.4532,18.50971 0.061,25.39648 0.3047,0.7635 0.671,1.53793 1.084,2.31836 5.5801,16.57958 21.948702,25.65963 51.921802,29.89844 l 12.9688,2.36328 13.0332,2.15625 c 16.8109,3.47272 30.0228,3.99726 40.2988,1.30859 6.7315,6.99929 12.6155,15.53542 17.4082,25.51758 20.7209,43.1566 7.0141,88.24792 -36.1426,108.96875 -13.5059,6.4846 -26.3515,1.02602 -38.9062,3.74219 a 36.615356,36.615356 0 0 0 -34.0664,36.52539 36.615356,36.615356 0 0 0 5.8144,19.79883 c 3.0801,6.96513 9.3724,13.10562 21.7305,15.65039 0.1203,0.0248 0.2375,0.0441 0.3574,0.0684 a 36.615356,36.615356 0 0 0 5.5508,0.93945 c 20.7539,2.80569 36.171,-3.28938 57.2949,-13.43164 71.6655,-34.4087 105.3816,-125.85404 70.9727,-197.51953 -10.1404,-21.12004 -24.2515,-38.60366 -40.9453,-51.88282 -4.0984,-18.22869 -22.7355,-36.39553 -38.5528,-48.98632 1.6933,-3.91928 2.4065,-8.45741 1.8086,-13.12696 l -5.4199,-42.33398 c -1.3136,-10.25972 -8.5856,-18.31555 -17.1484,-20.01367 L 154.6577,83.949112 180.728,49.08387 c 1.4856,-1.986882 2.6695,-4.10527 3.5606,-6.279296 L 217.98,39.908089 c 1.524,1.861495 3.3306,3.583612 5.416,5.076172 l 36.4238,26.070321 c 1.3245,0.94792 2.7041,1.76368 4.1153,2.45312 -3.3711,20.41756 -5.4505,48.978528 4.6758,66.218748 -3.1177,21.10178 -1.4815,43.50941 5.5429,65.85938 23.8361,75.84033 110.9352,119.58036 186.7754,95.74414 22.3455,-7.02304 37.7615,-13.10496 50.9961,-29.31836 a 36.615356,36.615356 0 0 0 3.4238,-4.48828 c 0.073,-0.10246 0.1478,-0.19956 0.2207,-0.30274 7.2846,-10.2999 7.6841,-19.07965 5.1758,-26.26953 a 36.615356,36.615356 0 0 0 -9.2812,-18.43555 36.615356,36.615356 0 0 0 -49.8262,-3.39843 c -11.0261,6.59335 -16.6762,19.35691 -30.9707,23.84961 -45.6707,14.35403 -86.4878,-9.20825 -100.8418,-54.87891 -3.32,-10.5632 -4.8541,-20.81573 -4.7207,-30.52539 9.3404,-5.05742 18.6284,-14.46757 28.5312,-28.48828 l 8.0079,-10.43164 7.8906,-10.63282 c 18.9962,-23.579378 24.7457,-41.397858 17.4844,-57.320311 -0.2307,-0.846576 -0.4898,-1.658713 -0.7872,-2.419922 -3.5993,-6.062457 -10.2184,-16.256942 -17.3046,-18.585937 -0.5417,-0.424622 -1.0743,-0.848944 -1.6368,-1.273438 -18.0852,-13.650358 -50.6809,-2.951046 -73.207,7.369141 -1.4107,-1.622708 -3.0336,-3.13412 -4.8848,-4.458984 L 252.7745,5.249886 C 248.1063,1.908832 242.764,0.18144103 237.7003,0.01355803 Z M 361.6437,118.64247 l -5.1485,6.9375 10.4649,-13.86328 z m -217.1465,174.76367 -8.5528,-1.41602 17.1114,2.97461 z M 241.3019,21.624878 c 0.1568,-0.0087 0.3337,0.0026 0.5058,0.0098 l -0.043,0.822265 c 0.051,-0.272187 0.095,-0.54546 0.1328,-0.820312 7.5565,0.429616 28.8962,15.385937 33.9961,23.378906 -3.9122,2.190775 -6.2344,3.634766 -6.2344,3.634766 l -0.4882,0.644531 c 0,0 -0.5144,1.842624 -1.2461,4.791016 -8.8512,-2.822856 -25.876,-15.074311 -30.9004,-22.3125 1.7793,-1.98368 3.1653,-4.231017 4.0215,-6.650391 -0.2943,-1.18158 -0.7123,-2.321207 -1.2422,-3.408203 0.4855,-0.02911 0.929,-0.05812 1.498,-0.08984 z m -0.2559,3.498047 c 0.2135,0.857234 0.3681,1.734669 0.4453,2.632813 l 0.2735,-5.298829 c -0.1692,0.906038 -0.411,1.79635 -0.7188,2.666016 z m -85.2891,6.935547 c 1.8022,3.397144 4.714,6.235931 8.2832,8.232422 -2.4121,7.514323 -12.3209,21.311768 -19.7734,28.113288 -3.016,-2.08728 -6.42,-3.37923 -9.875,-3.68555 -1.2487,0.67527 -2.4023,1.49336 -3.4453,2.44336 -0.01,-0.21223 -0.016,-0.36819 -0.023,-0.59375 -0.018,-0.51387 0.058,-1.11632 0.207,-1.78125 l 0.4942,-0.0996 c -0.1591,0.0108 -0.3177,0.02 -0.4766,0.0352 1.7915,-7.77475 14.1623,-24.802956 22.0859,-30.992185 0,0.533532 0.01,1.070357 0.055,1.609375 l 0.088,-1.71875 c 0.8532,-0.656678 1.6539,-1.1896 2.3809,-1.5625 z m -24.1328,32.62891 c 0.922,-0.0624 1.8463,-0.0504 2.7676,0.0312 0.7769,-0.42016 1.5871,-0.78947 2.4375,-1.08789 l -5.2051,1.05664 z m 32.6582,78.847648 c 0.1329,0.11865 0.2292,0.20315 0.3692,0.32813 5.1102,4.56369 8.8051,30.80395 6.08,39.58594 -3.6999,-2.45357 -6.0273,-3.84961 -6.0273,-3.84961 l -0.7969,-0.13867 c 0,0 -2.4948,0.50186 -6.4726,1.4707 -3.3378,-9.37582 -5.169,-26.82581 -3.1192,-33.87305 1.4968,0.51581 3.0328,0.84914 4.5801,0.98633 2.0827,-1.12619 3.8942,-2.66479 5.3867,-4.50977 z m -5.3867,4.50977 c -0.7768,0.42004 -1.5872,0.78953 -2.4375,1.08789 l 5.2051,-1.05664 c -0.922,0.0624 -1.8463,0.0504 -2.7676,-0.0312 z m 2.7676,0.0312 c 1.5101,-0.10216 3.0121,-0.39558 4.4785,-0.91016 z"
         id="path13" />
      <path
         opacity="0.8"
         d="m 411.5655,24.716683 c -13.526,0.02488 -27.2595,2.063754 -40.8027,6.320313 -16.936,5.322897 -32.1298,13.689351 -45.168,24.267582 l 27.7344,43.835934 c 12.2638,-9.38739 15.554,-16.48428 29.2754,-20.79687 49.2808,-15.48868 95.4899,11.90868 110.9785,61.189448 12.759,40.59559 1.9806,68.20185 -29.7422,85.32422 l 46.1465,42.51758 C 549.186,232.42189 560.0381,174.11448 543.339,120.98231 524.894,62.295172 470.1783,24.608876 411.5655,24.716683 Z M 127.6085,222.537 c -16.7479,1.18326 -33.560702,5.45283 -49.564502,13.13672 -68.2543,32.77094 -97.3374,115.33174 -64.5664,183.58593 24.1062,50.20738 71.8672,85.37049 124.371102,84.11328 l 4.6465,-62.57421 c -34.8629,9.17005 -61.593404,-3.6254 -80.011704,-41.98633 -22.3588,-46.56797 -7.3337,-98.14517 39.234404,-120.50391 12.966,-6.22536 20.2171,-3.29065 35.5859,-4.81445 L 127.6085,222.537 Z"
         id="path14" />
    </symbol>
    <symbol
       id="sjjb-amenity.svg:town_hall"
       viewBox="0 0 524.11353 529.76758">
      <title
         id="title35">Town hall</title>
      <path
         opacity="0.2"
         d="M 262.0556,13.546743 9.99616,205.45417 H 60.407716 V 513.31516 H 211.64373 315.92452 463.70351 V 205.45417 h 50.4119 L 262.05561,13.546743 Z"
         id="path36" />
      <path
         d="m 262.05577,6e-6 a 10.001,10.001 0 0 0 -6.02343,2.140625 L 255.99914,2.042971 3.93859,193.95118 a 10.001,10.001 0 0 0 6.058594,17.95507 h 40.41211 v 307.86133 a 10.001,10.001 0 0 0 10,10 H 211.64365 315.92491 463.7042 a 10.001,10.001 0 0 0 10,-10 V 211.90625 h 40.41211 a 10.001,10.001 0 0 0 6.0586,-17.95507 L 268.11437,2.042971 l -0.004,0.01367 A 10.001,10.001 0 0 0 262.05568,1.0000001e-6 Z m 0.002,22.568359 222.41406,169.337885 h -20.76758 a 10.001,10.001 0 0 0 -10,10 V 509.76758 H 315.92496 211.6437 70.40934 V 201.90625 a 10.001,10.001 0 0 0 -10,-10 H 39.639809 L 262.05773,22.568365 Z M 178.59679,229.99024 a 48.797817,9.7595634 23.569103 0 0 -5.05078,1.94336 48.797817,9.7595634 23.569103 0 0 -0.0195,1.75587 l -1.99414,4.56836 c -0.18457,0.18987 -0.33257,0.39342 -0.4336,0.625 -2.15524,4.9404 15.88845,17.58386 40.32032,28.24219 24.27694,10.59075 45.70446,15.22408 48.08984,10.43554 l 0.0234,0.01 0.0391,-0.0918 2.39648,-5.49023 a 48.797817,9.7595634 23.569103 0 0 1.03125,-1.0293 48.797817,9.7595634 23.569103 0 0 -40.82421,-28.45898 48.797817,9.7595634 23.569103 0 0 -43.57813,-12.50977 z m -10.79883,16.83203 -23.60547,54.10742 c -0.18457,0.18986 -0.33256,0.39342 -0.43359,0.625 -2.15524,4.94042 15.88843,17.58386 40.32031,28.24219 24.27693,10.59075 45.70447,15.22408 48.08985,10.43555 l 0.0234,0.01 0.0391,-0.0918 3.30078,-7.56446 168.9375,85.47852 a 17.90179,17.90179 0 0 0 2.20898,0.95117 14.774606,17.694323 34.422695 0 0 17.0332,-2.36523 14.774606,17.694323 34.422695 0 0 5.51563,-23.70118 14.774606,17.694323 34.422695 0 0 -5.28711,-4.70703 17.90179,17.90179 0 0 0 -3.30664,-2.12109 l -170.76367,-86.40235 6.34375,-14.54296 c -5.0724,2.92292 -25.11615,-1.87571 -47.57617,-11.67383 -22.14991,-9.66284 -39.12055,-20.89787 -40.83985,-26.67969 z m -27.33984,62.67188 -2.62305,6.01171 c -0.18457,0.18987 -0.33453,0.39147 -0.43555,0.62305 -2.15524,4.94041 15.89039,17.58385 40.32227,28.24219 24.27693,10.59074 45.70446,15.22409 48.08984,10.43555 l 0.0215,0.01 0.041,-0.0918 3,-6.87695 c -5.07241,2.92292 -25.11614,-1.87571 -47.57617,-11.67383 -22.14991,-9.66284 -39.12054,-20.89786 -40.83984,-26.67968 z m 36.28906,82.08007 a 16.949732,84.748657 89.726318 0 0 -84.666015,17.35352 16.949732,84.748657 89.726318 0 0 1.20313,2.80469 l 0.041,8.65625 c -0.15995,0.43118 -0.25599,0.85612 -0.25391,1.29492 0.0448,9.36098 37.585985,16.77971 83.878905,16.55859 45.99935,-0.21974 83.28931,-7.90623 83.71679,-17.1875 h 0.043 v -0.17187 l -0.0508,-10.40039 a 16.949732,84.748657 89.726318 0 0 0.91797,-2.36328 16.949732,84.748657 89.726318 0 0 -84.83008,-16.54493 z"
         id="path37" />
    </symbol>
    <symbol
       id="MapSymbolsNPS.svg:Campfire">
      <title
         id="title34">Campfire</title>
      <g
         style="stroke:none"
         id="g39">
        <path
           d="M 12,50.5 H 6.5 V 61 c 0,3.5 3,5.75 6.5,5.75 h 46 c 3.5,0 6.5,-2.25 6.5,-5.75 V 50.5 H 60 V 60 c 0,1 -1,2 -2,2 H 14 c -1,0 -2,-1 -2,-2 z"
           id="path34" />
        <path
           d="M 32.5,53.25 18,58 v -8 l 2.625,-0.875 z"
           id="path35" />
        <path
           d="m 54,57.5 v -8 l -36,-12 v 8 z"
           id="path36-0" />
        <path
           d="M 39,41.75 54,36.625 V 45 l -2.5,0.875 z"
           id="path37-9" />
        <path
           d="M 26.5,37.5 C 25,36 17,26.5 25.5,18 c 7,-7 7.5,-12 5,-15 0,0 17.5,7 7.5,24 -2,3 -6,6.5 -4,13 z"
           id="path38" />
        <path
           d="M 37,39.75 C 36.5,38.5 35,35.5 40,29.5 c 3,-3.5 3.5,-8 4,-10 0,0 9,5 0.25,17.75 z"
           id="path39" />
      </g>
    </symbol>
    <symbol
       id="sjjb-tourist.svg:castle2"
       viewBox="0 0 488.9444 327.60758">
      <title
         id="title13">Castle 2</title>
      <path
         d="m 3.3542043,7e-5 a 3.0003,3.0003 0 0 0 -3,2.98828 L 6.8825e-4,99.62897 a 3.0003,3.0003 0 0 0 0,0.004 v 0.0742 a 3.0003,3.0003 0 0 0 3.02539105,3.06445 L 32.51436,102.5099 v 222.09766 a 3.0003,3.0003 0 0 0 3,3 h 160.80468 a 3.0003,3.0003 0 0 0 3,-3 v -81.32227 h 90.57227 v 81.32227 a 3.0003,3.0003 0 0 0 3,3 h 160.58203 a 3.0003,3.0003 0 0 0 3,-3 V 102.5099 l 29.44531,0.26172 a 3.0003,3.0003 0 0 0 3.02149,-3.16015 v -0.006 L 488.59053,2.98828 a 3.0003,3.0003 0 0 0 -3,-2.98828 h -32.11719 a 3.0003,3.0003 0 0 0 -3,3 V 32.16015 H 424.35811 V 3 a 3.0003,3.0003 0 0 0 -3,-3 h -32.11719 a 3.0003,3.0003 0 0 0 -3,3 V 32.16015 H 360.12568 V 3 a 3.0003,3.0003 0 0 0 -3,-3 H 325.0085 a 3.0003,3.0003 0 0 0 -3,3 v 96.48242 a 3.0003,3.0003 0 0 0 3,3 h 29.11718 v 58.32227 H 328.0085 v -29.16016 a 3.0003,3.0003 0 0 0 -3,-3 h -32.11719 a 3.0003,3.0003 0 0 0 -3,3 v 29.16016 h -26.11524 v -29.16016 a 3.0003,3.0003 0 0 0 -3,-3 H 228.4792 a 3.0003,3.0003 0 0 0 -3,3 v 29.15625 h -26.16016 v -29.15625 a 3.0003,3.0003 0 0 0 -3,-3 h -32.16015 a 3.0003,3.0003 0 0 0 -3,3 v 29.15625 h -26.16211 v -58.31836 h 29.16211 a 3.0003,3.0003 0 0 0 3,-3 V 3 a 3.0003,3.0003 0 0 0 -3,-3 h -32.16211 a 3.0003,3.0003 0 0 0 -3,3 V 32.16015 H 102.83662 V 3 A 3.0003,3.0003 0 0 0 99.836624,0 h -32.16015 a 3.0003,3.0003 0 0 0 -3,3 V 32.16015 H 38.514352 V 3 a 3.0003,3.0003 0 0 0 -3,-3 H 3.3541963 Z"
         id="path14-4" />
    </symbol>
    <symbol
       id="sjjb-transport.svg:lighthouse"
       viewBox="0 0 522.62512 518.7735">
      <title
         id="title22">Lighthouse</title>
      <path
         opacity="0.5"
         d="m 5.1329317,45.002029 a 5.0005,5.0005 0 0 0 -5.132813,5.033203 l 0.59179702,85.763678 a 5.0005,5.0005 0 0 0 5.61718698,4.92578 L 208.87512,115.46688 a 5.0005,5.0005 0 0 0 4.38085,-4.96289 V 75.851639 a 5.0005,5.0005 0 0 0 -4.36914,-4.960934 L 5.6309727,45.041091 a 5.0005,5.0005 0 0 0 -0.498046,-0.03906 z m 512.3456983,0 a 5.0005,5.0005 0 0 0 -0.48633,0.03906 L 314.32824,70.890705 a 5.0005,5.0005 0 0 0 -4.36914,4.960934 v 34.060551 a 5.0005,5.0005 0 0 0 4.36914,4.96094 l 202.66406,25.84961 a 5.0005,5.0005 0 0 0 5.63282,-4.95899 V 50.000076 a 5.0005,5.0005 0 0 0 -5.14649,-4.998047 z"
         id="path23" />
      <path
         d="M 260.32824,7.583807e-5 A 5.0005,5.0005 0 0 0 257.86926,0.63093484 L 186.21496,40.572341 a 5.0005,5.0005 0 0 0 -0.31055,0.189453 c -2.15628,1.416175 -4.02984,4.268636 -4.02929,7.119141 -2.2e-4,1.813464 0.53035,4.071366 2.19921,5.740234 1.66887,1.668869 3.92672,2.199559 5.74024,2.199219 h 140.97851 c 1.87057,6e-5 3.99995,-0.354382 5.84766,-1.892578 1.84832,-1.5387 2.68322,-4.066016 2.68359,-6.046875 a 5.0005,5.0005 0 0 0 0,-0.002 c -8.8e-4,-2.832275 -1.84782,-5.680096 -3.99218,-7.103516 a 5.0005,5.0005 0 0 0 -0.34571,-0.21089 L 262.72277,0.62312284 A 5.0005,5.0005 0 0 0 260.32824,7.583807e-5 Z M 261.51183,57.029373 c -20.08716,-4e-6 -36.46289,16.377676 -36.46289,36.464846 0,20.087171 16.37572,36.462901 36.46289,36.462891 20.08717,0 36.46485,-16.37572 36.46485,-36.462891 0,-20.08717 -16.37768,-36.464844 -36.46485,-36.464846 z m -74.63671,75.748047 c -2.98692,2.1e-4 -6.12839,0.82916 -8.38086,3.08789 -2.25248,2.25874 -3.07438,5.39657 -3.07422,8.38477 -1.6e-4,2.98471 0.82385,6.12073 3.07812,8.375 2.25428,2.25427 5.39224,3.07832 8.37696,3.07813 h 6.62695 l -47.41992,357.4121 a 5.0005,5.0005 0 0 0 4.95703,5.65821 h 218.52929 a 5.0005,5.0005 0 0 0 4.95899,-5.65039 L 327.68762,155.70321 h 6.63671 c 2.98452,1.9e-4 6.12089,-0.82403 8.375,-3.07813 2.25412,-2.2541 3.07787,-5.3904 3.07813,-8.375 -2.6e-4,-2.98809 -0.81996,-6.12619 -3.07227,-8.38477 -2.25231,-2.25855 -5.39413,-3.08768 -8.38086,-3.08789 z"
         id="path24" />
    </symbol>
    <symbol
       id="sjjb-accommodation.svg:symbol55"
       viewBox="0 0 540.77674 452.11524">
      <title
         id="title53">Youth hostel</title>
      <path
         opacity="0.350962"
         d="M 348.72956,5.0004485 161.68288,196.97661 h 37.40909 V 444.94069 H 311.32023 V 298.60018 H 388.704 l 2.6e-4,146.34051 h 109.6629 V 196.97661 h 37.40934 z"
         id="path54" />
      <path
         d="M 348.72288,5.4963181e-6 A 5.0005,5.0005 0 0 0 345.14866,1.5097705 L 174.8596,176.28712 118.63695,55.18946 a 2.1293943,2.1293943 0 0 0 -2.04688,-1.22656 2.1293943,2.1293943 0 0 0 -0.0215,0 2.1293943,2.1293943 0 0 0 -0.19141,-0.004 2.1293943,2.1293943 0 0 0 -1.86914,1.23242 L 25.615461,246.95118 a 2.1293943,2.1293943 0 0 0 1.931641,3.02344 h 15.957031 l -29.400391,53.40039 a 2.1293943,2.1293943 0 0 0 1.865235,3.15625 H 35.347883 L 0.306868,364.51563 a 2.1293943,2.1293943 0 0 0 2.138671,3.20703 L 92.35374,354.25001 v 95.73437 a 2.1293943,2.1293943 0 0 0 2.12891,2.13086 h 21.95703 a 2.1293943,2.1293943 0 0 0 0.11328,-0.006 2.1293943,2.1293943 0 0 0 0.002,0 2.1293943,2.1293943 0 0 0 0.15039,0.006 h 21.95704 a 2.1293943,2.1293943 0 0 0 2.13086,-2.13086 v -95.73633 l 53.29882,7.97657 v 82.71484 a 5.0005,5.0005 0 0 0 5,5 h 112.22852 a 5.0005,5.0005 0 0 0 5,-5 V 303.59962 h 67.38476 v 141.33984 a 5.0005,5.0005 0 0 0 5,5 h 109.66211 a 5.0005,5.0005 0 0 0 5,-5 V 201.97657 h 32.41016 a 5.0005,5.0005 0 0 0 3.58008,-8.49024 L 352.31077,1.5097705 A 5.0005,5.0005 0 0 0 348.72288,5.4963181e-6 Z M 348.73088,12.164067 523.92619,191.97657 h -25.5586 a 5.0005,5.0005 0 0 0 -5,5 V 439.93946 H 393.70548 V 298.59962 a 5.0005,5.0005 0 0 0 -5,-5 h -77.38476 a 5.0005,5.0005 0 0 0 -5,5 V 439.93946 H 204.0922 v -76.21875 l 26.74219,4.00195 a 2.1293943,2.1293943 0 0 0 2.13672,-3.20703 L 204.0922,316.72852 v -10.19726 h 13.08399 a 2.1293943,2.1293943 0 0 0 1.86523,-3.15625 L 204.0922,276.22266 v -26.24804 h 1.64063 a 2.1293943,2.1293943 0 0 0 1.93164,-3.02539 l -3.57227,-7.69532 v -42.27734 a 5.0005,5.0005 0 0 0 -5,-5 H 182.14298 L 179.36564,185.99415 348.7307,12.164067 Z M 186.78538,201.97657 h 7.30664 v 15.73828 z m 2.85547,47.99805 h 4.45117 v 8.08398 z"
         id="path55" />
    </symbol>
    <symbol
       id="sjjb-tourist.svg:windmill"
       viewBox="0 0 452.43613 516.97443">
      <title
         id="title41-8">Windmill</title>
      <path
         opacity="0.5"
         d="m 118.72278,514.30224 55.55066,-326.72348 52.30492,-31.31861 51.16448,32.1539 c 0,0 46.84413,331.20079 41.39798,328.54447 -5.44615,-2.65628 -199.3288,1.32817 -200.41804,-2.65628 z"
         id="path42-2" />
      <path
         d="M 73.478336,0.00882752 A 12.30123,12.30123 0 0 0 64.607246,3.3193745 L 3.89435,60.133829 A 12.30123,12.30123 0 0 0 4.3006,78.458057 L 183.23028,231.65923 4.3006,384.8604 a 12.30123,12.30123 0 0 0 -0.40625,18.32422 l 60.712896,56.81445 a 12.30123,12.30123 0 0 0 18.32226,-1.70508 L 226.21857,262.93657 369.50568,458.29399 a 12.30123,12.30123 0 0 0 18.32227,1.70508 l 60.71289,-56.81445 a 12.30123,12.30123 0 0 0 -0.4043,-18.32422 L 269.2049,231.65923 448.13654,78.458057 a 12.30123,12.30123 0 0 0 0.4043,-18.324228 L 387.82795,3.3193705 A 12.30123,12.30123 0 0 0 378.83576,0.01468402 12.30123,12.30123 0 0 0 369.50568,5.024449 L 226.21857,200.38188 82.929506,5.024449 A 12.30123,12.30123 0 0 0 73.478332,0.00882652 Z M 226.21857,224.11821 l 7.79493,7.54102 -7.79493,7.54101 -7.79492,-7.54101 z"
         id="path43-4" />
    </symbol>
  </defs>
  <sodipodi:namedview
     id="base"
     pagecolor="#ffffff"
     bordercolor="#666666"
     borderopacity="1.0"
     inkscape:pageopacity="0.0"
     inkscape:pageshadow="2"
     inkscape:zoom="4.05"
     inkscape:cx="98.395062"
     inkscape:cy="79.382716"
     inkscape:document-units="px"
     inkscape:current-layer="g5175"
     showgrid="false"
     fit-margin-top="0"
     fit-margin-left="0"
     fit-margin-right="0"
     fit-margin-bottom="0"
     inkscape:window-width="1600"
     inkscape:window-height="847"
     inkscape:window-x="-8"
     inkscape:window-y="22"
     inkscape:window-maximized="1"
     showguides="false"
     inkscape:object-nodes="true"
     units="px"
     inkscape:snap-page="true"
     inkscape:showpageshadow="2"
     inkscape:pagecheckerboard="0"
     inkscape:deskcolor="#d1d1d1" />
  <metadata
     id="metadata5">
    <rdf:RDF>
      <cc:Work
         rdf:about="">
        <dc:format>image/svg+xml</dc:format>
        <dc:type
           rdf:resource="http://purl.org/dc/dcmitype/StillImage" />
      </cc:Work>
    </rdf:RDF>
  </metadata>
  <g
     inkscape:label="Layer 1"
     inkscape:groupmode="layer"
     id="layer1"
     transform="translate(98.048812,-95.14345)">
    <g
       style="stroke-width:0.5"
       transform="matrix(2,0,0,2,-98.048812,95.143449)"
       id="g5175">
      <rect
         y="-1.110223e-16"
         x="0"
         height="26.458334"
         width="26.458334"
         id="rect5163"
         style="opacity:1;fill:#222222;fill-opacity:1;fill-rule:nonzero;stroke:none;stroke-width:0.25;stroke-linecap:butt;stroke-linejoin:round;stroke-miterlimit:4;stroke-dasharray:none;stroke-dashoffset:0;stroke-opacity:0.90944878;paint-order:normal"
         rx="1.984375"
         ry="1.984375" />
      <rect
         style="display:inline;opacity:1;fill:#442178;fill-opacity:1;fill-rule:nonzero;stroke:none;stroke-width:0.25;stroke-linecap:butt;stroke-linejoin:round;stroke-miterlimit:4;stroke-dasharray:none;stroke-dashoffset:0;stroke-opacity:0.909449;paint-order:normal"
         id="rect5165"
         width="23.8125"
         height="23.8125"
         x="1.2166586"
         y="1.322917"
         rx="1.3229166"
         ry="1.3229166" />
      <path
         style="display:inline;opacity:1;fill:#222222;fill-opacity:1;fill-rule:nonzero;stroke:none;stroke-width:0.256624;stroke-linecap:butt;stroke-linejoin:round;stroke-miterlimit:4;stroke-dasharray:none;stroke-dashoffset:0;stroke-opacity:0.909449;paint-order:normal"
         d="m 0.35570063,18.520836 v 4.326576 c 0,1.597948 1.25747387,2.884382 2.81944767,2.884382 H 22.911281 c 1.561974,0 2.819448,-1.286434 2.819448,-2.884382 v -4.326576 z"
         id="rect5205-3-6"
         inkscape:connector-curvature="0" />
      <text
         xml:space="preserve"
         style="font-style:normal;font-variant:normal;font-weight:bold;font-stretch:normal;font-size:3.77023px;font-family:'Times New Roman';-inkscape-font-specification:'Times New Roman,  Bold';text-align:center;writing-mode:lr-tb;direction:ltr;text-anchor:middle;mix-blend-mode:normal;fill:#ffffff;fill-opacity:1;stroke-width:0.0607967"
         x="16.645395"
         y="18.7381"
         id="text12"
         transform="scale(0.78929832,1.2669481)"><tspan
           sodipodi:role="line"
           id="tspan12"
           style="font-style:normal;font-variant:normal;font-weight:bold;font-stretch:normal;font-size:3.77023px;font-family:'Times New Roman';-inkscape-font-specification:'Times New Roman,  Bold';text-align:center;text-anchor:middle;fill:#ffffff;stroke-width:0.0607967"
           x="16.645395"
           y="18.7381">DECELERATION</tspan></text>
      <path
         style="fill:#222222;fill-opacity:1;stroke-width:0.200803"
         d=""
         id="path18"
         transform="scale(0.13229167)" />
      <use
         xlink:href="#sjjb-tourist.svg:windmill"
         width="452.43613"
         height="516.97443"
         style="fill:#222222;stroke:none;fill-opacity:1"
         id="use1"
         transform="matrix(0.03508783,0,0,0.03070752,5.2916667,1.9843755)" />
    </g>
    <g
       style="stroke-width:0.5"
       id="g5375"
       transform="matrix(2,0,0,2,298.8262,161.81845)">
      <rect
         ry="1.984375"
         rx="1.984375"
         style="opacity:1;fill:#222222;fill-opacity:1;fill-rule:nonzero;stroke:none;stroke-width:0.25;stroke-linecap:butt;stroke-linejoin:round;stroke-miterlimit:4;stroke-dasharray:none;stroke-dashoffset:0;stroke-opacity:0.90944878;paint-order:normal"
         id="rect5363"
         width="26.458334"
         height="26.458334"
         x="0"
         y="-1.110223e-16" />
      <rect
         ry="1.3229166"
         rx="1.3229166"
         y="1.322917"
         x="1.322917"
         height="23.8125"
         width="23.8125"
         id="rect5365"
         style="opacity:1;fill:#9c27b0;fill-opacity:1;fill-rule:nonzero;stroke:none;stroke-width:0.25;stroke-linecap:butt;stroke-linejoin:round;stroke-miterlimit:4;stroke-dasharray:none;stroke-dashoffset:0;stroke-opacity:0.90944878;paint-order:normal" />
      <path
         inkscape:connector-curvature="0"
         style="font-style:normal;font-variant:normal;font-weight:bold;font-stretch:normal;font-size:4.23333311px;line-height:4.23333311px;font-family:Montserrat;-inkscape-font-specification:'Montserrat Bold';text-align:center;text-anchor:middle;opacity:1;fill:#222222;fill-opacity:1;fill-rule:nonzero;stroke:none;stroke-width:0.24999999;stroke-linecap:butt;stroke-linejoin:round;stroke-miterlimit:4;stroke-dasharray:none;stroke-dashoffset:0;stroke-opacity:0.90944878;paint-order:normal"
         d="m 10.804879,3.4467321 a 0.15871531,0.15871531 0 0 0 -0.136382,0.1146841 0.15871531,0.15871531 0 0 0 0,0.00252 C 10.140525,3.6384432 9.6416792,3.965285 9.1881282,4.6909495 8.7115532,5.4663873 8.3524323,6.579977 8.0772328,7.9666052 6.7809381,7.5183239 5.6533861,7.2662043 4.7408247,7.2822132 3.7816738,7.2991518 3.1147858,7.5444251 2.8147338,8.0695121 a 0.15871531,0.15871531 0 0 0 0,0.00253 C 2.7114104,8.2598824 2.6603742,8.4734102 2.6603742,8.7068424 c 0,0.4210159 0.1552856,0.8916088 0.4475822,1.4177576 0.4325522,0.800072 1.2077345,1.656709 2.2422503,2.565227 -1.0505355,0.923913 -1.835515,1.786695 -2.2682869,2.580106 a 0.15871531,0.15871531 0 0 0 0,0.002 c -0.2751035,0.525219 -0.4215456,0.985636 -0.4215456,1.389797 0,0.23355 0.051235,0.447071 0.1543596,0.634798 a 0.15871531,0.15871531 0 0 0 0,0.0025 c 0.291392,0.51696 0.943761,0.765711 1.8864159,0.799078 a 0.15871531,0.15871531 0 0 0 0.00252,0 c 0.9137959,0.02385 2.0535277,-0.233556 3.3717428,-0.696171 0.2741331,1.348491 0.6233467,2.453038 1.0867197,3.23598 a 0.15871531,0.15871531 0 0 0 0,0.002 c 0.500317,0.825527 1.0505898,1.281995 1.6589068,1.281995 0.601456,0 1.143394,-0.456502 1.635347,-1.281995 a 0.15871531,0.15871531 0 0 0 0,-0.002 c 0.463775,-0.783622 0.815602,-1.888301 1.089818,-3.238461 1.329834,0.457616 2.472598,0.71099 3.381042,0.686873 0.941434,-0.02479 1.593573,-0.269105 1.885797,-0.78482 v -0.0025 c 0.112868,-0.188987 0.168617,-0.409658 0.168617,-0.651537 0,-0.404148 -0.146131,-0.860011 -0.421545,-1.377461 a 0.15871531,0.15871531 0 0 0 0,-0.0025 c -0.442823,-0.797089 -1.23398,-1.657456 -2.293703,-2.579495 1.035751,-0.909437 1.822657,-1.768065 2.270146,-2.575146 h -0.0025 c 0.292427,-0.5180303 0.447581,-0.9804659 0.447581,-1.3941992 0,-0.2419357 -0.05577,-0.4625695 -0.168619,-0.6515355 C 18.512152,7.5425303 17.843709,7.2989275 16.877611,7.2822708 15.967425,7.2660519 14.83776,7.5183689 13.538724,7.964183 13.2636,6.5792764 12.907093,5.4657804 12.430927,4.6910059 11.93891,3.8904337 11.406296,3.446827 10.820996,3.446827 a 0.15871531,0.15871531 0 0 0 -0.01612,0 z m 0.01612,0.9373179 c 0.150341,0 0.307715,0.067598 0.482918,0.2318503 0.175202,0.1642516 0.359966,0.4245219 0.545528,0.7798595 0.346282,0.6549206 0.623917,1.637559 0.838751,2.8683679 C 12.063219,8.5044145 11.441451,8.7755104 10.823482,9.0818019 10.1896,8.7745053 9.5580522,8.5050791 8.9302472,8.2641277 9.1450812,7.0333188 9.4227172,6.0506804 9.7689982,5.3957598 9.9543492,5.040836 10.140769,4.7800283 10.319487,4.6159003 10.498204,4.4517709 10.66064,4.38405 10.821003,4.38405 Z M 4.7637673,8.1296051 c 0.0911,-0.00115 0.1872412,6.346e-4 0.2888825,0.00565 0.7474087,0.037804 1.7184191,0.2872155 2.8559695,0.7048491 C 7.8091824,9.5057349 7.7347419,10.1847 7.6885481,10.876545 7.1087668,11.268017 6.5593987,11.671897 6.038942,12.090331 5.1011119,11.31416 4.3963857,10.596689 3.988867,9.9627665 a 0.15871531,0.15871531 0 0 0 0,-0.00253 C 3.7681673,9.6213132 3.6336709,9.3292372 3.580961,9.0911211 3.5282498,8.8530027 3.5516668,8.6760009 3.6373786,8.5331928 a 0.15871531,0.15871531 0 0 0 0.00252,-0.00253 c 0.077723,-0.1367995 0.2165721,-0.2425416 0.4500609,-0.3136849 0.1751178,-0.053358 0.4005682,-0.083788 0.673853,-0.0874 z m 12.1033117,0 c 0.27339,0.00358 0.499447,0.033915 0.676332,0.0874 0.234475,0.070887 0.376969,0.1768772 0.458741,0.313679 0.08224,0.1423488 0.106741,0.319181 0.05208,0.5579284 -0.05467,0.2387484 -0.192044,0.5324907 -0.412866,0.8716061 a 0.15871531,0.15871531 0 0 0 0,0.00253 c -0.407388,0.6412594 -1.116485,1.3628534 -2.061855,2.1393474 -0.520806,-0.418729 -1.06877,-0.824565 -1.648986,-1.216282 -0.04645,-0.698312 -0.126237,-1.3800514 -0.23247,-2.0457355 1.137528,-0.4174882 2.114328,-0.6667861 2.877667,-0.7048491 h 0.002 c 0.10164,-0.00496 0.198374,-0.00669 0.289502,-0.00565 z m -4.035678,1.0433264 c 0.04584,0.3539495 0.08088,0.7148688 0.112198,1.0798995 -0.175573,-0.108229 -0.351341,-0.216193 -0.526931,-0.327937 a 0.15871531,0.15871531 0 0 0 -0.0069,-0.00427 C 12.214625,9.8121648 12.028243,9.7125709 11.840155,9.6112854 12.174114,9.458371 12.504862,9.3113246 12.831407,9.1730008 Z m -4.0418758,0.00935 c 0.326574,0.1336185 0.657179,0.2795376 0.991253,0.4314618 -0.186048,0.1011782 -0.370227,0.2010224 -0.559789,0.3093389 a 0.15871531,0.15871531 0 0 0 -0.0049,0.00196 c -0.182855,0.1129498 -0.361907,0.2210548 -0.541185,0.3304198 0.03138,-0.364238 0.06877,-0.7236537 0.114684,-1.0730809 z m 2.0060608,0.9373175 c 0.380181,0.198616 0.760401,0.400801 1.140652,0.613721 0.371731,0.21239 0.734257,0.434199 1.091678,0.660834 0.02131,0.42509 0.03285,0.856072 0.03285,1.295632 0,0.432446 -0.01154,0.86114 -0.03285,1.286333 -0.349844,0.226046 -0.713033,0.446287 -1.091678,0.658356 a 0.15871531,0.15871531 0 0 0 -0.0025,0.0025 c -0.371354,0.219764 -0.744002,0.424638 -1.115216,0.623009 -0.383491,-0.197657 -0.757492,-0.404235 -1.1195748,-0.62302 a 0.15871531,0.15871531 0 0 0 -0.0074,-0.0025 c -0.386186,-0.212008 -0.751044,-0.432481 -1.1010585,-0.658357 -0.014251,-0.425344 -0.021077,-0.853753 -0.021077,-1.286334 0,-0.43968 0.00695,-0.870323 0.021076,-1.295631 0.3576325,-0.22649 0.7242425,-0.448455 1.1034555,-0.660834 a 0.15871531,0.15871531 0 0 0 0.0025,0 c 0.3630898,-0.211751 0.7289838,-0.416062 1.0991248,-0.613701 z m 0.02542,1.485328 c -0.188874,0 -0.3708,0.04999 -0.538711,0.143202 -0.171397,0.08681 -0.3084208,0.221062 -0.4029468,0.391169 -0.09393,0.16904 -0.143202,0.354836 -0.143202,0.550488 0,0.188829 0.04989,0.373214 0.143202,0.541191 a 0.15871531,0.15871531 0 0 0 0.0025,0.0025 c 0.09539,0.162205 0.2318638,0.293164 0.4004678,0.38683 0.167961,0.09331 0.349881,0.142581 0.538712,0.142581 0.182147,0 0.360733,-0.04998 0.52755,-0.142581 0.168607,-0.09366 0.305067,-0.224631 0.400468,-0.38683 a 0.15871531,0.15871531 0 0 0 0.0025,-0.0025 c 0.0933,-0.167972 0.142582,-0.352359 0.142582,-0.541191 0,-0.195699 -0.04866,-0.381459 -0.142582,-0.550488 -0.09453,-0.170196 -0.231581,-0.304361 -0.402947,-0.391169 -0.166866,-0.09271 -0.345443,-0.143202 -0.527551,-0.143202 z m -3.1839118,0.440762 c -0.00372,0.214088 -0.00744,0.42643 -0.00744,0.644097 0,0.211732 0.00372,0.42303 0.00744,0.634798 -0.3033437,-0.208533 -0.599767,-0.419111 -0.8809054,-0.634798 0.2813243,-0.220605 0.5773205,-0.434325 0.8809054,-0.644097 z m 6.3467368,0 c 0.305228,0.210184 0.604168,0.422996 0.890825,0.644097 -0.286462,0.216167 -0.585836,0.425848 -0.890825,0.634798 0.0071,-0.211604 0.01673,-0.42321 0.01673,-0.634798 0,-0.217475 -0.0095,-0.430149 -0.01673,-0.644097 z M 6.0296423,13.2781 c 0.5275631,0.418627 1.0784643,0.823966 1.6589043,1.215663 0.046328,0.690981 0.1207678,1.369074 0.2200723,2.033955 -1.160654,0.425172 -2.144836,0.675309 -2.8913055,0.705469 C 4.61878,17.248937 4.3031245,17.217547 4.0731758,17.146397 3.8432258,17.075227 3.7056835,16.970535 3.6280732,16.837059 3.5506142,16.70381 3.5280247,16.531303 3.5809642,16.295868 3.6338912,16.060432 3.7639564,15.76801 3.9770937,15.4286 a 0.15871531,0.15871531 0 0 0 0.00252,-0.002 c 0.3832817,-0.631258 1.0899612,-1.357034 2.0500742,-2.148612 z m 9.5591617,0 c 0.96081,0.791844 1.672955,1.518278 2.064332,2.150501 a 0.15871531,0.15871531 0 0 0 0,0.0025 c 0.216985,0.339287 0.350189,0.630109 0.402948,0.864788 0.05275,0.234678 0.02916,0.40539 -0.05146,0.53871 a 0.15871531,0.15871531 0 0 0 0,0.0025 c -0.07762,0.13351 -0.217644,0.238174 -0.447582,0.309341 -0.229941,0.07116 -0.545612,0.102586 -0.944138,0.08679 -0.746585,-0.0301 -1.734583,-0.280105 -2.903084,-0.70547 0.09934,-0.664867 0.1745,-1.342932 0.220691,-2.033956 0.580438,-0.391713 1.13072,-0.797047 1.658285,-1.215663 z m -6.9139598,1.83434 c 0.179297,0.11221 0.356256,0.226872 0.546149,0.335376 0.183963,0.108171 0.37225,0.208311 0.559787,0.30934 -0.334633,0.153247 -0.66654,0.299067 -0.993731,0.437665 -0.04593,-0.354709 -0.08083,-0.716546 -0.112201,-1.082381 z m 4.2687668,0.0025 c -0.03133,0.365031 -0.06636,0.72595 -0.11221,1.079899 -0.326544,-0.138319 -0.657293,-0.284745 -0.991251,-0.437662 0.188098,-0.101294 0.374478,-0.200883 0.569706,-0.30934 a 0.15871531,0.15871531 0 0 0 0.002,-0.0025 c 0.182513,-0.107351 0.356337,-0.219479 0.531892,-0.330417 z m -2.148023,1.171648 c 0.628416,0.308237 1.259678,0.581275 1.895095,0.829452 -0.207335,1.202298 -0.481959,2.171875 -0.829453,2.844192 a 0.15871531,0.15871531 0 0 0 0,0.0025 c -0.181416,0.358889 -0.367022,0.621577 -0.543669,0.787298 -0.176647,0.165722 -0.336712,0.23433 -0.496555,0.23433 -0.164814,0 -0.330249,-0.07084 -0.510814,-0.23681 -0.180567,-0.165946 -0.3676438,-0.428443 -0.5529688,-0.78727 -0.347492,-0.672316 -0.622117,-1.641893 -0.829453,-2.84419 0.625889,-0.247397 1.2488838,-0.522441 1.8678178,-0.829454 z"
         id="text5407" />
      <path
         inkscape:connector-curvature="0"
         id="path5369"
         d="m 0.72760492,18.520836 v 4.167188 c 0,1.539081 1.23904398,2.778124 2.77812498,2.778124 H 22.952604 c 1.539081,0 2.778125,-1.239043 2.778125,-2.778124 v -4.167188 z"
         style="opacity:1;fill:#222222;fill-opacity:1;fill-rule:nonzero;stroke:none;stroke-width:0.24999997;stroke-linecap:butt;stroke-linejoin:round;stroke-miterlimit:4;stroke-dasharray:none;stroke-dashoffset:0;stroke-opacity:0.90944878;paint-order:normal" />
      <g
         id="text5373"
         style="font-style:normal;font-variant:normal;font-weight:500;font-stretch:normal;font-size:4.23333311px;line-height:4.23333311px;font-family:Montserrat;-inkscape-font-specification:'Montserrat Medium';text-align:center;letter-spacing:-0.26458332px;text-anchor:middle;opacity:1;fill:#eeeeee;fill-opacity:1;fill-rule:nonzero;stroke:none;stroke-width:0.25;stroke-linecap:butt;stroke-linejoin:round;stroke-miterlimit:4;stroke-dasharray:none;stroke-dashoffset:0;stroke-opacity:0.90944878;paint-order:normal"
         aria-label="PROGRESS">
        <path
           id="path4608"
           style="font-style:normal;font-variant:normal;font-weight:500;font-stretch:normal;font-size:4.23333311px;font-family:Montserrat;-inkscape-font-specification:'Montserrat Medium';letter-spacing:-0.26458332px;fill:#eeeeee;fill-opacity:1;stroke-width:0.25"
           d="m 3.760524,20.325294 q 0.5587999,0 0.8635999,0.2667 0.3090333,0.2667 0.3090333,0.753534 0,0.508 -0.3090333,0.791633 -0.3048,0.2794 -0.8635999,0.2794 h -0.6477 v 0.872067 H 2.5455574 v -2.963334 z m -0.029633,1.591734 q 0.3217333,0 0.4910667,-0.1397 0.1735666,-0.1397 0.1735666,-0.414867 0,-0.270933 -0.1735666,-0.4064 Q 4.0526239,20.820594 3.7308906,20.820594 H 3.112824 v 1.096434 z"
           inkscape:connector-curvature="0" />
        <path
           id="path4610"
           style="font-style:normal;font-variant:normal;font-weight:500;font-stretch:normal;font-size:4.23333311px;font-family:Montserrat;-inkscape-font-specification:'Montserrat Medium';letter-spacing:-0.26458332px;fill:#eeeeee;fill-opacity:1;stroke-width:0.25"
           d="m 6.9959811,23.288628 -0.5122333,-0.8763 q -0.033867,0.0042 -0.1058333,0.0042 H 5.7090478 v 0.872067 H 5.1417812 v -2.963334 h 1.2361333 q 0.5757333,0 0.8889999,0.2667 0.3132667,0.2667 0.3132667,0.753534 0,0.347133 -0.1524,0.592666 -0.1481667,0.245534 -0.4360333,0.3683 l 0.6519333,0.982134 z m -1.2869333,-1.3716 h 0.6688667 q 0.3217333,0 0.4910666,-0.1397 0.1693333,-0.1397 0.1693333,-0.414867 0,-0.270933 -0.1693333,-0.4064 Q 6.6996478,20.820594 6.3779145,20.820594 H 5.7090478 Z"
           inkscape:connector-curvature="0" />
        <path
           id="path4612"
           style="font-style:normal;font-variant:normal;font-weight:500;font-stretch:normal;font-size:4.23333311px;font-family:Montserrat;-inkscape-font-specification:'Montserrat Medium';letter-spacing:-0.26458332px;fill:#eeeeee;fill-opacity:1;stroke-width:0.25"
           d="m 9.2826426,20.287194 q 0.4402667,0 0.8001004,0.198967 0.364066,0.198967 0.5715,0.5461 0.207433,0.347133 0.207433,0.770467 0,0.423333 -0.207433,0.7747 -0.207434,0.347133 -0.5715,0.550333 -0.3598337,0.2032 -0.8001004,0.2032 -0.4402666,0 -0.8043333,-0.2032 -0.3598333,-0.2032 -0.5672666,-0.550333 -0.2074333,-0.351367 -0.2074333,-0.7747 0,-0.423334 0.2074333,-0.770467 0.2074333,-0.347133 0.5672666,-0.5461 0.3640667,-0.198967 0.8043333,-0.198967 z m 0.00847,0.508 q -0.2709333,0 -0.5037666,0.135467 -0.2328334,0.131233 -0.3683,0.364067 -0.1354667,0.2286 -0.1354667,0.508 0,0.2794 0.1354667,0.512233 0.1397,0.232833 0.3683,0.3683 0.2328333,0.135467 0.5037666,0.135467 0.2667,0 0.4953,-0.135467 0.2285994,-0.135467 0.3598334,-0.3683 0.135466,-0.232833 0.135466,-0.512233 0,-0.2794 -0.135466,-0.508 -0.131234,-0.232834 -0.3598334,-0.364067 -0.2286,-0.135467 -0.4953,-0.135467 z"
           inkscape:connector-curvature="0" />
        <path
           id="path4614"
           style="font-style:normal;font-variant:normal;font-weight:500;font-stretch:normal;font-size:4.23333311px;font-family:Montserrat;-inkscape-font-specification:'Montserrat Medium';letter-spacing:-0.26458332px;fill:#eeeeee;fill-opacity:1;stroke-width:0.25"
           d="m 13.00652,21.815428 h 0.4953 v 1.126066 q -0.232833,0.173567 -0.550333,0.283634 -0.3175,0.105833 -0.6223,0.105833 -0.436034,0 -0.795867,-0.2032 -0.3556,-0.2032 -0.563033,-0.550333 -0.207433,-0.351367 -0.207433,-0.7747 0,-0.423334 0.211666,-0.766234 0.211667,-0.347133 0.575734,-0.5461 0.368299,-0.2032 0.812799,-0.2032 0.3175,0 0.626534,0.1143 0.309033,0.1143 0.5334,0.313267 l -0.321734,0.4191 q -0.169333,-0.160867 -0.3937,-0.249767 -0.220133,-0.0889 -0.4445,-0.0889 -0.2794,0 -0.516466,0.135467 -0.232834,0.131233 -0.3683,0.364067 -0.135467,0.232833 -0.135467,0.508 0,0.2794 0.135467,0.512233 0.1397,0.232833 0.372533,0.3683 0.232833,0.135467 0.516467,0.135467 0.1524,0 0.3175,-0.04657 0.169333,-0.0508 0.321733,-0.1397 z"
           inkscape:connector-curvature="0" />
        <path
           id="path4616"
           style="font-style:normal;font-variant:normal;font-weight:500;font-stretch:normal;font-size:4.23333311px;font-family:Montserrat;-inkscape-font-specification:'Montserrat Medium';letter-spacing:-0.26458332px;fill:#eeeeee;fill-opacity:1;stroke-width:0.25"
           d="m 15.743768,23.288628 -0.512234,-0.8763 q -0.03387,0.0042 -0.105833,0.0042 h -0.668867 v 0.872067 h -0.567266 v -2.963334 h 1.236133 q 0.575733,0 0.889,0.2667 0.313267,0.2667 0.313267,0.753534 0,0.347133 -0.1524,0.592666 -0.148167,0.245534 -0.436034,0.3683 l 0.651934,0.982134 z m -1.286934,-1.3716 h 0.668867 q 0.321733,0 0.491067,-0.1397 0.169333,-0.1397 0.169333,-0.414867 0,-0.270933 -0.169333,-0.4064 -0.169334,-0.135467 -0.491067,-0.135467 h -0.668867 z"
           inkscape:connector-curvature="0" />
        <path
           id="path4618"
           style="font-style:normal;font-variant:normal;font-weight:500;font-stretch:normal;font-size:4.23333311px;font-family:Montserrat;-inkscape-font-specification:'Montserrat Medium';letter-spacing:-0.26458332px;fill:#eeeeee;fill-opacity:1;stroke-width:0.25"
           d="m 16.684228,20.325294 h 2.1717 v 0.4953 h -1.604433 v 0.732367 h 1.439333 v 0.4953 h -1.439333 v 0.745067 h 1.655233 v 0.4953 h -2.2225 z"
           inkscape:connector-curvature="0" />
        <path
           id="path4620"
           style="font-style:normal;font-variant:normal;font-weight:500;font-stretch:normal;font-size:4.23333311px;font-family:Montserrat;-inkscape-font-specification:'Montserrat Medium';letter-spacing:-0.26458332px;fill:#eeeeee;fill-opacity:1;stroke-width:0.25"
           d="m 21.076973,21.087294 q -0.2286,-0.1397 -0.4699,-0.2159 -0.237067,-0.0762 -0.4191,-0.0762 -0.2032,0 -0.321733,0.0762 -0.118534,0.0762 -0.118534,0.211667 0,0.122767 0.08043,0.207433 0.08467,0.08043 0.207433,0.135467 0.127,0.0508 0.3429,0.1143 0.300566,0.0889 0.491066,0.1778 0.194734,0.0889 0.3302,0.262467 0.135467,0.173566 0.135467,0.4572 0,0.270933 -0.148167,0.474133 -0.143933,0.198967 -0.402166,0.3048 -0.254,0.105833 -0.5842,0.105833 -0.347133,0 -0.677333,-0.127 -0.3302,-0.131233 -0.575734,-0.347133 l 0.237067,-0.4826 q 0.224367,0.207433 0.503767,0.325967 0.2794,0.118533 0.520699,0.118533 0.237067,0 0.372534,-0.0889 0.135466,-0.09313 0.135466,-0.249767 0,-0.127 -0.08467,-0.207433 -0.08043,-0.08467 -0.207434,-0.135467 -0.127,-0.0508 -0.347133,-0.1143 -0.300566,-0.0889 -0.491066,-0.173566 -0.1905,-0.08467 -0.325967,-0.254 -0.135467,-0.173567 -0.135467,-0.452967 0,-0.258233 0.135467,-0.448733 0.1397,-0.194734 0.389467,-0.300567 0.254,-0.105833 0.584199,-0.105833 0.287867,0 0.567267,0.08467 0.283633,0.08467 0.503767,0.2286 z"
           inkscape:connector-curvature="0" />
        <path
           id="path4622"
           style="font-style:normal;font-variant:normal;font-weight:500;font-stretch:normal;font-size:4.23333311px;font-family:Montserrat;-inkscape-font-specification:'Montserrat Medium';letter-spacing:-0.26458332px;fill:#eeeeee;fill-opacity:1;stroke-width:0.25"
           d="m 23.47476,21.087294 q -0.2286,-0.1397 -0.4699,-0.2159 -0.237067,-0.0762 -0.4191,-0.0762 -0.2032,0 -0.321733,0.0762 -0.118534,0.0762 -0.118534,0.211667 0,0.122767 0.08043,0.207433 0.08467,0.08043 0.207433,0.135467 0.127,0.0508 0.3429,0.1143 0.300567,0.0889 0.491067,0.1778 0.194733,0.0889 0.3302,0.262467 0.135466,0.173566 0.135466,0.4572 0,0.270933 -0.148166,0.474133 -0.143934,0.198967 -0.402167,0.3048 -0.254,0.105833 -0.5842,0.105833 -0.347133,0 -0.677333,-0.127 -0.3302,-0.131233 -0.575734,-0.347133 l 0.237067,-0.4826 q 0.224367,0.207433 0.503767,0.325967 0.2794,0.118533 0.5207,0.118533 0.237066,0 0.372533,-0.0889 0.135467,-0.09313 0.135467,-0.249767 0,-0.127 -0.08467,-0.207433 -0.08043,-0.08467 -0.207433,-0.135467 -0.127,-0.0508 -0.347134,-0.1143 -0.300566,-0.0889 -0.491066,-0.173566 -0.1905,-0.08467 -0.325967,-0.254 -0.135467,-0.173567 -0.135467,-0.452967 0,-0.258233 0.135467,-0.448733 0.1397,-0.194734 0.389467,-0.300567 0.254,-0.105833 0.5842,-0.105833 0.287866,0 0.567266,0.08467 0.283634,0.08467 0.503767,0.2286 z"
           inkscape:connector-curvature="0" />
      </g>
    </g>
    <text
       xml:space="preserve"
       style="font-style:normal;font-variant:normal;font-weight:500;font-stretch:normal;font-size:8.46666622px;line-height:4.23333311px;font-family:Montserrat;-inkscape-font-specification:'Montserrat Medium';text-align:center;text-anchor:middle;opacity:1;fill:#eeeeee;fill-opacity:1;fill-rule:nonzero;stroke:none;stroke-width:4.23333311;stroke-linecap:butt;stroke-linejoin:round;stroke-miterlimit:4;stroke-dasharray:none;stroke-dashoffset:0;stroke-opacity:1;paint-order:stroke fill markers"
       x="-355.53735"
       y="24.113144"
       id="text4627-36-3"><tspan
         sodipodi:role="line"
         id="tspan4625-0-6"
         x="-355.53735"
         y="24.113144"
         style="font-style:normal;font-variant:normal;font-weight:500;font-stretch:normal;font-size:8.46666622px;font-family:Montserrat;-inkscape-font-specification:'Montserrat Medium';text-align:center;text-anchor:middle;fill:#eeeeee;fill-opacity:1;stroke-width:4.23333311">ORD</tspan></text>
  </g>
</svg>
